<svg version="1.1" xmlns="http://www.w3.org/2000/svg" xmlns:xlink="http://www.w3.org/1999/xlink" width="53.93566" height="59.9524" viewBox="0,0,53.93566,59.9524"><g transform="translate(-213.03218,-150.02381)"><g data-paper-data="{&quot;isPaintingLayer&quot;:true}" fill-rule="nonzero" stroke="none" stroke-linecap="butt" stroke-linejoin="miter" stroke-miterlimit="10" stroke-dasharray="" stroke-dashoffset="0" style="mix-blend-mode: normal"><path d="M266.36521,150.02381c0.33283,0 0.60263,0.95863 0.60263,2.14116v55.67008c0,1.18253 -0.26981,2.14116 -0.60263,2.14116h-52.7304c-0.33283,0 -0.60263,-0.95863 -0.60263,-2.14116v-55.67008c0,-1.18253 0.26981,-2.14116 0.60263,-2.14116z" data-paper-data="{&quot;index&quot;:null}" fill="#efff00" stroke-width="0"/><path d="M265.51491,154.42601c0.32209,0 0.5832,0.80505 0.5832,1.79813v46.75136c0,0.99309 -0.26111,1.79813 -0.5832,1.79813h-51.02984c-0.32209,0 -0.5832,-0.80505 -0.5832,-1.79813v-46.75136c0,-0.99309 0.26111,-1.79813 0.5832,-1.79813z" data-paper-data="{&quot;index&quot;:null}" fill="#a3a3a3" stroke-width="0"/><g><g stroke-width="0.5"><g fill="#909090"><path d="M258.74326,178.54242c-1.2518,-0.45361 -0.7982,-1.70542 -0.7982,-1.70542l0.30316,0.02939c-1.37558,-4.01501 -2.04679,-8.64628 -4.85384,-12.04107c-0.57198,-0.69173 -3.11783,-0.51728 -3.73573,-0.53356c-3.99201,-0.10519 -7.83916,0.49526 -11.72273,1.09533c0,0 -1.31656,0.19857 -1.51513,-1.11799c-0.19857,-1.31656 1.11799,-1.51513 1.11799,-1.51513c4.04181,-0.59189 8.04976,-1.22966 12.19935,-1.12393c1.92126,0.04895 4.08086,-0.10218 5.57504,1.34887c0.1481,0.14381 1.41773,2.46815 1.59944,2.79044c1.88363,3.34098 2.62012,6.65325 3.85395,10.2316l-0.3179,1.74327c0,0 -0.45361,1.25181 -1.70541,0.7982z"/><path d="M254.3536,178.77692c-0.89882,-0.32569 -0.57313,-1.22453 -0.57313,-1.22453l0.21767,0.0211c-0.98771,-2.88288 -1.46965,-6.20825 -3.48519,-8.6458c-0.41068,-0.49669 -2.23869,-0.37142 -2.68236,-0.38312c-2.86636,-0.07554 -5.62872,0.3556 -8.41723,0.78648c0,0 -0.94532,0.14257 -1.0879,-0.80275c-0.14257,-0.94532 0.80275,-1.08789 0.80275,-1.08789c2.90213,-0.42499 5.77993,-0.88293 8.75947,-0.80701c1.37951,0.03516 2.93016,-0.07338 4.00302,0.96851c0.10633,0.10327 1.01798,1.77221 1.14844,2.00361c1.3525,2.39891 1.88131,4.77721 2.76723,7.34656l-0.22825,1.25171c0,0 -0.3257,0.89882 -1.22452,0.57313z"/><path d="M223.85505,175.65429c0.934,0.9489 -0.01488,1.8829 -0.01488,1.8829l-0.26087,-0.15721c-0.48944,4.2158 -1.8801,8.68404 -0.81056,12.95723c0.21794,0.87071 2.59034,1.81072 3.14086,2.09176c3.55676,1.81568 7.28698,2.93217 11.04989,4.06474c0,0 1.27356,0.38832 0.88522,1.66189c-0.38833,1.27357 -1.6619,0.88523 -1.6619,0.88523c-3.90217,-1.20814 -7.79354,-2.3603 -11.49227,-4.24438c-1.71251,-0.87232 -3.72632,-1.66687 -4.44909,-3.62025c-0.07163,-0.1936 -0.21536,-2.8382 -0.2404,-3.20734c-0.25951,-3.82661 0.50368,-7.13279 0.93283,-10.89349l1.03828,-1.43598c0,0 0.9489,-0.934 1.88291,0.01488z"/><path d="M227.91705,177.33488c0.67065,0.68133 -0.01068,1.35197 -0.01068,1.35197l-0.18731,-0.11286c-0.35145,3.02705 -1.34998,6.23537 -0.58201,9.30363c0.15649,0.62519 1.85993,1.30014 2.25523,1.50193c2.55385,1.3037 5.23224,2.10537 7.9341,2.91859c0,0 0.91444,0.27884 0.63561,1.1933c-0.27883,0.91445 -1.19328,0.63562 -1.19328,0.63562c-2.80185,-0.86748 -5.59599,-1.69477 -8.25176,-3.04758c-1.22962,-0.62635 -2.67559,-1.19684 -3.19457,-2.59943c-0.05143,-0.13901 -0.15463,-2.03791 -0.17261,-2.30295c-0.18635,-2.7476 0.36166,-5.12154 0.66979,-7.82182l0.74551,-1.03107c0,0 0.68132,-0.67064 1.35197,0.01069z"/></g><g fill="#c9c9c9"><path d="M258.02825,177.82739c-1.2518,-0.45361 -0.79819,-1.70541 -0.79819,-1.70541l0.30315,0.0294c-1.37558,-4.01501 -2.04679,-8.64627 -4.85384,-12.04106c-0.57198,-0.69173 -3.11783,-0.51728 -3.73573,-0.53357c-3.99201,-0.10519 -7.83916,0.49526 -11.72273,1.09533c0,0 -1.31656,0.19857 -1.51513,-1.118c-0.19857,-1.31656 1.118,-1.51513 1.118,-1.51513c4.04181,-0.59189 8.04976,-1.22966 12.19936,-1.12393c1.92126,0.04895 4.08086,-0.10218 5.57504,1.34886c0.1481,0.14381 1.41774,2.46817 1.59944,2.79046c1.88363,3.34098 2.62011,6.65324 3.85394,10.23159l-0.31789,1.74327c0,0 -0.45361,1.2518 -1.70541,0.79819z"/><path d="M253.63859,178.06191c-0.89882,-0.32569 -0.57313,-1.22454 -0.57313,-1.22454l0.21767,0.02112c-0.98771,-2.88288 -1.46964,-6.20826 -3.48517,-8.6458c-0.41068,-0.49669 -2.2387,-0.37143 -2.68236,-0.38311c-2.86636,-0.07554 -5.6287,0.35561 -8.41721,0.78648c0,0 -0.94534,0.14257 -1.08792,-0.80275c-0.14257,-0.94532 0.80275,-1.0879 0.80275,-1.0879c2.90213,-0.42499 5.77993,-0.88292 8.75946,-0.807c1.37951,0.03516 2.93017,-0.07337 4.00303,0.96852c0.10633,0.10327 1.01797,1.77221 1.14843,2.00361c1.3525,2.39891 1.88131,4.7772 2.76724,7.34655l-0.22826,1.25171c0,0 -0.32569,0.89883 -1.22451,0.57313z"/><path d="M223.14003,174.93928c0.934,0.9489 -0.01488,1.88291 -0.01488,1.88291l-0.26087,-0.15721c-0.48944,4.2158 -1.8801,8.68404 -0.81056,12.95723c0.21794,0.87071 2.59034,1.8107 3.14086,2.09174c3.55676,1.81568 7.28698,2.93219 11.04989,4.06475c0,0 1.27356,0.38833 0.88522,1.6619c-0.38833,1.27357 -1.66189,0.88522 -1.66189,0.88522c-3.90217,-1.20814 -7.79354,-2.3603 -11.49228,-4.24438c-1.71251,-0.87232 -3.72631,-1.66685 -4.44908,-3.62024c-0.07163,-0.1936 -0.21536,-2.8382 -0.2404,-3.20734c-0.25951,-3.82661 0.50367,-7.13281 0.93282,-10.89349l1.03829,-1.43597c0,0 0.9489,-0.934 1.88291,0.01488z"/><path d="M227.20204,176.61987c0.67065,0.68133 -0.01069,1.35197 -0.01069,1.35197l-0.18731,-0.11288c-0.35145,3.02705 -1.34997,6.23538 -0.582,9.30363c0.15649,0.62519 1.85994,1.30014 2.25522,1.50193c2.55385,1.3037 5.23224,2.10537 7.9341,2.91859c0,0 0.91445,0.27883 0.63562,1.19328c-0.27883,0.91445 -1.1933,0.63562 -1.1933,0.63562c-2.80185,-0.86748 -5.59597,-1.69475 -8.25176,-3.04758c-1.22962,-0.62635 -2.67559,-1.19684 -3.19457,-2.59943c-0.05143,-0.13901 -0.15464,-2.03791 -0.17261,-2.30296c-0.18635,-2.7476 0.36165,-5.12154 0.66978,-7.82181l0.74552,-1.03107c0,0 0.68133,-0.67064 1.35198,0.01069z"/></g><g fill="#efff00"><path d="M258.02825,178.00615c-1.2518,-0.45361 -0.79819,-1.70542 -0.79819,-1.70542l0.30315,0.0294c-1.37558,-4.01501 -2.04679,-8.64627 -4.85384,-12.04106c-0.57198,-0.69173 -3.11783,-0.51728 -3.73573,-0.53357c-3.99201,-0.10519 -7.83916,0.49527 -11.72273,1.09534c0,0 -1.31656,0.19857 -1.51513,-1.11799c-0.19857,-1.31656 1.118,-1.51514 1.118,-1.51514c4.04181,-0.59189 8.04976,-1.22966 12.19936,-1.12393c1.92126,0.04895 4.08086,-0.10218 5.57504,1.34886c0.1481,0.14381 1.41774,2.46817 1.59944,2.79046c1.88363,3.34098 2.62011,6.65324 3.85394,10.23159l-0.31789,1.74327c0,0 -0.45361,1.2518 -1.70541,0.79819z"/><path d="M253.63859,178.24065c-0.89882,-0.32569 -0.57313,-1.22451 -0.57313,-1.22451l0.21767,0.0211c-0.98771,-2.88288 -1.46964,-6.20825 -3.48517,-8.6458c-0.41068,-0.49669 -2.2387,-0.37143 -2.68236,-0.38312c-2.86636,-0.07554 -5.6287,0.35562 -8.41721,0.78648c0,0 -0.94534,0.14257 -1.08792,-0.80275c-0.14257,-0.94532 0.80275,-1.08791 0.80275,-1.08791c2.90213,-0.42499 5.77993,-0.88291 8.75946,-0.80701c1.37951,0.03516 2.93017,-0.07338 4.00303,0.96851c0.10633,0.10327 1.01797,1.77221 1.14843,2.00361c1.3525,2.39891 1.88131,4.77719 2.76724,7.34654l-0.22826,1.25172c0,0 -0.32569,0.89882 -1.22451,0.57312z"/><path d="M223.14003,175.11806c0.934,0.9489 -0.01488,1.88291 -0.01488,1.88291l-0.26087,-0.1572c-0.48944,4.2158 -1.8801,8.68404 -0.81056,12.95723c0.21794,0.87071 2.59034,1.81071 3.14086,2.09174c3.55676,1.81568 7.28698,2.93218 11.04989,4.06475c0,0 1.27356,0.38833 0.88522,1.6619c-0.38833,1.27357 -1.66189,0.88523 -1.66189,0.88523c-3.90217,-1.20814 -7.79356,-2.3603 -11.49229,-4.24439c-1.71251,-0.87232 -3.72632,-1.66685 -4.44909,-3.62024c-0.07163,-0.1936 -0.21536,-2.8382 -0.24039,-3.20734c-0.25951,-3.82661 0.50367,-7.13281 0.93282,-10.8935l1.03828,-1.43597c0,0 0.9489,-0.934 1.88291,0.01488z"/><path d="M227.20204,176.79861c0.67065,0.68133 -0.01069,1.35197 -0.01069,1.35197l-0.18731,-0.11288c-0.35145,3.02705 -1.34997,6.23538 -0.582,9.30363c0.15649,0.62519 1.85994,1.30013 2.25522,1.50193c2.55385,1.3037 5.23224,2.10538 7.9341,2.9186c0,0 0.91445,0.27884 0.63562,1.1933c-0.27883,0.91445 -1.1933,0.6356 -1.1933,0.6356c-2.80185,-0.86748 -5.59597,-1.69475 -8.25176,-3.04758c-1.22962,-0.62635 -2.67559,-1.19684 -3.19457,-2.59942c-0.05143,-0.13901 -0.15464,-2.03792 -0.17261,-2.30296c-0.18635,-2.7476 0.36165,-5.12154 0.66978,-7.82181l0.74552,-1.03107c0,0 0.68133,-0.67065 1.35198,0.01068z"/></g></g><g fill="#efff00" stroke-width="0"><path d="M234.75744,189.3434c-1.09096,-0.20424 -1.80978,-1.25418 -1.60554,-2.34514l1.83774,-9.81655c0.20424,-1.09096 1.2542,-1.80978 2.34514,-1.60554l8.39723,1.57204c1.09096,0.20424 1.80978,1.2542 1.60554,2.34515l-1.83774,9.81653c-0.20424,1.09096 -1.25419,1.80978 -2.34515,1.60554z"/><path d="M239.02403,176.37668c-0.62927,-0.11781 -1.12463,-0.2922 -1.1064,-0.38951l0.16393,-0.87566c0.01821,-0.09731 0.54311,-0.08071 1.17237,0.0371l4.84356,0.90677c0.62927,0.11781 1.12463,0.29218 1.1064,0.38951l-0.16393,0.87566c-0.01821,0.09731 -0.54311,0.0807 -1.17237,-0.0371z"/><path d="M239.60579,175.67603c-0.45411,-0.08501 -0.74931,-0.54359 -0.65932,-1.02427l0.80971,-4.32516c0.08999,-0.48068 0.53109,-0.80142 0.9852,-0.71641l3.49542,0.65437c0.45411,0.08501 0.7493,0.54359 0.65932,1.02427l-0.8097,4.32516c-0.08999,0.48068 -0.53108,0.80142 -0.9852,0.71641z"/></g></g></g></g></svg>