<svg version="1.1" xmlns="http://www.w3.org/2000/svg" xmlns:xlink="http://www.w3.org/1999/xlink" width="325.3507" height="50.19371" viewBox="0,0,325.3507,50.19371"><g transform="translate(-77.32466,-147.3656)"><g data-paper-data="{&quot;isPaintingLayer&quot;:true}" fill-rule="nonzero" stroke="none" stroke-linecap="butt" stroke-linejoin="miter" stroke-miterlimit="10" stroke-dasharray="" stroke-dashoffset="0" style="mix-blend-mode: normal"><path d="M399.04016,147.3656c2.00767,0 3.63521,0.79846 3.63521,1.78341v46.36869c0,0.98495 -1.62753,1.78341 -3.63521,1.78341h-318.08028c-2.00767,0 -3.63521,-0.79846 -3.63521,-1.78341v-46.36869c0,-0.98495 1.62753,-1.78341 3.63521,-1.78341z" data-paper-data="{&quot;index&quot;:null}" fill="#888888" stroke-width="0"/><path d="M393.91112,151.03228c1.94292,0 3.51796,0.67054 3.51796,1.4977v38.94012c0,0.82716 -1.57505,1.4977 -3.51796,1.4977h-307.82217c-1.94292,0 -3.51796,-0.67054 -3.51796,-1.4977v-38.94012c0,-0.82716 1.57505,-1.4977 3.51796,-1.4977z" data-paper-data="{&quot;index&quot;:null}" fill="#a3a3a3" stroke-width="0"/><text transform="translate(240.00004,184.43547) scale(0.8467,0.8467)" font-size="40" xml:space="preserve" fill="#d6d6d6" fill-rule="nonzero" stroke="none" stroke-width="1" stroke-linecap="butt" stroke-linejoin="miter" stroke-miterlimit="10" stroke-dasharray="" stroke-dashoffset="0" font-family="&quot;Bahnschrift&quot;, Sans Serif" font-weight="normal" text-anchor="middle" style="mix-blend-mode: normal"><tspan x="0" dy="0">Access game</tspan></text></g></g></svg>