<svg version="1.1" xmlns="http://www.w3.org/2000/svg" xmlns:xlink="http://www.w3.org/1999/xlink" width="312.14698" height="49.93551" viewBox="0,0,312.14698,49.93551"><g transform="translate(-83.92651,-155.03225)"><g data-paper-data="{&quot;isPaintingLayer&quot;:true}" fill-rule="nonzero" stroke="none" stroke-linecap="butt" stroke-linejoin="miter" stroke-miterlimit="10" stroke-dasharray="" stroke-dashoffset="0" style="mix-blend-mode: normal"><path d="M392.58582,155.03226c1.92618,0 3.48767,0.79846 3.48767,1.78341v46.36869c0,0.98495 -1.56148,1.78341 -3.48767,1.78341h-305.17164c-1.92618,0 -3.48767,-0.79846 -3.48767,-1.78341v-46.36869c0,-0.98495 1.56148,-1.78341 3.48767,-1.78341z" data-paper-data="{&quot;index&quot;:null}" fill="#888888" stroke-width="0"/><path d="M387.66492,158.69896c1.86408,0 3.37518,0.67054 3.37518,1.4977v38.94012c0,0.82716 -1.51114,1.4977 -3.37518,1.4977h-295.3298c-1.86407,0 -3.37517,-0.67054 -3.37517,-1.4977v-38.94012c0,-0.82716 1.51114,-1.4977 3.37517,-1.4977z" data-paper-data="{&quot;index&quot;:null}" fill="#b2b2b2" stroke-width="0"/><text transform="translate(239.99997,190.60396) scale(0.8467,0.8467)" font-size="40" xml:space="preserve" fill="#edff00" fill-rule="nonzero" stroke="none" stroke-width="1" stroke-linecap="butt" stroke-linejoin="miter" stroke-miterlimit="10" stroke-dasharray="" stroke-dashoffset="0" font-family="&quot;Bahnschrift&quot;, Sans Serif" font-weight="normal" text-anchor="middle" style="mix-blend-mode: normal"><tspan x="0" dy="0">Возрождаться</tspan></text></g></g></svg>