<svg version="1.1" xmlns="http://www.w3.org/2000/svg" xmlns:xlink="http://www.w3.org/1999/xlink" width="447" height="328.62584" viewBox="0,0,447,328.62584"><g transform="translate(-16,-13.20749)"><g data-paper-data="{&quot;isPaintingLayer&quot;:true}" fill="#8c8c8c" fill-rule="nonzero" stroke-linecap="butt" stroke-linejoin="miter" stroke-miterlimit="10" stroke-dasharray="" stroke-dashoffset="0" style="mix-blend-mode: normal"><path d="M36.7907,30.7571v294.38543h-20.7907v-294.38542z" data-paper-data="{&quot;index&quot;:null}" stroke="none" stroke-width="0"/><path d="M46.25001,197.44109v21.50762h-12.92442v-21.50762z" data-paper-data="{&quot;index&quot;:null}" stroke="none" stroke-width="0"/><path d="M82.84303,326.72779v-87.37467h12.99419v87.37467z" data-paper-data="{&quot;index&quot;:null}" stroke="none" stroke-width="0"/><path d="M211.3779,200.68604v-86.69013h11.99419v86.69013z" data-paper-data="{&quot;index&quot;:null}" stroke="none" stroke-width="0"/><path d="M82.99226,13.20749v18.81916h-66.99226v-18.81916z" data-paper-data="{&quot;index&quot;:null}" stroke="none" stroke-width="0"/><path d="M190.786,201.50352v-12.25331h23.82268v12.25331z" data-paper-data="{&quot;index&quot;:null}" stroke="none" stroke-width="0"/><path d="M143.07559,201.14655v-11.42592h27.98837v11.42592z" data-paper-data="{&quot;index&quot;:null}" stroke="none" stroke-width="0"/><path d="M139.50872,199.0812v-84.63721h14.72675v84.63721z" data-paper-data="{&quot;index&quot;:null}" stroke="none" stroke-width="0"/><path d="M152.93605,130.57471v-16.13071h58.47384v16.13071z" data-paper-data="{&quot;index&quot;:null}" stroke="none" stroke-width="0"/><path d="M160.47094,13.55298v18.81916h-86.19477v-18.81916z" data-paper-data="{&quot;index&quot;:null}" stroke="none" stroke-width="0"/><path d="M140.31104,115.78822v-84.03111h10.82849v84.03112z" data-paper-data="{&quot;index&quot;:null}" stroke="none" stroke-width="0"/><path d="M68.84303,91.8722v-16.01869h71.46802v16.01869z" data-paper-data="{&quot;index&quot;:null}" stroke="none" stroke-width="0"/><path d="M292.058,148.86666l-40.31628,40.31628l-5.06135,-5.06135l40.31628,-40.31628z" data-paper-data="{&quot;index&quot;:null}" stroke="none" stroke-width="0"/><path d="M158.73838,32.82023v-18.81916h86.19476v18.81916z" data-paper-data="{&quot;index&quot;:null}" stroke="none" stroke-width="0"/><path d="M120.81977,113.53015v30.91719h-51.5436v-30.91719z" data-paper-data="{&quot;index&quot;:null}" stroke="none" stroke-width="0"/><path d="M149.84012,103.01808v-30.91719h51.5436v30.9172z" data-paper-data="{&quot;index&quot;:null}" stroke="none" stroke-width="0"/><path d="M227.37209,322.00599v-82.66987h12.99419v82.66987z" data-paper-data="{&quot;index&quot;:null}" stroke="none" stroke-width="0"/><path d="M240.36629,320.99783v20.8355h-223.93315v-20.8355z" data-paper-data="{&quot;index&quot;:null}" stroke="none" stroke-width="0"/><path d="M442.2093,325.14253v-309.12992h20.7907v309.12992z" data-paper-data="{&quot;index&quot;:null}" stroke="none" stroke-width="0"/><path d="M445.67442,197.44109v21.50762h-17.92442v-21.50762z" data-paper-data="{&quot;index&quot;:null}" stroke="none" stroke-width="0"/><path d="M397.16279,239.15407v-16.13071h12.99419v16.13071z" data-paper-data="{&quot;index&quot;:null}" stroke="none" stroke-width="0"/><path d="M330.72966,242.04082v-212.37467h122.99419v212.37467z" data-paper-data="{&quot;index&quot;:null}" stroke="none" stroke-width="0"/><path d="M399.76163,227.91019v16.13071h-58.47384v-16.13071z" data-paper-data="{&quot;index&quot;:null}" stroke="none" stroke-width="0"/><path d="M449.375,14.15298v18.51916h-120.84593v-18.51916z" data-paper-data="{&quot;index&quot;:null}" stroke="none" stroke-width="0"/><path d="M338.92472,242.69667v78.13525h-10.82849v-78.13524z" data-paper-data="{&quot;index&quot;:null}" stroke="none" stroke-width="0"/><path d="M244.06687,32.82023v-18.81916h86.19476v18.81916z" data-paper-data="{&quot;index&quot;:null}" stroke="none" stroke-width="0"/><path d="M238.63372,322.00599v-82.66987h12.99419v82.66987z" data-paper-data="{&quot;index&quot;:null}" stroke="none" stroke-width="0"/><path d="M462.56688,320.99783v20.8355h-223.93315v-20.8355z" data-paper-data="{&quot;index&quot;:null}" stroke="none" stroke-width="0"/><path d="M246.5,318.8v-77h204v77z" data-paper-data="{&quot;index&quot;:null}" stroke="#8c8c8c" stroke-width="7"/><path d="M391.5,282.6849v44h-257v-44z" data-paper-data="{&quot;index&quot;:null}" stroke="none" stroke-width="0"/></g></g></svg>