<svg version="1.1" xmlns="http://www.w3.org/2000/svg" xmlns:xlink="http://www.w3.org/1999/xlink" width="44.4232" height="39.62448" viewBox="0,0,44.4232,39.62448"><g transform="translate(-217.7884,-160.47335)"><g data-paper-data="{&quot;isPaintingLayer&quot;:true}" fill-rule="nonzero" stroke="none" stroke-linecap="butt" stroke-linejoin="miter" stroke-miterlimit="10" stroke-dasharray="" stroke-dashoffset="0" style="mix-blend-mode: normal"><path d="M261.71525,160.47335c0.27412,0 0.49635,0.62446 0.49635,1.39476v36.26378c0,0.7703 -0.22222,1.39476 -0.49635,1.39476h-43.4305c-0.27412,0 -0.49635,-0.62446 -0.49635,-1.39476v-36.26378c0,-0.7703 0.22222,-1.39476 0.49635,-1.39476z" data-paper-data="{&quot;index&quot;:null}" fill="#888888" stroke-width="0"/><path d="M259.30183,163.34097c0.24366,0 0.44118,0.52441 0.44118,1.17131v30.45408c0,0.6469 -0.19753,1.17131 -0.44118,1.17131h-38.60365c-0.24366,0 -0.44118,-0.52441 -0.44118,-1.17131v-30.45408c0,-0.6469 0.19753,-1.17131 0.44118,-1.17131z" data-paper-data="{&quot;index&quot;:null}" fill="#a2a2a2" stroke-width="0"/><text transform="translate(240.51733,188.87273) scale(0.7242,0.7242)" font-size="40" xml:space="preserve" fill="#d6d6d6" fill-rule="nonzero" stroke="none" stroke-width="1" stroke-linecap="butt" stroke-linejoin="miter" stroke-miterlimit="10" stroke-dasharray="" stroke-dashoffset="0" font-family="&quot;Bahnschrift&quot;, Sans Serif" font-weight="normal" text-anchor="middle" style="mix-blend-mode: normal"><tspan x="0" dy="0">30</tspan></text></g></g></svg>