<svg version="1.1" xmlns="http://www.w3.org/2000/svg" xmlns:xlink="http://www.w3.org/1999/xlink" width="447" height="328.62584" viewBox="0,0,447,328.62584"><g transform="translate(-16,-13.20749)"><g data-paper-data="{&quot;isPaintingLayer&quot;:true}" fill="#8c8c8c" fill-rule="nonzero" stroke-linecap="butt" stroke-linejoin="miter" stroke-miterlimit="10" stroke-dasharray="" stroke-dashoffset="0" style="mix-blend-mode: normal"><path d="M36.7907,30.7571v294.38543h-20.7907v-294.38542z" data-paper-data="{&quot;index&quot;:null}" stroke="none" stroke-width="0"/><path d="M46.25001,197.44109v21.50762h-12.92442v-21.50762z" data-paper-data="{&quot;index&quot;:null}" stroke="none" stroke-width="0"/><path d="M95.83722,31.75711v87.37467h-12.99419v-87.37467z" data-paper-data="{&quot;index&quot;:null}" stroke="none" stroke-width="0"/><path d="M82.27036,158.79886v85.69013h-12.99419v-85.69013z" data-paper-data="{&quot;index&quot;:null}" stroke="none" stroke-width="0"/><path d="M82.99226,13.20749v18.81916h-66.99226v-18.81916z" data-paper-data="{&quot;index&quot;:null}" stroke="none" stroke-width="0"/><path d="M105.86226,158.85662v10.50284h-23.82268v-10.50284z" data-paper-data="{&quot;index&quot;:null}" stroke="none" stroke-width="0"/><path d="M151.57267,157.33835v11.42592h-25.98837v-11.42592z" data-paper-data="{&quot;index&quot;:null}" stroke="none" stroke-width="0"/><path d="M151.13954,165.4037v78.63721h-14.72675v-78.63721z" data-paper-data="{&quot;index&quot;:null}" stroke="none" stroke-width="0"/><path d="M137.71221,227.91019v16.13071h-58.47384v-16.13071z" data-paper-data="{&quot;index&quot;:null}" stroke="none" stroke-width="0"/><path d="M160.47094,13.55298v18.81916h-86.19477v-18.81916z" data-paper-data="{&quot;index&quot;:null}" stroke="none" stroke-width="0"/><path d="M151.13953,242.69667v84.03112h-10.82849v-84.03111z" data-paper-data="{&quot;index&quot;:null}" stroke="none" stroke-width="0"/><path d="M140.31105,266.6127v16.01869h-71.46802v-16.01869z" data-paper-data="{&quot;index&quot;:null}" stroke="none" stroke-width="0"/><path d="M227.37209,207.7468v-103.50537h12.99419v103.50538z" data-paper-data="{&quot;index&quot;:null}" stroke="none" stroke-width="0"/><path d="M158.73838,32.82023v-18.81916h86.19476v18.81916z" data-paper-data="{&quot;index&quot;:null}" stroke="none" stroke-width="0"/><path d="M227.37209,160.02681v30.91719h-51.5436v-30.91719z" data-paper-data="{&quot;index&quot;:null}" stroke="none" stroke-width="0"/><path d="M201.38372,255.46681v30.9172h-51.5436v-30.91719z" data-paper-data="{&quot;index&quot;:null}" stroke="none" stroke-width="0"/><path d="M227.37209,322.00599v-82.66987h12.99419v82.66987z" data-paper-data="{&quot;index&quot;:null}" stroke="none" stroke-width="0"/><path d="M240.36629,320.99783v20.8355h-223.93315v-20.8355z" data-paper-data="{&quot;index&quot;:null}" stroke="none" stroke-width="0"/><path d="M463,16.01261v309.12992h-20.7907v-309.12992z" data-paper-data="{&quot;index&quot;:null}" stroke="none" stroke-width="0"/><path d="M445.67442,197.44109v21.50762h-17.92442v-21.50762z" data-paper-data="{&quot;index&quot;:null}" stroke="none" stroke-width="0"/><path d="M410.15698,102.00107v16.13071h-12.99419v-16.13071z" data-paper-data="{&quot;index&quot;:null}" stroke="none" stroke-width="0"/><path d="M453.72385,157.11432v87.37467h-56.99419v-87.37467z" data-paper-data="{&quot;index&quot;:null}" stroke="none" stroke-width="0"/><path d="M353.41569,157.33835v11.42592h-25.98837v-11.42592z" data-paper-data="{&quot;index&quot;:null}" stroke="none" stroke-width="0"/><path d="M342.58722,165.4037v78.63721h-14.72675v-78.63721z" data-paper-data="{&quot;index&quot;:null}" stroke="none" stroke-width="0"/><path d="M399.76163,227.91019v16.13071h-58.47384v-16.13071z" data-paper-data="{&quot;index&quot;:null}" stroke="none" stroke-width="0"/><path d="M449.375,14.15298v18.51916h-120.84593v-18.51916z" data-paper-data="{&quot;index&quot;:null}" stroke="none" stroke-width="0"/><path d="M338.92472,242.69667v78.13525h-10.82849v-78.13524z" data-paper-data="{&quot;index&quot;:null}" stroke="none" stroke-width="0"/><path d="M238.63372,207.7468v-103.50537h12.99419v103.50538z" data-paper-data="{&quot;index&quot;:null}" stroke="none" stroke-width="0"/><path d="M244.06687,32.82023v-18.81916h86.19476v18.81916z" data-paper-data="{&quot;index&quot;:null}" stroke="none" stroke-width="0"/><path d="M238.63372,322.00599v-82.66987h12.99419v82.66987z" data-paper-data="{&quot;index&quot;:null}" stroke="none" stroke-width="0"/><path d="M462.56688,320.99783v20.8355h-223.93315v-20.8355z" data-paper-data="{&quot;index&quot;:null}" stroke="none" stroke-width="0"/><path d="M246.5,318.8v-77h204v77z" stroke="#8c8c8c" stroke-width="7"/><path d="M134.5,75.8v-44h257v44z" stroke="none" stroke-width="0"/></g></g></svg>