<svg version="1.1" xmlns="http://www.w3.org/2000/svg" xmlns:xlink="http://www.w3.org/1999/xlink" width="447" height="328.62584" viewBox="0,0,447,328.62584"><g transform="translate(-16,-17.68708)"><g data-paper-data="{&quot;isPaintingLayer&quot;:true}" fill="#8c8c8c" fill-rule="nonzero" stroke-linecap="butt" stroke-linejoin="miter" stroke-miterlimit="10" stroke-dasharray="" stroke-dashoffset="0" style="mix-blend-mode: normal"><path d="M463,35.2367v294.38542h-20.7907v-294.38543z" data-paper-data="{&quot;index&quot;:null}" stroke="none" stroke-width="0"/><path d="M445.67441,201.92068v21.50762h-12.92442v-21.50762z" data-paper-data="{&quot;index&quot;:null}" stroke="none" stroke-width="0"/><path d="M396.15697,36.2367v87.37467h-12.99419v-87.37467z" data-paper-data="{&quot;index&quot;:null}" stroke="none" stroke-width="0"/><path d="M409.72383,163.27845v85.69013h-12.99419v-85.69013z" data-paper-data="{&quot;index&quot;:null}" stroke="none" stroke-width="0"/><path d="M463,17.68708v18.81916h-66.99226v-18.81916z" data-paper-data="{&quot;index&quot;:null}" stroke="none" stroke-width="0"/><path d="M396.96042,163.33621v10.50284h-23.82268v-10.50284z" data-paper-data="{&quot;index&quot;:null}" stroke="none" stroke-width="0"/><path d="M353.4157,161.81794v11.42592h-25.98837v-11.42592z" data-paper-data="{&quot;index&quot;:null}" stroke="none" stroke-width="0"/><path d="M342.58721,169.88329v78.63721h-14.72675v-78.63721z" data-paper-data="{&quot;index&quot;:null}" stroke="none" stroke-width="0"/><path d="M399.76163,232.38978v16.13071h-58.47384v-16.13071z" data-paper-data="{&quot;index&quot;:null}" stroke="none" stroke-width="0"/><path d="M404.72383,18.03257v18.81916h-86.19477v-18.81916z" data-paper-data="{&quot;index&quot;:null}" stroke="none" stroke-width="0"/><path d="M338.68896,247.17627v84.03111h-10.82849v-84.03112z" data-paper-data="{&quot;index&quot;:null}" stroke="none" stroke-width="0"/><path d="M410.15697,271.09229v16.01869h-71.46802v-16.01869z" data-paper-data="{&quot;index&quot;:null}" stroke="none" stroke-width="0"/><path d="M238.63372,212.2264v-103.50538h12.99419v103.50537z" data-paper-data="{&quot;index&quot;:null}" stroke="none" stroke-width="0"/><path d="M234.06686,37.29982v-18.81916h86.19476v18.81916z" data-paper-data="{&quot;index&quot;:null}" stroke="none" stroke-width="0"/><path d="M303.17151,164.5064v30.91719h-51.5436v-30.91719z" data-paper-data="{&quot;index&quot;:null}" stroke="none" stroke-width="0"/><path d="M329.15988,259.94641v30.91719h-51.5436v-30.9172z" data-paper-data="{&quot;index&quot;:null}" stroke="none" stroke-width="0"/><path d="M238.63372,326.48558v-82.66987h12.99419v82.66987z" data-paper-data="{&quot;index&quot;:null}" stroke="none" stroke-width="0"/><path d="M462.56686,325.47742v20.8355h-223.93315v-20.8355z" data-paper-data="{&quot;index&quot;:null}" stroke="none" stroke-width="0"/><path d="M36.7907,20.4922v309.12992h-20.7907v-309.12992z" data-paper-data="{&quot;index&quot;:null}" stroke="none" stroke-width="0"/><path d="M51.25,201.92068v21.50762h-17.92442v-21.50762z" data-paper-data="{&quot;index&quot;:null}" stroke="none" stroke-width="0"/><path d="M81.83721,106.48066v16.13071h-12.99419v-16.13071z" data-paper-data="{&quot;index&quot;:null}" stroke="none" stroke-width="0"/><path d="M82.27034,161.59391v87.37467h-12.99419v-87.37467z" data-paper-data="{&quot;index&quot;:null}" stroke="none" stroke-width="0"/><path d="M116.855,199.4298l-1.89233,8.35741l-17.42494,-5.59519l1.89233,-8.35741z" data-paper-data="{&quot;index&quot;:null}" stroke="none" stroke-width="0"/><path d="M151.57268,161.81794v11.42592h-25.98837v-11.42592z" data-paper-data="{&quot;index&quot;:null}" stroke="none" stroke-width="0"/><path d="M151.13953,169.88329v78.63721h-14.72675v-78.63721z" data-paper-data="{&quot;index&quot;:null}" stroke="none" stroke-width="0"/><path d="M137.71221,232.38978v16.13071h-58.47384v-16.13071z" data-paper-data="{&quot;index&quot;:null}" stroke="none" stroke-width="0"/><path d="M150.47093,18.63257v18.51916h-120.84593v-18.51916z" data-paper-data="{&quot;index&quot;:null}" stroke="none" stroke-width="0"/><path d="M150.90377,247.17627v78.13524h-10.82849v-78.13525z" data-paper-data="{&quot;index&quot;:null}" stroke="none" stroke-width="0"/><path d="M112.49142,271.09229v16.01869h-43.6484v-16.01869z" data-paper-data="{&quot;index&quot;:null}" stroke="none" stroke-width="0"/><path d="M227.37209,212.2264v-103.50538h12.99419v103.50537z" data-paper-data="{&quot;index&quot;:null}" stroke="none" stroke-width="0"/><path d="M148.73837,37.29982v-18.81916h86.19476v18.81916z" data-paper-data="{&quot;index&quot;:null}" stroke="none" stroke-width="0"/><path d="M212.97106,162.13435l-12.19814,14.52625l-24.21744,-28.83953l12.19814,-14.52625z" data-paper-data="{&quot;index&quot;:null}" stroke="none" stroke-width="0"/><path d="M174.89035,237.97632h25.96212v61.38109h-25.96213z" data-paper-data="{&quot;index&quot;:null}" stroke="none" stroke-width="0"/><path d="M227.37209,326.48558v-82.66987h12.99419v82.66987z" data-paper-data="{&quot;index&quot;:null}" stroke="none" stroke-width="0"/><path d="M240.36627,325.47742v20.8355h-223.93315v-20.8355z" data-paper-data="{&quot;index&quot;:null}" stroke="none" stroke-width="0"/><path d="M171,105.5c-13.25483,0 -24,-10.33189 -24,-23.07692c0,-12.74503 10.74517,-23.07692 24,-23.07692c13.25483,0 24,10.33189 24,23.07692c0,12.74503 -10.74517,23.07692 -24,23.07692z" data-paper-data="{&quot;index&quot;:null}" stroke="#000000" stroke-width="0.5"/></g></g></svg>