<svg version="1.1" xmlns="http://www.w3.org/2000/svg" xmlns:xlink="http://www.w3.org/1999/xlink" width="605" height="368.62584" viewBox="0,0,605,368.62584"><g transform="translate(140.5,25.31292)"><g data-paper-data="{&quot;isPaintingLayer&quot;:true}" fill-rule="nonzero" stroke="none" stroke-width="0" stroke-linecap="butt" stroke-linejoin="miter" stroke-miterlimit="10" stroke-dasharray="" stroke-dashoffset="0" style="mix-blend-mode: normal"><path d="M19,-25.31292v4h-3v-4z" data-paper-data="{&quot;index&quot;:null}" fill="#272727"/><path d="M443.7093,325.76331v-294.38543h20.7907v294.38542z" data-paper-data="{&quot;index&quot;:null}" fill="#8c8c8c"/><path d="M434.24999,159.07932v-21.50762h12.92442v21.50762z" data-paper-data="{&quot;index&quot;:null}" fill="#8c8c8c"/><path d="M384.66278,324.7633v-87.37467h12.99419v87.37467z" data-paper-data="{&quot;index&quot;:null}" fill="#8c8c8c"/><path d="M263.42152,240.99193v85.69013h-12.99419v-85.69013z" data-paper-data="{&quot;index&quot;:null}" fill="#8c8c8c"/><path d="M397.50774,343.31292v-18.81916h66.99226v18.81916z" data-paper-data="{&quot;index&quot;:null}" fill="#8c8c8c"/><path d="M282.01342,241.04969v10.50284h-18.82268v-10.50284z" data-paper-data="{&quot;index&quot;:null}" fill="#8c8c8c"/><path d="M332.72383,239.53142v11.42592h-25.98837v-11.42592z" data-paper-data="{&quot;index&quot;:null}" fill="#8c8c8c"/><path d="M332.2907,247.59677v78.63721h-14.72675v-78.63721z" data-paper-data="{&quot;index&quot;:null}" fill="#8c8c8c"/><path d="M149.78779,148.61022v-16.13071h58.47384v16.13071z" data-paper-data="{&quot;index&quot;:null}" fill="#8c8c8c"/><path d="M320.02906,342.96743v-18.81916h86.19477v18.81916z" data-paper-data="{&quot;index&quot;:null}" fill="#8c8c8c"/><path d="M329.36047,113.82374v-84.03112h10.82849v84.03111z" data-paper-data="{&quot;index&quot;:null}" fill="#8c8c8c"/><path d="M340.18895,89.90771v-16.01869h71.46802v16.01869z" data-paper-data="{&quot;index&quot;:null}" fill="#8c8c8c"/><path d="M321.76162,323.70018v18.81916h-86.19476v-18.81916z" data-paper-data="{&quot;index&quot;:null}" fill="#8c8c8c"/><path d="M157.12791,246.9936v-30.91719h51.5436v30.91719z" data-paper-data="{&quot;index&quot;:null}" fill="#8c8c8c"/><path d="M279.11628,101.0536v-30.9172h51.5436v30.91719z" data-paper-data="{&quot;index&quot;:null}" fill="#8c8c8c"/><path d="M253.12791,34.51442v82.66987h-12.99419v-82.66987z" data-paper-data="{&quot;index&quot;:null}" fill="#8c8c8c"/><path d="M240.13371,35.52258v-20.8355h223.93315v20.8355z" data-paper-data="{&quot;index&quot;:null}" fill="#8c8c8c"/><path d="M17.5,340.5078v-309.12992h20.7907v309.12992z" data-paper-data="{&quot;index&quot;:null}" fill="#8c8c8c"/><path d="M34.82558,159.07932v-21.50762h13.92442v21.50762z" data-paper-data="{&quot;index&quot;:null}" fill="#8c8c8c"/><path d="M70.77615,199.40609v-87.37467h12.99419v87.37467z" data-paper-data="{&quot;index&quot;:null}" fill="#8c8c8c"/><path d="M127.08431,199.18206v-11.42592h25.98837v11.42592z" data-paper-data="{&quot;index&quot;:null}" fill="#8c8c8c"/><path d="M137.91278,191.11671v-78.63721h14.72675v78.63721z" data-paper-data="{&quot;index&quot;:null}" fill="#8c8c8c"/><path d="M80.73837,128.61022v-16.13071h58.47384v16.13071z" data-paper-data="{&quot;index&quot;:null}" fill="#8c8c8c"/><path d="M31.125,342.36743v-18.51916h120.84593v18.51916z" data-paper-data="{&quot;index&quot;:null}" fill="#8c8c8c"/><path d="M141.57528,113.82374v-78.13525h10.82849v78.13524z" data-paper-data="{&quot;index&quot;:null}" fill="#8c8c8c"/><path d="M159.36628,195.27361v103.50537h-20.99419v-103.50538z" data-paper-data="{&quot;index&quot;:null}" fill="#8c8c8c"/><path d="M236.43313,323.70018v18.81916h-86.19476v-18.81916z" data-paper-data="{&quot;index&quot;:null}" fill="#8c8c8c"/><path d="M241.86628,34.51442v82.66987h-12.99419v-82.66987z" data-paper-data="{&quot;index&quot;:null}" fill="#8c8c8c"/><path d="M17.93312,35.52258v-20.8355h223.93315v20.8355z" data-paper-data="{&quot;index&quot;:null}" fill="#8c8c8c"/><path d="M-140.5,111.64625v-1h5v1z" data-paper-data="{&quot;index&quot;:null}" fill="#000000"/><path d="M288.75,178.92687c0,-18.2254 14.7746,-33 33,-33c18.2254,0 33,14.7746 33,33c0,18.2254 -14.7746,33 -33,33c-18.2254,0 -33,-14.7746 -33,-33z" fill="#8c8c8c"/></g></g></svg>