<svg version="1.1" xmlns="http://www.w3.org/2000/svg" xmlns:xlink="http://www.w3.org/1999/xlink" width="605" height="368.62584" viewBox="0,0,605,368.62584"><g transform="translate(140.5,25.31292)"><g data-paper-data="{&quot;isPaintingLayer&quot;:true}" fill-rule="nonzero" stroke="none" stroke-width="0" stroke-linecap="butt" stroke-linejoin="miter" stroke-miterlimit="10" stroke-dasharray="" stroke-dashoffset="0" style="mix-blend-mode: normal"><path d="M19,-25.31292v4h-3v-4z" data-paper-data="{&quot;index&quot;:null}" fill="#272727"/><path d="M17.5,325.7633v-294.38542h20.7907v294.38543z" data-paper-data="{&quot;index&quot;:null}" fill="#8c8c8c"/><path d="M17.5,343.31292v-18.81916h66.99226v18.81916z" data-paper-data="{&quot;index&quot;:null}" fill="#8c8c8c"/><path d="M75.77617,342.96743v-18.81916h86.19477v18.81916z" data-paper-data="{&quot;index&quot;:null}" fill="#8c8c8c"/><path d="M246.43314,323.70018v18.81916h-86.19476v-18.81916z" data-paper-data="{&quot;index&quot;:null}" fill="#8c8c8c"/><path d="M17.93314,35.52258v-20.8355h223.93315v20.8355z" data-paper-data="{&quot;index&quot;:null}" fill="#8c8c8c"/><path d="M443.7093,340.5078v-309.12992h20.7907v309.12992z" data-paper-data="{&quot;index&quot;:null}" fill="#8c8c8c"/><path d="M330.02907,342.36743v-18.51916h120.84593v18.51916z" data-paper-data="{&quot;index&quot;:null}" fill="#8c8c8c"/><path d="M331.76163,323.70018v18.81916h-86.19476v-18.81916z" data-paper-data="{&quot;index&quot;:null}" fill="#8c8c8c"/><path d="M240.13373,35.52258v-20.8355h223.93315v20.8355z" data-paper-data="{&quot;index&quot;:null}" fill="#8c8c8c"/><path d="M-140.5,111.64625v-1h5v1z" data-paper-data="{&quot;index&quot;:null}" fill="#000000"/><path d="M63.75,149.64456h83.85715v33.69545h-83.85714z" data-paper-data="{&quot;index&quot;:null}" fill="#8c8c8c"/><path d="M144.75,61.07313h21v234.02251h-21z" data-paper-data="{&quot;index&quot;:null}" fill="#8c8c8c"/><path d="M229.75,252.40646h21v84.66667h-21z" data-paper-data="{&quot;index&quot;:null}" fill="#8c8c8c"/><path d="M154.30767,61.64456h39.09167v233.52042h-39.09167z" data-paper-data="{&quot;index&quot;:null}" fill="#8c8c8c"/><path d="M299.897,252.18217h14.30754v14.89624h-14.30754z" data-paper-data="{&quot;index&quot;:null}" fill="#8c8c8c"/><path d="M310.75,62.07313h21v273.75966h-21z" data-paper-data="{&quot;index&quot;:null}" fill="#8c8c8c"/><path d="M353.75,29.07313h21v264.5h-21z" data-paper-data="{&quot;index&quot;:null}" fill="#8c8c8c"/><path d="M363,250.49999v-36h55v36z" fill="#8c8c8c"/><path d="M403,183.49999v-28h42v28z" fill="#8c8c8c"/><path d="M362,126.49999v-42.68895h49v42.68895z" fill="#8c8c8c"/><path d="M64.46429,32.5017h54.57143v89.28572h-54.57143z" data-paper-data="{&quot;index&quot;:null}" fill="#8c8c8c"/><path d="M245.0869,30.64348h43.6631v101.14394h-43.6631z" data-paper-data="{&quot;index&quot;:null}" fill="#8c8c8c"/><path d="M229.75,35.19864h21v173.30306h-21z" data-paper-data="{&quot;index&quot;:null}" fill="#8c8c8c"/><path d="M245.0869,107.04184h19.78861v101.14394h-19.78861z" data-paper-data="{&quot;index&quot;:null}" fill="#8c8c8c"/><path d="M63.75,149.64456h24.90753v175.71046h-24.90752z" data-paper-data="{&quot;index&quot;:null}" fill="#8c8c8c"/><path d="M247.96394,252.18217h24.74457v14.89624h-24.74457z" data-paper-data="{&quot;index&quot;:null}" fill="#8c8c8c"/></g></g></svg>