<svg version="1.1" xmlns="http://www.w3.org/2000/svg" xmlns:xlink="http://www.w3.org/1999/xlink" width="164.78596" height="313.69777" viewBox="0,0,164.78596,313.69777"><g transform="translate(-156.80264,-22.16121)"><g data-paper-data="{&quot;isPaintingLayer&quot;:true}" fill-rule="nonzero" stroke-linecap="butt" stroke-linejoin="miter" stroke-miterlimit="10" stroke-dasharray="" stroke-dashoffset="0" style="mix-blend-mode: normal"><path d="M170.01241,335.58879c-2.1871,0 -3.95978,-1.78925 -3.95978,-3.99667v-278.76904c0,-2.20742 1.77288,-3.99667 3.95978,-3.99667h141.5662c2.1871,0 3.95998,1.78925 3.95998,3.99667v278.76904c0,2.20742 -1.77288,3.99667 -3.95998,3.99667z" fill="none" stroke="#000000" stroke-width="0.5"/><path d="M166.11837,333.60879c-2.24562,0 -4.06574,-1.77288 -4.06574,-3.95998v-276.20243c0,-2.1871 1.82032,-3.95978 4.06574,-3.95978h145.35428c2.24562,0 4.06594,1.77288 4.06594,3.95978v276.20262c0,2.1871 -1.82032,3.95998 -4.06594,3.95998z" fill-opacity="0.81569" fill="#00ceff" stroke="none" stroke-width="0"/><path d="M200.46527,48.83051v-24.4193h78.53787v24.4193z" fill="#909090" stroke="#000000" stroke-width="4.5"/><path d="M161.17523,223.00506v-63.11985h159.77213v63.11985z" fill="#ffffff" stroke="none" stroke-width="0"/><text transform="translate(216.96811,204.71133) rotate(1.70916) scale(1.03829,1.03829)" font-size="40" xml:space="preserve" fill="#000000" fill-rule="nonzero" stroke="none" stroke-width="1" stroke-linecap="butt" stroke-linejoin="miter" stroke-miterlimit="10" stroke-dasharray="" stroke-dashoffset="0" font-family="Archivo Black" font-weight="normal" text-anchor="start" style="mix-blend-mode: normal"><tspan x="0" dy="0">水</tspan></text><path d="M163.2985,333.60879c-2.34511,0 -4.24586,-1.77288 -4.24586,-3.95998v-276.20243c0,-2.1871 1.90097,-3.95978 4.24586,-3.95978h151.79402c2.34511,0 4.24608,1.77288 4.24608,3.95978v276.20262c0,2.1871 -1.90097,3.95998 -4.24608,3.95998z" fill="none" stroke="#000000" stroke-width="4.5"/></g></g></svg>