<svg version="1.1" xmlns="http://www.w3.org/2000/svg" xmlns:xlink="http://www.w3.org/1999/xlink" width="447" height="328.62584" viewBox="0,0,447,328.62584"><g transform="translate(-17.5,-14.68708)"><g data-paper-data="{&quot;isPaintingLayer&quot;:true}" fill="#8c8c8c" fill-rule="nonzero" stroke="none" stroke-width="0" stroke-linecap="butt" stroke-linejoin="miter" stroke-miterlimit="10" stroke-dasharray="" stroke-dashoffset="0" style="mix-blend-mode: normal"><path d="M38.2907,32.23669v294.38543h-20.7907v-294.38542z" data-paper-data="{&quot;index&quot;:null}"/><path d="M84.49226,14.68708v18.81916h-66.99226v-18.81916z" data-paper-data="{&quot;index&quot;:null}"/><path d="M161.97094,15.03257v18.81916h-86.19477v-18.81916z" data-paper-data="{&quot;index&quot;:null}"/><path d="M160.23838,34.29982v-18.81916h86.19476v18.81916z" data-paper-data="{&quot;index&quot;:null}"/><path d="M241.86629,322.47742v20.8355h-223.93315v-20.8355z" data-paper-data="{&quot;index&quot;:null}"/><path d="M464.5,17.4922v309.12992h-20.7907v-309.12992z" data-paper-data="{&quot;index&quot;:null}"/><path d="M450.875,15.63257v18.51916h-120.84593v-18.51916z" data-paper-data="{&quot;index&quot;:null}"/><path d="M245.56687,34.29982v-18.81916h86.19476v18.81916z" data-paper-data="{&quot;index&quot;:null}"/><path d="M464.06688,322.47742v20.8355h-223.93315v-20.8355z" data-paper-data="{&quot;index&quot;:null}"/><path d="M284,65.16669v24h-39v-24z" data-paper-data="{&quot;index&quot;:null}"/><path d="M294.33333,120.50002v24h-39v-24z" data-paper-data="{&quot;index&quot;:null}"/><path d="M234.93137,209.02944v24.35294h-46v-24.35294z" data-paper-data="{&quot;index&quot;:null}"/><path d="M423.02941,58.16669v24.35294h-43.29412v-24.35294z" data-paper-data="{&quot;index&quot;:null}"/><path d="M419.55882,156.81375v24.35294h-46v-24.35294z" data-paper-data="{&quot;index&quot;:null}"/><path d="M428.06863,109.57845v24.35294h-43.29412v-24.35294z" data-paper-data="{&quot;index&quot;:null}"/><path d="M293,187.16669v24h-39v-24z" data-paper-data="{&quot;index&quot;:null}"/><path d="M164,197.16669v21.70588h-41v-21.70588z" data-paper-data="{&quot;index&quot;:null}"/><path d="M425,208.16669v27h-48v-27z" data-paper-data="{&quot;index&quot;:null}"/><path d="M132,247.16669v30h-44v-30z" data-paper-data="{&quot;index&quot;:null}"/><path d="M191,250.16669v23h-38v-23z" data-paper-data="{&quot;index&quot;:null}"/><path d="M255,259.16669v23h-42v-23z" data-paper-data="{&quot;index&quot;:null}"/><path d="M320,247.16669v24h-39v-24z" data-paper-data="{&quot;index&quot;:null}"/><path d="M392,263.16669v27h-34v-27z" data-paper-data="{&quot;index&quot;:null}"/><path d="M448,245.16669v27h-48v-27z" data-paper-data="{&quot;index&quot;:null}"/><path d="M73,307.16669v30h-44v-30z" data-paper-data="{&quot;index&quot;:null}"/><path d="M132,310.16669v23h-38v-23z" data-paper-data="{&quot;index&quot;:null}"/><path d="M196,319.16669v23h-42v-23z" data-paper-data="{&quot;index&quot;:null}"/><path d="M389,318.16669v14h-48v-14z" data-paper-data="{&quot;index&quot;:null}"/><path d="M289.75,65.16667v232h-27v-232z" data-paper-data="{&quot;index&quot;:null}"/><path d="M17.75,122.83333v-48h246v48z"/></g></g></svg>