<svg version="1.1" xmlns="http://www.w3.org/2000/svg" xmlns:xlink="http://www.w3.org/1999/xlink" width="338.0252" height="88.94555" viewBox="0,0,338.0252,88.94555"><g transform="translate(-70.98742,-149.25537)"><g data-paper-data="{&quot;isPaintingLayer&quot;:true}" fill-rule="nonzero" stroke="none" stroke-linecap="butt" stroke-linejoin="miter" stroke-miterlimit="10" stroke-dasharray="" stroke-dashoffset="0" style="mix-blend-mode: normal"><path d="M405.23581,149.25537c2.08587,0 3.77681,0.79846 3.77681,1.78341v46.36869c0,0.98495 -1.69093,1.78341 -3.77681,1.78341h-330.47157c-2.08586,0 -3.77681,-0.79846 -3.77681,-1.78341v-46.36869c0,-0.98495 1.69093,-1.78341 3.77681,-1.78341z" data-paper-data="{&quot;index&quot;:null}" fill="#888888" stroke-width="0"/><path d="M399.90695,152.92205c2.01862,0 3.65499,0.67054 3.65499,1.4977v38.94012c0,0.82716 -1.63641,1.4977 -3.65499,1.4977h-319.81381c-2.01862,0 -3.65499,-0.67054 -3.65499,-1.4977v-38.94012c0,-0.82716 1.63641,-1.4977 3.65499,-1.4977z" data-paper-data="{&quot;index&quot;:null}" fill="#c8c8c8" stroke-width="0"/><text transform="translate(240.00002,184.43546) scale(0.8467,0.8467)" font-size="40" xml:space="preserve" fill="#efff00" fill-rule="nonzero" stroke="none" stroke-width="1" stroke-linecap="butt" stroke-linejoin="miter" stroke-miterlimit="10" stroke-dasharray="" stroke-dashoffset="0" font-family="&quot;Bahnschrift&quot;, Sans Serif" font-weight="normal" text-anchor="middle" style="mix-blend-mode: normal"><tspan x="0" dy="0">Close</tspan><tspan x="0" dy="48px"> </tspan></text></g></g></svg>