<svg version="1.1" xmlns="http://www.w3.org/2000/svg" xmlns:xlink="http://www.w3.org/1999/xlink" width="605" height="368.62584" viewBox="0,0,605,368.62584"><g transform="translate(140.5,25.31292)"><g data-paper-data="{&quot;isPaintingLayer&quot;:true}" fill-rule="nonzero" stroke="none" stroke-width="0" stroke-linecap="butt" stroke-linejoin="miter" stroke-miterlimit="10" stroke-dasharray="" stroke-dashoffset="0" style="mix-blend-mode: normal"><path d="M19,-25.31292v4h-3v-4z" data-paper-data="{&quot;index&quot;:null}" fill="#272727"/><path d="M38.2907,32.23669v294.38543h-20.7907v-294.38542z" data-paper-data="{&quot;index&quot;:null}" fill="#8c8c8c"/><path d="M84.49226,14.68708v18.81916h-66.99226v-18.81916z" data-paper-data="{&quot;index&quot;:null}" fill="#8c8c8c"/><path d="M161.97094,15.03257v18.81916h-86.19477v-18.81916z" data-paper-data="{&quot;index&quot;:null}" fill="#8c8c8c"/><path d="M160.23838,34.29982v-18.81916h86.19476v18.81916z" data-paper-data="{&quot;index&quot;:null}" fill="#8c8c8c"/><path d="M241.86629,322.47742v20.8355h-223.93315v-20.8355z" data-paper-data="{&quot;index&quot;:null}" fill="#8c8c8c"/><path d="M464.5,17.4922v309.12992h-20.7907v-309.12992z" data-paper-data="{&quot;index&quot;:null}" fill="#8c8c8c"/><path d="M450.875,15.63257v18.51916h-120.84593v-18.51916z" data-paper-data="{&quot;index&quot;:null}" fill="#8c8c8c"/><path d="M245.56687,34.29982v-18.81916h86.19476v18.81916z" data-paper-data="{&quot;index&quot;:null}" fill="#8c8c8c"/><path d="M464.06688,322.47742v20.8355h-223.93315v-20.8355z" data-paper-data="{&quot;index&quot;:null}" fill="#8c8c8c"/><path d="M-140.5,111.64625v-1h5v1z" data-paper-data="{&quot;index&quot;:null}" fill="#000000"/><path d="M63.75,21.92687h21v278h-21z" data-paper-data="{&quot;index&quot;:null}" fill="#8c8c8c"/><path d="M229.75,20.92687h21v278h-21z" data-paper-data="{&quot;index&quot;:null}" fill="#8c8c8c"/><path d="M106.75,56.95345h58.95505v269.11477h-58.95505z" data-paper-data="{&quot;index&quot;:null}" fill="#8c8c8c"/><path d="M158.48327,284.124h45.63036v45.80287h-45.63036z" data-paper-data="{&quot;index&quot;:null}" fill="#8c8c8c"/><path d="M270.0869,233.2871h18.6631v91.81645h-18.6631z" data-paper-data="{&quot;index&quot;:null}" fill="#8c8c8c"/><path d="M310.75,24.92687h21v273h-21z" data-paper-data="{&quot;index&quot;:null}" fill="#8c8c8c"/><path d="M353.75,58.92687h21v270h-21z" data-paper-data="{&quot;index&quot;:null}" fill="#8c8c8c"/><path d="M418,107.50001v36h-55v-36z" data-paper-data="{&quot;index&quot;:null}" fill="#8c8c8c"/><path d="M445,174.50001v28h-42v-28z" data-paper-data="{&quot;index&quot;:null}" fill="#8c8c8c"/><path d="M411,231.50001v27h-49v-27z" data-paper-data="{&quot;index&quot;:null}" fill="#8c8c8c"/><path d="M195.42667,33.41682h41.90184v114.61592h-41.90184z" data-paper-data="{&quot;index&quot;:null}" fill="#8c8c8c"/><path d="M291.22849,102.24371h23.29616v110.28949h-23.29616z" data-paper-data="{&quot;index&quot;:null}" fill="#8c8c8c"/><path d="M246.74831,102.24372h23.29616v110.28949h-23.29616z" data-paper-data="{&quot;index&quot;:null}" fill="#8c8c8c"/></g></g></svg>