<svg version="1.1" xmlns="http://www.w3.org/2000/svg" xmlns:xlink="http://www.w3.org/1999/xlink" width="152.7193" height="49.93551" viewBox="0,0,152.7193,49.93551"><g transform="translate(-163.64035,-155.03226)"><g data-paper-data="{&quot;isPaintingLayer&quot;:true}" fill-rule="nonzero" stroke="none" stroke-linecap="butt" stroke-linejoin="miter" stroke-miterlimit="10" stroke-dasharray="" stroke-dashoffset="0" style="mix-blend-mode: normal"><path d="M314.65329,155.03226c0.94239,0 1.70636,0.79846 1.70636,1.78341v46.36869c0,0.98495 -0.76396,1.78341 -1.70636,1.78341h-149.30658c-0.94239,0 -1.70636,-0.79846 -1.70636,-1.78341v-46.36869c0,-0.98495 0.76396,-1.78341 1.70636,-1.78341z" data-paper-data="{&quot;index&quot;:null}" fill="#efff00" stroke-width="0"/><path d="M312.24572,158.69892c0.91201,0 1.65132,0.67054 1.65132,1.4977v38.94012c0,0.82716 -0.73933,1.4977 -1.65132,1.4977h-144.49142c-0.91201,0 -1.65132,-0.67054 -1.65132,-1.4977v-38.94012c0,-0.82716 0.73933,-1.4977 1.65132,-1.4977z" data-paper-data="{&quot;index&quot;:null}" fill="#adadad" stroke-width="0"/><text transform="translate(176.86793,190.1604) scale(0.8467,0.8467)" font-size="40" xml:space="preserve" fill="#f4ff00" fill-rule="nonzero" stroke="none" stroke-width="1" stroke-linecap="butt" stroke-linejoin="miter" stroke-miterlimit="10" stroke-dasharray="" stroke-dashoffset="0" font-family="&quot;Bahnschrift&quot;, Sans Serif" font-weight="normal" text-anchor="start" style="mix-blend-mode: normal"><tspan x="0" dy="0">Русский</tspan></text></g></g></svg>