<svg version="1.1" xmlns="http://www.w3.org/2000/svg" xmlns:xlink="http://www.w3.org/1999/xlink" width="447" height="328.62584" viewBox="0,0,447,328.62584"><g transform="translate(-17.5,-14.68708)"><g data-paper-data="{&quot;isPaintingLayer&quot;:true}" fill-rule="nonzero" stroke="none" stroke-width="0" stroke-linecap="butt" stroke-linejoin="miter" stroke-miterlimit="10" stroke-dasharray="" stroke-dashoffset="0" style="mix-blend-mode: normal"><path d="M443.7093,325.76331v-294.38543h20.7907v294.38542z" data-paper-data="{&quot;index&quot;:null}" fill="#8c8c8c"/><path d="M397.50774,343.31292v-18.81916h66.99226v18.81916z" data-paper-data="{&quot;index&quot;:null}" fill="#8c8c8c"/><path d="M320.02906,342.96743v-18.81916h86.19477v18.81916z" data-paper-data="{&quot;index&quot;:null}" fill="#8c8c8c"/><path d="M321.76162,323.70018v18.81916h-86.19476v-18.81916z" data-paper-data="{&quot;index&quot;:null}" fill="#8c8c8c"/><path d="M240.13371,35.52258v-20.8355h223.93315v20.8355z" data-paper-data="{&quot;index&quot;:null}" fill="#8c8c8c"/><path d="M17.5,340.5078v-309.12992h20.7907v309.12992z" data-paper-data="{&quot;index&quot;:null}" fill="#8c8c8c"/><path d="M31.125,342.36743v-18.51916h120.84593v18.51916z" data-paper-data="{&quot;index&quot;:null}" fill="#8c8c8c"/><path d="M236.43313,323.70018v18.81916h-86.19476v-18.81916z" data-paper-data="{&quot;index&quot;:null}" fill="#8c8c8c"/><path d="M17.93312,35.52258v-20.8355h223.93315v20.8355z" data-paper-data="{&quot;index&quot;:null}" fill="#8c8c8c"/><path d="M412.59379,62.34462v21h-381.68213v-21z" data-paper-data="{&quot;index&quot;:null}" fill="#8c8c8c"/><path d="M203.02899,110.07313v18h-165.77899v-18z" data-paper-data="{&quot;index&quot;:null}" fill="#8c8c8c"/><path d="M464.25,155.01122v11.06191h-395v-11.06191z" data-paper-data="{&quot;index&quot;:null}" fill="#8c8c8c"/><path d="M332.25,195.07313v27h-298v-27z" data-paper-data="{&quot;index&quot;:null}" fill="#8c8c8c"/><path d="M449.25,207.07313v123h-63v-123z" data-paper-data="{&quot;index&quot;:null}" fill="#8c8c8c"/><path d="M395.25,259.79482v77.27831h-325.57029v-77.27831z" data-paper-data="{&quot;index&quot;:null}" fill="#8c8c8c"/><path d="M449.27728,110.07313v52.10641h-214.89222v-52.10641z" data-paper-data="{&quot;index&quot;:null}" fill="#8c8c8c"/><path d="M203.02899,82.10587v45.96726h-165.77899v-45.96726z" data-paper-data="{&quot;index&quot;:null}" fill="#8c8c8c"/></g></g></svg>