<svg version="1.1" xmlns="http://www.w3.org/2000/svg" xmlns:xlink="http://www.w3.org/1999/xlink" width="177.41475" height="44.74933" viewBox="0,0,177.41475,44.74933"><g transform="translate(-261.75898,-165.13455)"><g data-paper-data="{&quot;isPaintingLayer&quot;:true}" fill-rule="nonzero" stroke="none" stroke-linecap="butt" stroke-linejoin="miter" stroke-miterlimit="10" stroke-dasharray="" stroke-dashoffset="0" style="mix-blend-mode: normal"><path d="M437.19144,165.13455c1.09479,0 1.98229,0.71185 1.98229,1.58997v41.33922c0,0.87812 -0.88751,1.58997 -1.98229,1.58997h-173.45017c-1.09479,0 -1.98229,-0.71185 -1.98229,-1.58997v-41.33922c0,-0.87812 0.88749,-1.58997 1.98229,-1.58997z" data-paper-data="{&quot;index&quot;:null}" fill="#888888" stroke-width="0"/><path d="M434.39456,168.40351c1.05947,0 1.91835,0.59781 1.91835,1.33525v34.7164c0,0.73744 -0.85888,1.33525 -1.91835,1.33525h-167.85639c-1.05947,0 -1.91835,-0.59781 -1.91835,-1.33525v-34.7164c0,-0.73744 0.85888,-1.33525 1.91835,-1.33525z" data-paper-data="{&quot;index&quot;:null}" fill="#b0b0b0" stroke-width="0"/><text transform="translate(350.37144,198.18355) scale(0.75486,0.75486)" font-size="40" xml:space="preserve" fill="#efff00" fill-rule="nonzero" stroke="none" stroke-width="1" stroke-linecap="butt" stroke-linejoin="miter" stroke-miterlimit="10" stroke-dasharray="" stroke-dashoffset="0" font-family="&quot;Bahnschrift&quot;, Sans Serif" font-weight="normal" text-anchor="middle" style="mix-blend-mode: normal"><tspan x="0" dy="0">Следующий</tspan></text></g></g></svg>