<svg version="1.1" xmlns="http://www.w3.org/2000/svg" xmlns:xlink="http://www.w3.org/1999/xlink" width="605" height="368.62584" viewBox="0,0,605,368.62584"><g transform="translate(140.5,25.31292)"><g data-paper-data="{&quot;isPaintingLayer&quot;:true}" fill-rule="nonzero" stroke="none" stroke-width="0" stroke-linecap="butt" stroke-linejoin="miter" stroke-miterlimit="10" stroke-dasharray="" stroke-dashoffset="0" style="mix-blend-mode: normal"><path d="M19,-25.31292v4h-3v-4z" data-paper-data="{&quot;index&quot;:null}" fill="#272727"/><path d="M38.2907,32.23669v294.38543h-20.7907v-294.38542z" data-paper-data="{&quot;index&quot;:null}" fill="#8c8c8c"/><path d="M84.49226,14.68708v18.81916h-66.99226v-18.81916z" data-paper-data="{&quot;index&quot;:null}" fill="#8c8c8c"/><path d="M63.59075,42.44789h384.23066v45.23698h-384.23066z" data-paper-data="{&quot;index&quot;:null}" fill="#8c8c8c"/><path d="M161.97094,15.03257v18.81916h-86.19477v-18.81916z" data-paper-data="{&quot;index&quot;:null}" fill="#8c8c8c"/><path d="M160.23838,34.29982v-18.81916h86.19476v18.81916z" data-paper-data="{&quot;index&quot;:null}" fill="#8c8c8c"/><path d="M241.86629,322.47742v20.8355h-223.93315v-20.8355z" data-paper-data="{&quot;index&quot;:null}" fill="#8c8c8c"/><path d="M464.5,16.05673v310.56539h-20.7907v-310.56539z" data-paper-data="{&quot;index&quot;:null}" fill="#8c8c8c"/><path d="M450.875,15.63257v18.51916h-120.84593v-18.51916z" data-paper-data="{&quot;index&quot;:null}" fill="#8c8c8c"/><path d="M245.56687,34.29982v-18.81916h86.19476v18.81916z" data-paper-data="{&quot;index&quot;:null}" fill="#8c8c8c"/><path d="M464.06688,322.47742v20.8355h-223.93315v-20.8355z" data-paper-data="{&quot;index&quot;:null}" fill="#8c8c8c"/><path d="M-140.5,111.64625v-1h5v1z" data-paper-data="{&quot;index&quot;:null}" fill="#000000"/><path d="M25.75,292.92687v-21h381v21z" fill="#8c8c8c"/><path d="M69.41215,247.92687v-18h375.33785v18z" fill="#8c8c8c"/><path d="M69.44625,231.212v-39.28513h161.34444v39.28513z" fill="#8c8c8c"/><path d="M30.24304,162.92687v-27h376.24223v27z" fill="#8c8c8c"/><path d="M50.15791,44.92687v-19h401.59209v19z" fill="#8c8c8c"/><path d="M32.75,150.92687v-123h63v123z" fill="#8c8c8c"/><path d="M383.7659,162.92687v-43.19204h22.71936v43.19204z" fill="#8c8c8c"/><path d="M383.76591,83.5236v-43.19204h22.71936v43.19204z" fill="#8c8c8c"/><path d="M264.53493,231.212v-39.28513h189.99382v39.28513z" fill="#8c8c8c"/></g></g></svg>