<svg version="1.1" xmlns="http://www.w3.org/2000/svg" xmlns:xlink="http://www.w3.org/1999/xlink" width="362.18329" height="50.1937" viewBox="0,0,362.18329,50.1937"><g transform="translate(-58.90835,-147.36557)"><g data-paper-data="{&quot;isPaintingLayer&quot;:true}" fill-rule="nonzero" stroke="none" stroke-linecap="butt" stroke-linejoin="miter" stroke-miterlimit="10" stroke-dasharray="" stroke-dashoffset="0" style="mix-blend-mode: normal"><path d="M417.04489,147.36557c2.23496,0 4.04674,0.79846 4.04674,1.78341v46.36869c0,0.98495 -1.81178,1.78341 -4.04674,1.78341h-354.0898c-2.23496,0 -4.04674,-0.79846 -4.04674,-1.78341v-46.36869c0,-0.98495 1.81178,-1.78341 4.04674,-1.78341z" data-paper-data="{&quot;index&quot;:null}" fill="#888888" stroke-width="0"/><path d="M411.33519,151.03224c2.16287,0 3.91623,0.67054 3.91623,1.4977v38.94012c0,0.82716 -1.75336,1.4977 -3.91623,1.4977h-342.67038c-2.16287,0 -3.91623,-0.67054 -3.91623,-1.4977v-38.94012c0,-0.82716 1.75336,-1.4977 3.91623,-1.4977z" data-paper-data="{&quot;index&quot;:null}" fill="#a3a3a3" stroke-width="0"/><text transform="translate(240,184.43542) scale(0.8467,0.8467)" font-size="40" xml:space="preserve" fill="#d6d6d6" fill-rule="nonzero" stroke="none" stroke-width="1" stroke-linecap="butt" stroke-linejoin="miter" stroke-miterlimit="10" stroke-dasharray="" stroke-dashoffset="0" font-family="&quot;Bahnschrift&quot;, Sans Serif" font-weight="normal" text-anchor="middle" style="mix-blend-mode: normal"><tspan x="0" dy="0">Go back to title screen</tspan></text></g></g></svg>