<svg version="1.1" xmlns="http://www.w3.org/2000/svg" xmlns:xlink="http://www.w3.org/1999/xlink" width="447" height="328.62584" viewBox="0,0,447,328.62584"><g transform="translate(-16,-17.68708)"><g data-paper-data="{&quot;isPaintingLayer&quot;:true}" fill="#8c8c8c" fill-rule="nonzero" stroke="none" stroke-width="0" stroke-linecap="butt" stroke-linejoin="miter" stroke-miterlimit="10" stroke-dasharray="" stroke-dashoffset="0" style="mix-blend-mode: normal"><path d="M36.7907,35.23669v294.38543h-20.7907v-294.38542z" data-paper-data="{&quot;index&quot;:null}"/><path d="M46.25001,201.92068v21.50762h-12.92442v-21.50762z" data-paper-data="{&quot;index&quot;:null}"/><path d="M95.83722,36.2367v87.37467h-12.99419v-87.37467z" data-paper-data="{&quot;index&quot;:null}"/><path d="M82.99226,17.68708v18.81916h-66.99226v-18.81916z" data-paper-data="{&quot;index&quot;:null}"/><path d="M160.47094,18.03257v18.81916h-86.19477v-18.81916z" data-paper-data="{&quot;index&quot;:null}"/><path d="M151.13953,247.17626v84.03112h-10.82849v-84.03111z" data-paper-data="{&quot;index&quot;:null}"/><path d="M140.31105,271.09229v16.01869h-71.46802v-16.01869z" data-paper-data="{&quot;index&quot;:null}"/><path d="M267.46221,209.2264v-103.50538h12.99419v103.50537z" data-paper-data="{&quot;index&quot;:null}"/><path d="M158.73838,37.29982v-18.81916h86.19476v18.81916z" data-paper-data="{&quot;index&quot;:null}"/><path d="M332,161.5064v30.91719h-51.5436v-30.91719z" data-paper-data="{&quot;index&quot;:null}"/><path d="M201.38372,259.9464v30.9172h-51.5436v-30.91719z" data-paper-data="{&quot;index&quot;:null}"/><path d="M291.11547,326.48558v-82.66987h12.99419v82.66987z" data-paper-data="{&quot;index&quot;:null}"/><path d="M240.36629,325.47742v20.8355h-223.93315v-20.8355z" data-paper-data="{&quot;index&quot;:null}"/><path d="M463,20.4922v309.12992h-20.7907v-309.12992z" data-paper-data="{&quot;index&quot;:null}"/><path d="M445.67442,201.92068v21.50762h-17.92442v-21.50762z" data-paper-data="{&quot;index&quot;:null}"/><path d="M410.15698,106.48066v16.13071h-12.99419v-16.13071z" data-paper-data="{&quot;index&quot;:null}"/><path d="M409.72385,161.59391v87.37467h-12.99419v-87.37467z" data-paper-data="{&quot;index&quot;:null}"/><path d="M379.56994,193.83461l1.89233,8.35741l-17.42494,5.59519l-1.89233,-8.35741z" data-paper-data="{&quot;index&quot;:null}"/><path d="M353.41569,161.81794v11.42592h-25.98837v-11.42592z" data-paper-data="{&quot;index&quot;:null}"/><path d="M342.58722,169.88329v78.63721h-14.72675v-78.63721z" data-paper-data="{&quot;index&quot;:null}"/><path d="M399.76163,232.38978v16.13071h-58.47384v-16.13071z" data-paper-data="{&quot;index&quot;:null}"/><path d="M449.375,18.63257v18.51916h-120.84593v-18.51916z" data-paper-data="{&quot;index&quot;:null}"/><path d="M338.92472,247.17626v78.13525h-10.82849v-78.13524z" data-paper-data="{&quot;index&quot;:null}"/><path d="M410.15698,271.09229v16.01869h-43.6484v-16.01869z" data-paper-data="{&quot;index&quot;:null}"/><path d="M256.20058,209.2264v-103.50538h12.99419v103.50537z" data-paper-data="{&quot;index&quot;:null}"/><path d="M244.06687,37.29982v-18.81916h86.19476v18.81916z" data-paper-data="{&quot;index&quot;:null}"/><path d="M227.3721,237.97632h25.96212v61.38109h-25.96213z" data-paper-data="{&quot;index&quot;:null}"/><path d="M279.85384,326.48558v-82.66987h12.99419v82.66987z" data-paper-data="{&quot;index&quot;:null}"/><path d="M462.56688,325.47742v20.8355h-223.93315v-20.8355z" data-paper-data="{&quot;index&quot;:null}"/><path d="M199.82849,102.5c-13.25483,0 -24,-10.33189 -24,-23.07692c0,-12.74503 10.74517,-23.07692 24,-23.07692c13.25483,0 24,10.33189 24,23.07692c0,12.74503 -10.74517,23.07692 -24,23.07692z" data-paper-data="{&quot;index&quot;:null}"/></g></g></svg>