<svg version="1.1" xmlns="http://www.w3.org/2000/svg" xmlns:xlink="http://www.w3.org/1999/xlink" width="82.52709" height="44.74933" viewBox="0,0,82.52709,44.74933"><g transform="translate(-356.64664,-165.13455)"><g data-paper-data="{&quot;isPaintingLayer&quot;:true}" fill-rule="nonzero" stroke="none" stroke-linecap="butt" stroke-linejoin="miter" stroke-miterlimit="10" stroke-dasharray="" stroke-dashoffset="0" style="mix-blend-mode: normal"><path d="M438.25164,165.13455c0.50926,0 0.92209,0.71185 0.92209,1.58997v41.33922c0,0.87812 -0.41284,1.58997 -0.92209,1.58997h-80.68291c-0.50926,0 -0.92209,-0.71185 -0.92209,-1.58997v-41.33922c0,-0.87812 0.41283,-1.58997 0.92209,-1.58997z" data-paper-data="{&quot;index&quot;:null}" fill="#888888" stroke-width="0"/><path d="M436.95063,168.40351c0.49283,0 0.89235,0.59781 0.89235,1.33525v34.7164c0,0.73744 -0.39952,1.33525 -0.89235,1.33525h-78.08088c-0.49283,0 -0.89235,-0.59781 -0.89235,-1.33525v-34.7164c0,-0.73744 0.39952,-1.33525 0.89235,-1.33525z" data-paper-data="{&quot;index&quot;:null}" fill="#b0b0b0" stroke-width="0"/><text transform="translate(397.09642,198.18355) scale(0.75486,0.75486)" font-size="40" xml:space="preserve" fill="#efff00" fill-rule="nonzero" stroke="none" stroke-width="1" stroke-linecap="butt" stroke-linejoin="miter" stroke-miterlimit="10" stroke-dasharray="" stroke-dashoffset="0" font-family="&quot;Bahnschrift&quot;, Sans Serif" font-weight="normal" text-anchor="middle" style="mix-blend-mode: normal"><tspan x="0" dy="0">Next</tspan></text></g></g></svg>