<svg version="1.1" xmlns="http://www.w3.org/2000/svg" xmlns:xlink="http://www.w3.org/1999/xlink" width="189.96061" height="49.93551" viewBox="0,0,189.96061,49.93551"><g transform="translate(-145.01972,-149.25537)"><g data-paper-data="{&quot;isPaintingLayer&quot;:true}" fill-rule="nonzero" stroke="none" stroke-linecap="butt" stroke-linejoin="miter" stroke-miterlimit="10" stroke-dasharray="" stroke-dashoffset="0" style="mix-blend-mode: normal"><path d="M332.85787,149.25537c1.1722,0 2.12246,0.79846 2.12246,1.78341v46.36869c0,0.98495 -0.95025,1.78341 -2.12246,1.78341h-185.71569c-1.1722,0 -2.12246,-0.79846 -2.12246,-1.78341v-46.36869c0,-0.98495 0.95025,-1.78341 2.12246,-1.78341z" data-paper-data="{&quot;index&quot;:null}" fill="#888888" stroke-width="0"/><path d="M329.8632,152.92207c1.1344,0 2.054,0.67054 2.054,1.4977v38.94012c0,0.82716 -0.91962,1.4977 -2.054,1.4977h-179.72633c-1.1344,0 -2.054,-0.67054 -2.054,-1.4977v-38.94012c0,-0.82716 0.91962,-1.4977 2.054,-1.4977z" data-paper-data="{&quot;index&quot;:null}" fill="#a2a2a2" stroke-width="0"/><text transform="translate(154.44858,182.71495) scale(0.68362,0.68362)" font-size="40" xml:space="preserve" fill="#d6d6d6" fill-rule="nonzero" stroke="none" stroke-width="1" stroke-linecap="butt" stroke-linejoin="miter" stroke-miterlimit="10" stroke-dasharray="" stroke-dashoffset="0" font-family="&quot;Bahnschrift&quot;, Sans Serif" font-weight="normal" text-anchor="start" style="mix-blend-mode: normal"><tspan x="0" dy="0">Previous page</tspan></text><text transform="translate(230.6697,94.59517) scale(0.5,0.5)" font-size="40" xml:space="preserve" fill="#d6d6d6" fill-rule="nonzero" stroke="none" stroke-width="1" stroke-linecap="butt" stroke-linejoin="miter" stroke-miterlimit="10" stroke-dasharray="" stroke-dashoffset="0" font-family="&quot;Bahnschrift&quot;, Sans Serif" font-weight="normal" text-anchor="start" style="mix-blend-mode: normal"><tspan x="0" dy="0"> </tspan></text></g></g></svg>