<svg version="1.1" xmlns="http://www.w3.org/2000/svg" xmlns:xlink="http://www.w3.org/1999/xlink" width="605" height="328.62584" viewBox="0,0,605,328.62584"><g transform="translate(140.5,-14.68708)"><g data-paper-data="{&quot;isPaintingLayer&quot;:true}" fill-rule="nonzero" stroke="none" stroke-width="0" stroke-linecap="butt" stroke-linejoin="miter" stroke-miterlimit="10" stroke-dasharray="" stroke-dashoffset="0" style="mix-blend-mode: normal"><path d="M-140.5,111.64625v-1h5v1z" data-paper-data="{&quot;index&quot;:null}" fill="#000000"/><path d="M443.7093,325.76331v-294.38543h20.7907v294.38542z" data-paper-data="{&quot;index&quot;:null}" fill="#8c8c8c"/><path d="M397.50774,343.31292v-18.81916h66.99226v18.81916z" data-paper-data="{&quot;index&quot;:null}" fill="#8c8c8c"/><path d="M320.02906,342.96743v-18.81916h86.19477v18.81916z" data-paper-data="{&quot;index&quot;:null}" fill="#8c8c8c"/><path d="M321.76162,323.70018v18.81916h-86.19476v-18.81916z" data-paper-data="{&quot;index&quot;:null}" fill="#8c8c8c"/><path d="M240.13371,35.52258v-20.8355h223.93315v20.8355z" data-paper-data="{&quot;index&quot;:null}" fill="#8c8c8c"/><path d="M17.5,340.5078v-309.12992h20.7907v309.12992z" data-paper-data="{&quot;index&quot;:null}" fill="#8c8c8c"/><path d="M31.125,342.36743v-18.51916h120.84593v18.51916z" data-paper-data="{&quot;index&quot;:null}" fill="#8c8c8c"/><path d="M236.43313,323.70018v18.81916h-86.19476v-18.81916z" data-paper-data="{&quot;index&quot;:null}" fill="#8c8c8c"/><path d="M17.93312,35.52258v-20.8355h223.93315v20.8355z" data-paper-data="{&quot;index&quot;:null}" fill="#8c8c8c"/><path d="M341,67.70698h18v261.56279h-18z" data-paper-data="{&quot;index&quot;:null}" fill="#8c8c8c"/><path d="M285,58.5092h26v274.78284h-26z" data-paper-data="{&quot;index&quot;:null}" fill="#8c8c8c"/><path d="M130.00001,67.33489h20v265.56279h-20z" data-paper-data="{&quot;index&quot;:null}" fill="#8c8c8c"/><path d="M65.125,292.91896v-264.53283h34v264.53283z" fill="#8c8c8c"/><path d="M389.125,291.06247v-261.46246h25.04315v261.46246z" fill="#8c8c8c"/><path d="M175,198.24769h81.34709v129.87722h-81.34709z" data-paper-data="{&quot;index&quot;:null}" fill="#8c8c8c"/><path d="M175,30.33024h81.34709v132.69148h-81.34709z" data-paper-data="{&quot;index&quot;:null}" fill="#8c8c8c"/><path d="M389.125,231.02495v-201.42494h56v201.42494z" fill="#8c8c8c"/></g></g></svg>