<svg version="1.1" xmlns="http://www.w3.org/2000/svg" xmlns:xlink="http://www.w3.org/1999/xlink" width="605" height="328.62584" viewBox="0,0,605,328.62584"><g transform="translate(140.5,-14.68708)"><g data-paper-data="{&quot;isPaintingLayer&quot;:true}" fill-rule="nonzero" stroke="none" stroke-width="0" stroke-linecap="butt" stroke-linejoin="miter" stroke-miterlimit="10" stroke-dasharray="" stroke-dashoffset="0" style="mix-blend-mode: normal"><path d="M-140.5,111.64625v-1h5v1z" data-paper-data="{&quot;index&quot;:null}" fill="#000000"/><path d="M464.5,32.2367v294.38542h-20.7907v-294.38543z" data-paper-data="{&quot;index&quot;:null}" fill="#8c8c8c"/><path d="M464.5,14.68708v18.81916h-66.99226v-18.81916z" data-paper-data="{&quot;index&quot;:null}" fill="#8c8c8c"/><path d="M406.22383,15.03257v18.81916h-86.19477v-18.81916z" data-paper-data="{&quot;index&quot;:null}" fill="#8c8c8c"/><path d="M235.56686,34.29982v-18.81916h86.19476v18.81916z" data-paper-data="{&quot;index&quot;:null}" fill="#8c8c8c"/><path d="M464.06686,322.47742v20.8355h-223.93315v-20.8355z" data-paper-data="{&quot;index&quot;:null}" fill="#8c8c8c"/><path d="M38.2907,17.4922v309.12992h-20.7907v-309.12992z" data-paper-data="{&quot;index&quot;:null}" fill="#8c8c8c"/><path d="M151.97093,15.63257v18.51916h-120.84593v-18.51916z" data-paper-data="{&quot;index&quot;:null}" fill="#8c8c8c"/><path d="M150.23837,34.29982v-18.81916h86.19476v18.81916z" data-paper-data="{&quot;index&quot;:null}" fill="#8c8c8c"/><path d="M241.86627,322.47742v20.8355h-223.93315v-20.8355z" data-paper-data="{&quot;index&quot;:null}" fill="#8c8c8c"/><path d="M341,28.73023h18v261.56279h-18z" data-paper-data="{&quot;index&quot;:null}" fill="#8c8c8c"/><path d="M285,58.47906h58.83302v231.50665h-58.83302z" data-paper-data="{&quot;index&quot;:null}" fill="#8c8c8c"/><path d="M230.99999,236.08368h26v91.07874h-26z" data-paper-data="{&quot;index&quot;:null}" fill="#8c8c8c"/><path d="M175,66.46046h26v261.2093h-26z" data-paper-data="{&quot;index&quot;:null}" fill="#8c8c8c"/><path d="M445.125,62.23301v266.16698h-56v-266.16698z" data-paper-data="{&quot;index&quot;:null}" fill="#8c8c8c"/><path d="M147.90549,187.03226v100.36773h-82.78049v-100.36773z" data-paper-data="{&quot;index&quot;:null}" fill="#8c8c8c"/><path d="M147.90549,31.30993v125.69606h-82.78049v-125.69606z" data-paper-data="{&quot;index&quot;:null}" fill="#8c8c8c"/><path d="M145.23474,328.20189v-140.87164h36.83492v140.87164z" fill="#8c8c8c"/><path d="M230.99999,22.2h26v183.94928h-26z" data-paper-data="{&quot;index&quot;:null}" fill="#8c8c8c"/></g></g></svg>