<svg version="1.1" xmlns="http://www.w3.org/2000/svg" xmlns:xlink="http://www.w3.org/1999/xlink" width="84.32564" height="49.93551" viewBox="0,0,84.32564,49.93551"><g transform="translate(-207.77563,-149.25537)"><g data-paper-data="{&quot;isPaintingLayer&quot;:true}" fill-rule="nonzero" stroke="none" stroke-linecap="butt" stroke-linejoin="miter" stroke-miterlimit="10" stroke-dasharray="" stroke-dashoffset="0" style="mix-blend-mode: normal"><g stroke-width="0"><path d="M291.1643,149.25537c0.51747,0 0.93697,0.79846 0.93697,1.78341v46.36869c0,0.98495 -0.41949,1.78341 -0.93697,1.78341h-81.98445c-0.51747,0 -0.93697,-0.79846 -0.93697,-1.78341v-46.36869c0,-0.98495 0.41949,-1.78341 0.93697,-1.78341z" data-paper-data="{&quot;index&quot;:null}" fill="#686868"/><path d="M289.8423,152.92207c0.50078,0 0.90675,0.67054 0.90675,1.4977v38.94012c0,0.82716 -0.40596,1.4977 -0.90675,1.4977h-79.34044c-0.50078,0 -0.90675,-0.67054 -0.90675,-1.4977v-38.94012c0,-0.82716 0.40597,-1.4977 0.90675,-1.4977z" data-paper-data="{&quot;index&quot;:null}" fill="#8f8f8f"/></g><text transform="translate(248.72951,169.77371) scale(0.38477,0.38477)" font-size="40" xml:space="preserve" fill="#d6d6d6" fill-rule="nonzero" stroke="none" stroke-width="1" stroke-linecap="butt" stroke-linejoin="miter" stroke-miterlimit="10" stroke-dasharray="" stroke-dashoffset="0" font-family="&quot;Bahnschrift&quot;, Sans Serif" font-weight="normal" text-anchor="middle" style="mix-blend-mode: normal"><tspan x="0" dy="0">Введите</tspan><tspan x="0" dy="48px"> значение...</tspan></text></g></g></svg>