<svg version="1.1" xmlns="http://www.w3.org/2000/svg" xmlns:xlink="http://www.w3.org/1999/xlink" width="447" height="328.62584" viewBox="0,0,447,328.62584"><g transform="translate(-16,-13.20749)"><g data-paper-data="{&quot;isPaintingLayer&quot;:true}" fill="#8c8c8c" fill-rule="nonzero" stroke-linecap="butt" stroke-linejoin="miter" stroke-miterlimit="10" stroke-dasharray="" stroke-dashoffset="0" style="mix-blend-mode: normal"><path d="M16,324.28371v-294.38542h20.7907v294.38543z" data-paper-data="{&quot;index&quot;:null}" stroke="none" stroke-width="0"/><path d="M33.32559,157.59973v-21.50762h12.92442v21.50762z" data-paper-data="{&quot;index&quot;:null}" stroke="none" stroke-width="0"/><path d="M82.84303,323.28371v-87.37467h12.99419v87.37467z" data-paper-data="{&quot;index&quot;:null}" stroke="none" stroke-width="0"/><path d="M69.27617,196.24196v-85.69013h12.99419v85.69013z" data-paper-data="{&quot;index&quot;:null}" stroke="none" stroke-width="0"/><path d="M16,341.83333v-18.81916h66.99226v18.81916z" data-paper-data="{&quot;index&quot;:null}" stroke="none" stroke-width="0"/><path d="M82.03958,196.1842v-10.50284h23.82268v10.50284z" data-paper-data="{&quot;index&quot;:null}" stroke="none" stroke-width="0"/><path d="M125.5843,197.70247v-11.42592h25.98837v11.42592z" data-paper-data="{&quot;index&quot;:null}" stroke="none" stroke-width="0"/><path d="M136.41279,189.63712v-78.63721h14.72675v78.63721z" data-paper-data="{&quot;index&quot;:null}" stroke="none" stroke-width="0"/><path d="M79.23837,127.13063v-16.13071h58.47384v16.13071z" data-paper-data="{&quot;index&quot;:null}" stroke="none" stroke-width="0"/><path d="M74.27617,341.48784v-18.81916h86.19477v18.81916z" data-paper-data="{&quot;index&quot;:null}" stroke="none" stroke-width="0"/><path d="M140.31104,112.34414v-84.03111h10.82849v84.03112z" data-paper-data="{&quot;index&quot;:null}" stroke="none" stroke-width="0"/><path d="M68.84303,88.42812v-16.01869h71.46802v16.01869z" data-paper-data="{&quot;index&quot;:null}" stroke="none" stroke-width="0"/><path d="M240.36628,147.29401v103.50538h-12.99419v-103.50537z" data-paper-data="{&quot;index&quot;:null}" stroke="none" stroke-width="0"/><path d="M244.93314,322.22059v18.81916h-86.19476v-18.81916z" data-paper-data="{&quot;index&quot;:null}" stroke="none" stroke-width="0"/><path d="M175.82849,195.01401v-30.91719h51.5436v30.91719z" data-paper-data="{&quot;index&quot;:null}" stroke="none" stroke-width="0"/><path d="M149.84012,99.574v-30.91719h51.5436v30.9172z" data-paper-data="{&quot;index&quot;:null}" stroke="none" stroke-width="0"/><path d="M240.36628,33.03483v82.66987h-12.99419v-82.66987z" data-paper-data="{&quot;index&quot;:null}" stroke="none" stroke-width="0"/><path d="M16.43314,34.04299v-20.8355h223.93315v20.8355z" data-paper-data="{&quot;index&quot;:null}" stroke="none" stroke-width="0"/><path d="M442.2093,339.02821v-309.12992h20.7907v309.12992z" data-paper-data="{&quot;index&quot;:null}" stroke="none" stroke-width="0"/><path d="M427.75,157.59973v-21.50762h17.92442v21.50762z" data-paper-data="{&quot;index&quot;:null}" stroke="none" stroke-width="0"/><path d="M397.16279,253.03975v-16.13071h12.99419v16.13071z" data-paper-data="{&quot;index&quot;:null}" stroke="none" stroke-width="0"/><path d="M396.72966,197.9265v-87.37467h56.99419v87.37467z" data-paper-data="{&quot;index&quot;:null}" stroke="none" stroke-width="0"/><path d="M327.42732,197.70247v-11.42592h25.98837v11.42592z" data-paper-data="{&quot;index&quot;:null}" stroke="none" stroke-width="0"/><path d="M327.86047,189.63712v-78.63721h14.72675v78.63721z" data-paper-data="{&quot;index&quot;:null}" stroke="none" stroke-width="0"/><path d="M341.28779,127.13063v-16.13071h58.47384v16.13071z" data-paper-data="{&quot;index&quot;:null}" stroke="none" stroke-width="0"/><path d="M328.52907,340.88784v-18.51916h120.84593v18.51916z" data-paper-data="{&quot;index&quot;:null}" stroke="none" stroke-width="0"/><path d="M328.09623,112.34414v-78.13524h10.82849v78.13525z" data-paper-data="{&quot;index&quot;:null}" stroke="none" stroke-width="0"/><path d="M251.62791,147.29401v103.50538h-12.99419v-103.50537z" data-paper-data="{&quot;index&quot;:null}" stroke="none" stroke-width="0"/><path d="M330.26163,322.22059v18.81916h-86.19476v-18.81916z" data-paper-data="{&quot;index&quot;:null}" stroke="none" stroke-width="0"/><path d="M251.62791,33.03483v82.66987h-12.99419v-82.66987z" data-paper-data="{&quot;index&quot;:null}" stroke="none" stroke-width="0"/><path d="M238.63373,34.04299v-20.8355h223.93315v20.8355z" data-paper-data="{&quot;index&quot;:null}" stroke="none" stroke-width="0"/><path d="M450.5,36.24082v77h-204v-77z" data-paper-data="{&quot;index&quot;:null}" stroke="#8c8c8c" stroke-width="7"/><path d="M391.5,279.24082v44h-257v-44z" data-paper-data="{&quot;index&quot;:null}" stroke="none" stroke-width="0"/></g></g></svg>