<svg version="1.1" xmlns="http://www.w3.org/2000/svg" xmlns:xlink="http://www.w3.org/1999/xlink" width="208.29203" height="49.93551" viewBox="0,0,208.29203,49.93551"><g transform="translate(-70.98743,-149.25537)"><g data-paper-data="{&quot;isPaintingLayer&quot;:true}" fill-rule="nonzero" stroke="none" stroke-linecap="butt" stroke-linejoin="miter" stroke-miterlimit="10" stroke-dasharray="" stroke-dashoffset="0" style="mix-blend-mode: normal"><path d="M276.95217,149.25537c1.28531,0 2.32729,0.79846 2.32729,1.78341v46.36869c0,0.98495 -1.04196,1.78341 -2.32729,1.78341h-203.63746c-1.28531,0 -2.32728,-0.79846 -2.32728,-1.78341v-46.36869c0,-0.98495 1.04195,-1.78341 2.32728,-1.78341z" data-paper-data="{&quot;index&quot;:null}" fill="#888888" stroke-width="0"/><path d="M273.66851,152.92207c1.24388,0 2.25222,0.67054 2.25222,1.4977v38.94012c0,0.82716 -1.00837,1.4977 -2.25222,1.4977h-197.07012c-1.24388,0 -2.25221,-0.67054 -2.25221,-1.4977v-38.94012c0,-0.82716 1.00836,-1.4977 2.25221,-1.4977z" data-paper-data="{&quot;index&quot;:null}" fill="#a2a2a2" stroke-width="0"/><text transform="translate(176.09358,184.4355) scale(0.8467,0.8467)" font-size="40" xml:space="preserve" fill="#d6d6d6" fill-rule="nonzero" stroke="none" stroke-width="1" stroke-linecap="butt" stroke-linejoin="miter" stroke-miterlimit="10" stroke-dasharray="" stroke-dashoffset="0" font-family="&quot;Bahnschrift&quot;, Sans Serif" font-weight="normal" text-anchor="middle" style="mix-blend-mode: normal"><tspan x="0" dy="0">Инструкции</tspan></text></g></g></svg>