<svg version="1.1" xmlns="http://www.w3.org/2000/svg" xmlns:xlink="http://www.w3.org/1999/xlink" width="605" height="328.62584" viewBox="0,0,605,328.62584"><g transform="translate(140.5,-14.68708)"><g data-paper-data="{&quot;isPaintingLayer&quot;:true}" fill-rule="nonzero" stroke="none" stroke-width="0" stroke-linecap="butt" stroke-linejoin="miter" stroke-miterlimit="10" stroke-dasharray="" stroke-dashoffset="0" style="mix-blend-mode: normal"><path d="M-140.5,111.64625v-1h5v1z" data-paper-data="{&quot;index&quot;:null}" fill="#000000"/><path d="M38.2907,32.23669v294.38543h-20.7907v-294.38542z" data-paper-data="{&quot;index&quot;:null}" fill="#8c8c8c"/><path d="M84.49226,14.68708v18.81916h-66.99226v-18.81916z" data-paper-data="{&quot;index&quot;:null}" fill="#8c8c8c"/><path d="M161.97094,15.03257v18.81916h-86.19477v-18.81916z" data-paper-data="{&quot;index&quot;:null}" fill="#8c8c8c"/><path d="M160.23838,34.29982v-18.81916h86.19476v18.81916z" data-paper-data="{&quot;index&quot;:null}" fill="#8c8c8c"/><path d="M241.86629,322.47742v20.8355h-223.93315v-20.8355z" data-paper-data="{&quot;index&quot;:null}" fill="#8c8c8c"/><path d="M464.5,17.4922v309.12992h-20.7907v-309.12992z" data-paper-data="{&quot;index&quot;:null}" fill="#8c8c8c"/><path d="M450.875,15.63257v18.51916h-120.84593v-18.51916z" data-paper-data="{&quot;index&quot;:null}" fill="#8c8c8c"/><path d="M245.56687,34.29982v-18.81916h86.19476v18.81916z" data-paper-data="{&quot;index&quot;:null}" fill="#8c8c8c"/><path d="M464.06688,322.47742v20.8355h-223.93315v-20.8355z" data-paper-data="{&quot;index&quot;:null}" fill="#8c8c8c"/><path d="M140.31787,290.29302h-37.78172v-261.56279h37.78172z" data-paper-data="{&quot;index&quot;:null}" fill="#8c8c8c"/><path d="M307,327.66976h-26v-261.2093h26z" data-paper-data="{&quot;index&quot;:null}" fill="#8c8c8c"/><path d="M351.99999,290.66511h-20v-265.56279h20z" data-paper-data="{&quot;index&quot;:null}" fill="#8c8c8c"/><path d="M416.875,75.39999v214.81426h-68.70919v-214.81426z" data-paper-data="{&quot;index&quot;:null}" fill="#8c8c8c"/><path d="M59.45072,29.39999v299h-22.57572v-299z" data-paper-data="{&quot;index&quot;:null}" fill="#8c8c8c"/><path d="M254.22327,291.90804h-83.22326v-111.47776h83.22327z" data-paper-data="{&quot;index&quot;:null}" fill="#8c8c8c"/><path d="M191.37148,151.27316h-20.37148v-121.87477h20.37148z" data-paper-data="{&quot;index&quot;:null}" fill="#8c8c8c"/><path d="M254.22327,151.27316h-21.30957v-121.87477h21.30957z" data-paper-data="{&quot;index&quot;:null}" fill="#8c8c8c"/><path d="M254.22327,80.33182h-83.22326v-50.93344h83.22327z" data-paper-data="{&quot;index&quot;:null}" fill="#8c8c8c"/><path d="M201.61621,334.19999h-30.61621v-153.76971h30.61621z" data-paper-data="{&quot;index&quot;:null}" fill="#8c8c8c"/></g></g></svg>