<svg version="1.1" xmlns="http://www.w3.org/2000/svg" xmlns:xlink="http://www.w3.org/1999/xlink" width="641.5" height="367.14625" viewBox="0,0,641.5,367.14625"><g transform="translate(141.5,-17.68708)"><g data-paper-data="{&quot;isPaintingLayer&quot;:true}" fill-rule="nonzero" stroke="none" stroke-width="0" stroke-linecap="butt" stroke-linejoin="miter" stroke-miterlimit="10" stroke-dasharray="" stroke-dashoffset="0" style="mix-blend-mode: normal"><path d="M497,384.83333v-4h3v4z" fill="#272727"/><path d="M442.2093,328.76331v-294.38543h20.7907v294.38542z" data-paper-data="{&quot;index&quot;:null}" fill="#8c8c8c"/><path d="M432.74999,162.07932v-21.50762h12.92442v21.50762z" data-paper-data="{&quot;index&quot;:null}" fill="#8c8c8c"/><path d="M383.16278,327.7633v-87.37467h12.99419v87.37467z" data-paper-data="{&quot;index&quot;:null}" fill="#8c8c8c"/><path d="M396.72964,200.72155v-85.69013h12.99419v85.69013z" data-paper-data="{&quot;index&quot;:null}" fill="#8c8c8c"/><path d="M396.00774,346.31292v-18.81916h66.99226v18.81916z" data-paper-data="{&quot;index&quot;:null}" fill="#8c8c8c"/><path d="M373.13774,200.66379v-10.50284h23.82268v10.50284z" data-paper-data="{&quot;index&quot;:null}" fill="#8c8c8c"/><path d="M327.42733,202.18206v-11.42592h25.98837v11.42592z" data-paper-data="{&quot;index&quot;:null}" fill="#8c8c8c"/><path d="M327.86046,194.11671v-78.63721h14.72675v78.63721z" data-paper-data="{&quot;index&quot;:null}" fill="#8c8c8c"/><path d="M341.28779,131.61022v-16.13071h58.47384v16.13071z" data-paper-data="{&quot;index&quot;:null}" fill="#8c8c8c"/><path d="M318.52906,345.96743v-18.81916h86.19477v18.81916z" data-paper-data="{&quot;index&quot;:null}" fill="#8c8c8c"/><path d="M327.86047,116.82374v-84.03112h10.82849v84.03111z" data-paper-data="{&quot;index&quot;:null}" fill="#8c8c8c"/><path d="M338.68895,92.90771v-16.01869h71.46802v16.01869z" data-paper-data="{&quot;index&quot;:null}" fill="#8c8c8c"/><path d="M251.62791,151.77361v103.50537h-12.99419v-103.50538z" data-paper-data="{&quot;index&quot;:null}" fill="#8c8c8c"/><path d="M320.26162,326.70018v18.81916h-86.19476v-18.81916z" data-paper-data="{&quot;index&quot;:null}" fill="#8c8c8c"/><path d="M251.62791,199.4936v-30.91719h51.5436v30.91719z" data-paper-data="{&quot;index&quot;:null}" fill="#8c8c8c"/><path d="M251.62791,37.51442v82.66987h-12.99419v-82.66987z" data-paper-data="{&quot;index&quot;:null}" fill="#8c8c8c"/><path d="M238.63371,38.52258v-20.8355h223.93315v20.8355z" data-paper-data="{&quot;index&quot;:null}" fill="#8c8c8c"/><path d="M16,343.5078v-309.12992h20.7907v309.12992z" data-paper-data="{&quot;index&quot;:null}" fill="#8c8c8c"/><path d="M33.32558,162.07932v-21.50762h13.72274v21.50762z" data-paper-data="{&quot;index&quot;:null}" fill="#8c8c8c"/><path d="M68.84302,257.51934v-16.13071h12.99419v16.13071z" data-paper-data="{&quot;index&quot;:null}" fill="#8c8c8c"/><path d="M69.27615,202.40609v-87.37467h12.99419v87.37467z" data-paper-data="{&quot;index&quot;:null}" fill="#8c8c8c"/><path d="M99.43006,170.16539l-1.89233,-8.35741l17.42494,-5.59519l1.89233,8.35741z" data-paper-data="{&quot;index&quot;:null}" fill="#8c8c8c"/><path d="M125.58431,202.18206v-11.42592h25.98837v11.42592z" data-paper-data="{&quot;index&quot;:null}" fill="#8c8c8c"/><path d="M136.41278,194.11671v-78.63721h14.72675v78.63721z" data-paper-data="{&quot;index&quot;:null}" fill="#8c8c8c"/><path d="M79.23837,131.61022v-16.13071h58.47384v16.13071z" data-paper-data="{&quot;index&quot;:null}" fill="#8c8c8c"/><path d="M29.625,345.36743v-18.51916h120.84593v18.51916z" data-paper-data="{&quot;index&quot;:null}" fill="#8c8c8c"/><path d="M140.07528,116.82374v-78.13525h10.82849v78.13524z" data-paper-data="{&quot;index&quot;:null}" fill="#8c8c8c"/><path d="M68.84302,92.90771v-16.01869h43.6484v16.01869z" data-paper-data="{&quot;index&quot;:null}" fill="#8c8c8c"/><path d="M240.36628,151.77361v103.50537h-12.99419v-103.50538z" data-paper-data="{&quot;index&quot;:null}" fill="#8c8c8c"/><path d="M234.93313,326.70018v18.81916h-86.19476v-18.81916z" data-paper-data="{&quot;index&quot;:null}" fill="#8c8c8c"/><path d="M174.89034,64.64259h25.96213v61.38109h-25.96212z" data-paper-data="{&quot;index&quot;:null}" fill="#8c8c8c"/><path d="M240.36628,37.51442v82.66987h-12.99419v-82.66987z" data-paper-data="{&quot;index&quot;:null}" fill="#8c8c8c"/><path d="M16.43312,38.52258v-20.8355h223.93315v20.8355z" data-paper-data="{&quot;index&quot;:null}" fill="#8c8c8c"/><path d="M-141.5,112.16666v-1h5v1z" fill="#000000"/><path d="M251.43539,83.82779v-8.28862h40.88646v8.28863z" fill="#8c8c8c"/></g></g></svg>