<svg version="1.1" xmlns="http://www.w3.org/2000/svg" xmlns:xlink="http://www.w3.org/1999/xlink" width="153.28839" height="49.93551" viewBox="0,0,153.28839,49.93551"><g transform="translate(-163.3558,-147.36559)"><g data-paper-data="{&quot;isPaintingLayer&quot;:true}" fill-rule="nonzero" stroke="none" stroke-linecap="butt" stroke-linejoin="miter" stroke-miterlimit="10" stroke-dasharray="" stroke-dashoffset="0" style="mix-blend-mode: normal"><path d="M314.93147,147.3656c0.94591,0 1.71272,0.79846 1.71272,1.78341v46.36869c0,0.98495 -0.76681,1.78341 -1.71272,1.78341h-149.86295c-0.94591,0 -1.71272,-0.79846 -1.71272,-1.78341v-46.36869c0,-0.98495 0.76681,-1.78341 1.71272,-1.78341z" data-paper-data="{&quot;index&quot;:null}" fill="#888888" stroke-width="0"/><path d="M312.51493,151.03228c0.9154,0 1.65748,0.67054 1.65748,1.4977v38.94012c0,0.82716 -0.74208,1.4977 -1.65748,1.4977h-145.02985c-0.9154,0 -1.65748,-0.67054 -1.65748,-1.4977v-38.94012c0,-0.82716 0.74208,-1.4977 1.65748,-1.4977z" data-paper-data="{&quot;index&quot;:null}" fill="#a3a3a3" stroke-width="0"/><text transform="translate(240.00001,182.57554) scale(0.69171,0.69171)" font-size="40" xml:space="preserve" fill="#d6d6d6" fill-rule="nonzero" stroke="none" stroke-width="1" stroke-linecap="butt" stroke-linejoin="miter" stroke-miterlimit="10" stroke-dasharray="" stroke-dashoffset="0" font-family="&quot;Bahnschrift&quot;, Sans Serif" font-weight="normal" text-anchor="middle" style="mix-blend-mode: normal"><tspan x="0" dy="0">Закрывать</tspan></text></g></g></svg>