<svg version="1.1" xmlns="http://www.w3.org/2000/svg" xmlns:xlink="http://www.w3.org/1999/xlink" width="605" height="328.62584" viewBox="0,0,605,328.62584"><g transform="translate(140.5,-14.68708)"><g data-paper-data="{&quot;isPaintingLayer&quot;:true}" fill-rule="nonzero" stroke="none" stroke-width="0" stroke-linecap="butt" stroke-linejoin="miter" stroke-miterlimit="10" stroke-dasharray="" stroke-dashoffset="0" style="mix-blend-mode: normal"><path d="M-140.5,111.64625v-1h5v1z" data-paper-data="{&quot;index&quot;:null}" fill="#000000"/><path d="M17.5,325.7633v-294.38542h20.7907v294.38543z" data-paper-data="{&quot;index&quot;:null}" fill="#8c8c8c"/><path d="M17.5,343.31292v-18.81916h66.99226v18.81916z" data-paper-data="{&quot;index&quot;:null}" fill="#8c8c8c"/><path d="M75.77617,342.96743v-18.81916h86.19477v18.81916z" data-paper-data="{&quot;index&quot;:null}" fill="#8c8c8c"/><path d="M246.43314,323.70018v18.81916h-86.19476v-18.81916z" data-paper-data="{&quot;index&quot;:null}" fill="#8c8c8c"/><path d="M17.93314,35.52258v-20.8355h223.93315v20.8355z" data-paper-data="{&quot;index&quot;:null}" fill="#8c8c8c"/><path d="M443.7093,340.5078v-309.12992h20.7907v309.12992z" data-paper-data="{&quot;index&quot;:null}" fill="#8c8c8c"/><path d="M330.02907,342.36743v-18.51916h120.84593v18.51916z" data-paper-data="{&quot;index&quot;:null}" fill="#8c8c8c"/><path d="M331.76163,323.70018v18.81916h-86.19476v-18.81916z" data-paper-data="{&quot;index&quot;:null}" fill="#8c8c8c"/><path d="M240.13373,35.52258v-20.8355h223.93315v20.8355z" data-paper-data="{&quot;index&quot;:null}" fill="#8c8c8c"/><path d="M31.5,82.30001v-18h366v18z" fill="#8c8c8c"/><path d="M72.5,138.30001v-24.12383h380v24.12383z" fill="#8c8c8c"/><path d="M22.5,192.30001v-26h234.66792v26z" fill="#8c8c8c"/><path d="M72.5,248.30001v-26h371v26z" fill="#8c8c8c"/><path d="M26.5,293.3v-20h366v20z" fill="#8c8c8c"/><path d="M284.22608,226.07112v-59.77111h169.93996v59.77111z" fill="#8c8c8c"/></g></g></svg>