<svg version="1.1" xmlns="http://www.w3.org/2000/svg" xmlns:xlink="http://www.w3.org/1999/xlink" width="34.1" height="34.1" viewBox="0,0,34.1,34.1"><defs><radialGradient cx="449.90002" cy="21.76002" r="15.8" gradientUnits="userSpaceOnUse" id="color-1"><stop offset="0" stop-color="#818181"/><stop offset="1" stop-color="#6b6b6b"/></radialGradient></defs><g transform="translate(-432.85002,-4.71)"><g data-paper-data="{&quot;isPaintingLayer&quot;:true}" fill-rule="nonzero" stroke-linejoin="miter" stroke-miterlimit="10" stroke-dasharray="" stroke-dashoffset="0" style="mix-blend-mode: normal"><path d="M434.10002,37.56v-31.6h31.6v31.6z" fill="url(#color-1)" stroke="#545454" stroke-width="2.5" stroke-linecap="butt"/><path d="M461.7735,22.11557c0,4.67964 -5.15025,8.47324 -11.5034,8.47324c-6.35316,0 -11.50341,-3.7936 -11.50341,-8.47324c0,-4.67964 5.15025,-8.47323 11.50341,-8.47323c6.35316,0 11.5034,3.7936 11.5034,8.47323z" fill="none" stroke="#fffe00" stroke-width="3.5" stroke-linecap="butt"/><path d="M455.54015,22.25331c0,1.83145 -2.2841,3.3161 -5.1017,3.3161c-2.8176,0 -5.10172,-1.48467 -5.10172,-3.3161c0,-1.83145 2.28412,-3.31612 5.10172,-3.31612c2.8176,0 5.1017,1.48467 5.1017,3.31612z" fill="#fffe00" stroke="#fffe00" stroke-width="2" stroke-linecap="butt"/><path d="M449.61231,21.28616c0,0.82843 -0.73553,1.5 -1.64286,1.5c-0.90732,0 -1.64286,-0.67157 -1.64286,-1.5c0,-0.82843 0.73553,-1.5 1.64286,-1.5c0.90732,0 1.64286,0.67157 1.64286,1.5z" fill="#ffffff" stroke="none" stroke-width="0" stroke-linecap="butt"/><path d="M439.32659,33.50044l23,-22.57143" fill="none" stroke="#fffe00" stroke-width="2.5" stroke-linecap="round"/></g></g></svg>