<svg version="1.1" xmlns="http://www.w3.org/2000/svg" xmlns:xlink="http://www.w3.org/1999/xlink" width="164.83703" height="49.93551" viewBox="0,0,164.83703,49.93551"><g transform="translate(-70.98744,-149.25537)"><g data-paper-data="{&quot;isPaintingLayer&quot;:true}" fill-rule="nonzero" stroke="none" stroke-linecap="butt" stroke-linejoin="miter" stroke-miterlimit="10" stroke-dasharray="" stroke-dashoffset="0" style="mix-blend-mode: normal"><g stroke-width="0"><path d="M233.9827,149.25537c1.01715,0 1.84177,0.79846 1.84177,1.78341v46.36869c0,0.98495 -0.82458,1.78341 -1.84177,1.78341h-161.15352c-1.01715,0 -1.84174,-0.79846 -1.84174,-1.78341v-46.36869c0,-0.98495 0.82458,-1.78341 1.84174,-1.78341z" data-paper-data="{&quot;index&quot;:null}" fill="#888888"/><path d="M231.38409,152.92207c0.98438,0 1.78235,0.67054 1.78235,1.4977v38.94012c0,0.82716 -0.798,1.4977 -1.78235,1.4977h-155.9563c-0.98438,0 -1.78235,-0.67054 -1.78235,-1.4977v-38.94012c0,-0.82716 0.798,-1.4977 1.78235,-1.4977z" data-paper-data="{&quot;index&quot;:null}" fill="#a2a2a2"/></g><g><g><g fill="#b0b0b0" stroke-width="0"><path d="M88.78845,187.33816l5.34626,-20.19182l14.74401,3.71026l-5.34625,20.19181z"/><path d="M95.69801,183.46745l6.35896,-24.01661l2.97423,0.74845l-6.35896,24.01661z"/><path d="M99.80208,159.22276c0.52434,-1.98034 2.59614,-3.17133 4.62747,-2.66014c2.03133,0.51119 3.25301,2.53094 2.72868,4.51128c-0.52434,1.98034 -2.59613,3.17133 -4.62748,2.66015c-2.03133,-0.51119 -3.25301,-2.53096 -2.72867,-4.51128z"/></g><path d="M94.89682,177.74899c0.62921,-2.37642 3.11536,-3.80559 5.55297,-3.19218c2.43761,0.61341 3.9036,3.03713 3.27439,5.41354c-0.62921,2.37642 -3.11536,3.80559 -5.55296,3.19218c-2.43761,-0.61341 -3.9036,-3.03712 -3.27439,-5.41354z" fill="#787878" stroke-width="NaN"/></g><g><g fill="#d6d6d6" stroke-width="0"><path d="M87.71262,185.95493l5.34626,-20.19181l14.74401,3.71025l-5.34624,20.19181z"/><path d="M94.62217,182.08422l6.35896,-24.01661l2.97423,0.74845l-6.35896,24.01661z"/><path d="M98.72623,157.83953c0.52434,-1.98034 2.59614,-3.17132 4.62747,-2.66014c2.03133,0.51119 3.25301,2.53094 2.72868,4.51128c-0.52434,1.98034 -2.59613,3.17132 -4.62748,2.66014c-2.03133,-0.51119 -3.25301,-2.53096 -2.72867,-4.51128z"/></g><path d="M93.82097,176.36577c0.62921,-2.37642 3.11536,-3.80559 5.55296,-3.19218c2.43761,0.61341 3.9036,3.03713 3.27439,5.41354c-0.62921,2.37642 -3.11536,3.80559 -5.55296,3.19218c-2.43761,-0.61341 -3.9036,-3.03713 -3.27439,-5.41354z" fill="#c8c8c8" stroke-width="NaN"/></g></g><g><path d="M102.40849,192.53721l-4.96288,-20.0188l27.48345,-6.81343l4.96288,20.0188z" fill="#d6d6d6" stroke-width="0"/><g fill="#d6d6d6" stroke-width="0"><path d="M117.42752,168.25033l1.48211,-8.86486l2.56166,0.42144l-1.48212,8.86487z"/><path d="M123.21634,160.10385c-0.28262,1.69042 -1.84269,2.84182 -3.4845,2.5717c-1.64181,-0.27012 -2.74363,-1.85945 -2.46102,-3.54987c0.28262,-1.69042 1.84268,-2.84181 3.48449,-2.57169c1.64181,0.27012 2.74364,1.85944 2.46103,3.54986z"/></g><path d="M103.98138,190.66318l-4.26964,-17.22249l23.64445,-5.86172l4.26964,17.22249z" fill="#c8c8c8" stroke-width="0"/><text transform="translate(122.17169,182.15093) rotate(-13.92421) scale(0.36156,0.36156)" font-size="40" xml:space="preserve" fill="#b0b0b0" fill-rule="nonzero" stroke="none" stroke-width="1" stroke-linecap="butt" stroke-linejoin="miter" stroke-miterlimit="10" stroke-dasharray="" stroke-dashoffset="0" font-family="Sans Serif" font-weight="normal" text-anchor="end" style="mix-blend-mode: normal"><tspan x="0" dy="0">LE</tspan></text></g><text transform="translate(177.47018,184.71524) scale(0.82512,0.82512)" font-size="40" xml:space="preserve" fill="#d3d3d3" fill-rule="nonzero" stroke="none" stroke-width="1" stroke-linecap="butt" stroke-linejoin="miter" stroke-miterlimit="10" stroke-dasharray="" stroke-dashoffset="0" font-family="&quot;Bahnschrift&quot;, Sans Serif" font-weight="normal" text-anchor="middle" style="mix-blend-mode: normal"><tspan x="0" dy="0">Items</tspan></text></g></g></svg>