<svg version="1.1" xmlns="http://www.w3.org/2000/svg" xmlns:xlink="http://www.w3.org/1999/xlink" width="34.1" height="34.1" viewBox="0,0,34.1,34.1"><defs><radialGradient cx="412.77502" cy="21.76002" r="15.8" gradientUnits="userSpaceOnUse" id="color-1"><stop offset="0" stop-color="#818181"/><stop offset="1" stop-color="#6b6b6b"/></radialGradient></defs><g transform="translate(-395.72502,-4.71)"><g data-paper-data="{&quot;isPaintingLayer&quot;:true}" fill-rule="nonzero" stroke-linecap="butt" stroke-linejoin="miter" stroke-miterlimit="10" stroke-dasharray="" stroke-dashoffset="0" style="mix-blend-mode: normal"><path d="M396.97502,37.56v-31.6h31.6v31.6z" fill="url(#color-1)" stroke="#545454" stroke-width="2.5"/><path d="M402.60499,19.01705l10.15046,-5.81818l10.15046,5.81818z" fill="#545454" stroke="none" stroke-width="0"/><g><path d="M412.68469,29.0335c-0.69474,0.0608 -1.30722,-0.45311 -1.36802,-1.14785l-0.54708,-6.25138c-0.0608,-0.69474 0.45312,-1.30722 1.14785,-1.36802l5.34753,-0.46797c0.69474,-0.0608 1.30722,0.45312 1.36802,1.14785l0.54708,6.25136c0.0608,0.69474 -0.45311,1.30722 -1.14785,1.36802z" fill="#c9c9c9" stroke="none" stroke-width="0"/><path d="M413.07504,20.46518c-0.40073,0.03507 -0.72999,0.01326 -0.7354,-0.04871l-0.0488,-0.55763c-0.00542,-0.06197 0.31503,-0.14064 0.71576,-0.1757l3.08447,-0.26993c0.40073,-0.03507 0.72999,-0.01326 0.7354,0.04871l0.0488,0.55763c0.00542,0.06197 -0.31503,0.14064 -0.71576,0.1757z" fill="#b9b9b9" stroke="none" stroke-width="0"/><path d="M413.30866,19.94283c-0.28918,0.02531 -0.54534,-0.20231 -0.57213,-0.50842l-0.24104,-2.75435c-0.02679,-0.30611 0.18593,-0.57477 0.47513,-0.60007l2.22595,-0.1948c0.28918,-0.02531 0.54534,0.20231 0.57213,0.50842l0.24104,2.75435c0.02679,0.30611 -0.18594,0.57477 -0.47513,0.60007z" fill="#c9c9c9" stroke="none" stroke-width="0"/><path d="M424.71853,18.82041c0.01872,3.01833 -5.11257,5.49709 -11.46106,5.53647c-6.34849,0.03938 -11.51013,-2.37554 -11.52885,-5.39388c-0.01872,-3.01833 5.11257,-5.49709 11.46106,-5.53647c6.34849,-0.03938 11.51013,2.37554 11.52885,5.39388z" fill="#484a4a" stroke="none" stroke-width="0"/><path d="M401.27804,30.61047l-0.07664,-12.35604l23.47194,-0.14558l0.07664,12.35604z" fill="#545454" stroke="#000000" stroke-width="0"/><path d="M424.40078,18.35013c0.01872,3.01833 -5.11257,5.49709 -11.46106,5.53647c-6.34849,0.03938 -11.51013,-2.37554 -11.52885,-5.39388c-0.01872,-3.01833 5.11257,-5.49709 11.46106,-5.53647c6.34849,-0.03938 11.51013,2.37554 11.52885,5.39388z" fill="#545454" stroke="none" stroke-width="0"/><path d="M402.98346,18.43378c-0.89821,0.00557 -1.62664,-0.03554 -1.62698,-0.09182v0c-0.00035,-0.05628 0.72751,-0.10643 1.62572,-0.11199l19.93156,-0.12362c0.89821,-0.00557 1.62664,0.03554 1.62698,0.09182v0c0.00035,0.05628 -0.72751,0.10643 -1.62572,0.11199z" fill="#8a8a8a" stroke="none" stroke-width="NaN"/><path d="M412.9936,22.09152c-0.89821,0.00557 -1.63086,-0.71806 -1.63644,-1.61626l-0.01332,-2.14847c-0.00557,-0.89821 0.71805,-1.63086 1.61626,-1.63644l0.56889,-0.00352c0.89821,-0.00557 1.63086,0.71806 1.63643,1.61626l0.01333,2.14847c0.00557,0.89821 -0.71806,1.63086 -1.61626,1.63643z" fill="#424242" stroke="none" stroke-width="0"/><path d="M413.29816,20.7464c-0.26837,0.00167 -0.48742,-0.23807 -0.48926,-0.53545v0c-0.00185,-0.29738 0.21421,-0.5398 0.48258,-0.54146v0c0.26837,-0.00167 0.48742,0.23806 0.48926,0.53544v0c0.00185,0.29738 -0.21421,0.53981 -0.48258,0.54147z" fill="#191919" stroke="none" stroke-width="0"/></g></g></g></svg>