<svg version="1.1" xmlns="http://www.w3.org/2000/svg" xmlns:xlink="http://www.w3.org/1999/xlink" width="605" height="369.62584" viewBox="0,0,605,369.62584"><g transform="translate(141.5,25.31292)"><g data-paper-data="{&quot;isPaintingLayer&quot;:true}" fill-rule="nonzero" stroke="none" stroke-width="0" stroke-linecap="butt" stroke-linejoin="miter" stroke-miterlimit="10" stroke-dasharray="" stroke-dashoffset="0" style="mix-blend-mode: normal"><path d="M19,-25.31292v4h-3v-4z" data-paper-data="{&quot;index&quot;:null}" fill="#272727"/><path d="M463.5,33.2367v294.38542h-20.7907v-294.38543z" data-paper-data="{&quot;index&quot;:null}" fill="#8c8c8c"/><path d="M446.17441,199.92068v21.50762h-12.92442v-21.50762z" data-paper-data="{&quot;index&quot;:null}" fill="#8c8c8c"/><path d="M396.65697,34.2367v87.37467h-12.99419v-87.37467z" data-paper-data="{&quot;index&quot;:null}" fill="#8c8c8c"/><path d="M410.22383,161.27845v85.69013h-12.99419v-85.69013z" data-paper-data="{&quot;index&quot;:null}" fill="#8c8c8c"/><path d="M463.5,15.68708v18.81916h-66.99226v-18.81916z" data-paper-data="{&quot;index&quot;:null}" fill="#8c8c8c"/><path d="M397.46042,161.33621v10.50284h-23.82268v-10.50284z" data-paper-data="{&quot;index&quot;:null}" fill="#8c8c8c"/><path d="M353.9157,159.81794v11.42592h-25.98837v-11.42592z" data-paper-data="{&quot;index&quot;:null}" fill="#8c8c8c"/><path d="M343.08721,167.88329v78.63721h-14.72675v-78.63721z" data-paper-data="{&quot;index&quot;:null}" fill="#8c8c8c"/><path d="M400.26163,230.38978v16.13071h-58.47384v-16.13071z" data-paper-data="{&quot;index&quot;:null}" fill="#8c8c8c"/><path d="M405.22383,16.03257v18.81916h-86.19477v-18.81916z" data-paper-data="{&quot;index&quot;:null}" fill="#8c8c8c"/><path d="M339.18896,245.17627v84.03111h-10.82849v-84.03112z" data-paper-data="{&quot;index&quot;:null}" fill="#8c8c8c"/><path d="M410.65697,269.09229v16.01869h-71.46802v-16.01869z" data-paper-data="{&quot;index&quot;:null}" fill="#8c8c8c"/><path d="M239.13372,210.2264v-103.50538h12.99419v103.50537z" data-paper-data="{&quot;index&quot;:null}" fill="#8c8c8c"/><path d="M234.56686,35.29982v-18.81916h86.19476v18.81916z" data-paper-data="{&quot;index&quot;:null}" fill="#8c8c8c"/><path d="M303.67151,162.5064v30.91719h-51.5436v-30.91719z" data-paper-data="{&quot;index&quot;:null}" fill="#8c8c8c"/><path d="M329.65988,257.94641v30.91719h-51.5436v-30.9172z" data-paper-data="{&quot;index&quot;:null}" fill="#8c8c8c"/><path d="M239.13372,324.48558v-82.66987h12.99419v82.66987z" data-paper-data="{&quot;index&quot;:null}" fill="#8c8c8c"/><path d="M463.06686,323.47742v20.8355h-223.93315v-20.8355z" data-paper-data="{&quot;index&quot;:null}" fill="#8c8c8c"/><path d="M37.2907,18.4922v309.12992h-20.7907v-309.12992z" data-paper-data="{&quot;index&quot;:null}" fill="#8c8c8c"/><path d="M47.75,199.92068v21.50762h-13.92442v-21.50762z" data-paper-data="{&quot;index&quot;:null}" fill="#8c8c8c"/><path d="M82.33721,104.48066v16.13071h-12.99419v-16.13071z" data-paper-data="{&quot;index&quot;:null}" fill="#8c8c8c"/><path d="M82.77034,159.59391v87.37467h-12.99419v-87.37467z" data-paper-data="{&quot;index&quot;:null}" fill="#8c8c8c"/><path d="M152.07268,159.81794v11.42592h-25.98837v-11.42592z" data-paper-data="{&quot;index&quot;:null}" fill="#8c8c8c"/><path d="M151.63953,167.88329v78.63721h-14.72675v-78.63721z" data-paper-data="{&quot;index&quot;:null}" fill="#8c8c8c"/><path d="M138.21221,230.38978v16.13071h-58.47384v-16.13071z" data-paper-data="{&quot;index&quot;:null}" fill="#8c8c8c"/><path d="M150.97093,16.63257v18.51916h-120.84593v-18.51916z" data-paper-data="{&quot;index&quot;:null}" fill="#8c8c8c"/><path d="M151.40377,245.17627v78.13524h-10.82849v-78.13525z" data-paper-data="{&quot;index&quot;:null}" fill="#8c8c8c"/><path d="M227.87209,210.2264v-103.50538h12.99419v103.50537z" data-paper-data="{&quot;index&quot;:null}" fill="#8c8c8c"/><path d="M149.23837,35.29982v-18.81916h86.19476v18.81916z" data-paper-data="{&quot;index&quot;:null}" fill="#8c8c8c"/><path d="M227.87209,324.48558v-82.66987h12.99419v82.66987z" data-paper-data="{&quot;index&quot;:null}" fill="#8c8c8c"/><path d="M240.86627,323.47742v20.8355h-223.93315v-20.8355z" data-paper-data="{&quot;index&quot;:null}" fill="#8c8c8c"/><path d="M-136.5,247.35375v1h-5v-1z" data-paper-data="{&quot;index&quot;:null}" fill="#000000"/></g></g></svg>