<svg version="1.1" xmlns="http://www.w3.org/2000/svg" xmlns:xlink="http://www.w3.org/1999/xlink" width="18.25758" height="18.25758" viewBox="0,0,18.25758,18.25758"><g transform="translate(-230.87121,-170.87121)"><g data-paper-data="{&quot;isPaintingLayer&quot;:true}" fill-rule="nonzero" stroke-linecap="butt" stroke-linejoin="miter" stroke-miterlimit="10" stroke-dasharray="" stroke-dashoffset="0" style="mix-blend-mode: normal"><path d="M231.62121,188.37879v-16.75758h16.75758v16.75758z" fill="#ffffff" stroke="#ff0000" stroke-width="1.5"/><path d="M245.25891,175.66618v5.45236c0,0.10818 -0.04327,0.21636 -0.12982,0.25964c-0.69236,0.60582 -1.55782,0.90873 -2.44491,0.90873c-0.88709,0 -1.75255,-0.32455 -2.44491,-0.90873c-0.56255,-0.476 -1.25491,-0.75727 -1.99055,-0.75727c-0.67073,0 -1.31982,0.21636 -1.86073,0.64909v3.61327c0,0.21636 -0.17309,0.38945 -0.38945,0.38945c-0.21636,0 -0.38945,-0.17309 -0.38945,-0.38945v-9.21709c0,-0.17309 0.10818,-0.28127 0.21636,-0.34618c0.69236,-0.56255 1.51455,-0.86545 2.38,-0.86545c0.88709,0 1.77418,0.32455 2.46655,0.90873c0.56255,0.476 1.25491,0.73564 1.99055,0.73564c0.73564,0 1.428,-0.25964 1.99055,-0.73564c0.12982,-0.08655 0.28127,-0.10818 0.41109,-0.04327c0.12982,0.06491 0.19473,0.19473 0.19473,0.34618z" fill="#ff0000" stroke="none" stroke-width="1"/></g></g></svg>