<svg version="1.1" xmlns="http://www.w3.org/2000/svg" xmlns:xlink="http://www.w3.org/1999/xlink" width="605" height="328.62584" viewBox="0,0,605,328.62584"><g transform="translate(140.5,-14.68708)"><g data-paper-data="{&quot;isPaintingLayer&quot;:true}" fill-rule="nonzero" stroke="none" stroke-width="0" stroke-linecap="butt" stroke-linejoin="miter" stroke-miterlimit="10" stroke-dasharray="" stroke-dashoffset="0" style="mix-blend-mode: normal"><path d="M-140.5,111.64625v-1h5v1z" data-paper-data="{&quot;index&quot;:null}" fill="#000000"/><path d="M17.5,325.7633v-294.38542h20.7907v294.38543z" data-paper-data="{&quot;index&quot;:null}" fill="#8c8c8c"/><path d="M17.5,343.31292v-18.81916h66.99226v18.81916z" data-paper-data="{&quot;index&quot;:null}" fill="#8c8c8c"/><path d="M75.77617,342.96743v-18.81916h86.19477v18.81916z" data-paper-data="{&quot;index&quot;:null}" fill="#8c8c8c"/><path d="M246.43314,323.70018v18.81916h-86.19476v-18.81916z" data-paper-data="{&quot;index&quot;:null}" fill="#8c8c8c"/><path d="M17.93314,35.52258v-20.8355h223.93315v20.8355z" data-paper-data="{&quot;index&quot;:null}" fill="#8c8c8c"/><path d="M443.7093,340.5078v-309.12992h20.7907v309.12992z" data-paper-data="{&quot;index&quot;:null}" fill="#8c8c8c"/><path d="M330.02907,342.36743v-18.51916h120.84593v18.51916z" data-paper-data="{&quot;index&quot;:null}" fill="#8c8c8c"/><path d="M331.76163,323.70018v18.81916h-86.19476v-18.81916z" data-paper-data="{&quot;index&quot;:null}" fill="#8c8c8c"/><path d="M240.13373,35.52258v-20.8355h223.93315v20.8355z" data-paper-data="{&quot;index&quot;:null}" fill="#8c8c8c"/><path d="M141,329.26977h-35.05321v-261.56279h35.05321z" data-paper-data="{&quot;index&quot;:null}" fill="#8c8c8c"/><path d="M197,299.52094h-26v-275.72093h26z" data-paper-data="{&quot;index&quot;:null}" fill="#8c8c8c"/><path d="M251.00001,335.8h-26v-134.2307h26z" data-paper-data="{&quot;index&quot;:null}" fill="#8c8c8c"/><path d="M307,291.53954h-26v-261.2093h26z" data-paper-data="{&quot;index&quot;:null}" fill="#8c8c8c"/><path d="M351.99999,332.89768h-20v-117.34515h20z" data-paper-data="{&quot;index&quot;:null}" fill="#8c8c8c"/><path d="M36.875,328.60001v-299h40v299z" data-paper-data="{&quot;index&quot;:null}" fill="#8c8c8c"/><path d="M251.00001,178.2015h-62.15279v-150.17818h62.1528z" data-paper-data="{&quot;index&quot;:null}" fill="#8c8c8c"/><path d="M351.99999,182.80387h-20v-152.99243h20z" data-paper-data="{&quot;index&quot;:null}" fill="#8c8c8c"/><path d="M379.12265,294.79513v-224.19512h35.87617v224.19512z" data-paper-data="{&quot;index&quot;:null}" fill="#8c8c8c"/></g></g></svg>