<svg version="1.1" xmlns="http://www.w3.org/2000/svg" xmlns:xlink="http://www.w3.org/1999/xlink" width="447" height="328.62584" viewBox="0,0,447,328.62584"><g transform="translate(-16,-13.20749)"><g data-paper-data="{&quot;isPaintingLayer&quot;:true}" fill="#8c8c8c" fill-rule="nonzero" stroke-linecap="butt" stroke-linejoin="miter" stroke-miterlimit="10" stroke-dasharray="" stroke-dashoffset="0" style="mix-blend-mode: normal"><path d="M16,324.28371v-294.38542h20.7907v294.38543z" data-paper-data="{&quot;index&quot;:null}" stroke="none" stroke-width="0"/><path d="M33.32559,157.59973v-21.50762h12.92442v21.50762z" data-paper-data="{&quot;index&quot;:null}" stroke="none" stroke-width="0"/><path d="M95.83722,28.31303v87.37467h-12.99419v-87.37467z" data-paper-data="{&quot;index&quot;:null}" stroke="none" stroke-width="0"/><path d="M82.27036,155.35478v85.69013h-12.99419v-85.69013z" data-paper-data="{&quot;index&quot;:null}" stroke="none" stroke-width="0"/><path d="M16,341.83333v-18.81916h66.99226v18.81916z" data-paper-data="{&quot;index&quot;:null}" stroke="none" stroke-width="0"/><path d="M105.86226,155.41254v10.50284h-23.82268v-10.50284z" data-paper-data="{&quot;index&quot;:null}" stroke="none" stroke-width="0"/><path d="M151.57267,153.89427v11.42592h-25.98837v-11.42592z" data-paper-data="{&quot;index&quot;:null}" stroke="none" stroke-width="0"/><path d="M151.13954,161.95962v78.63721h-14.72675v-78.63721z" data-paper-data="{&quot;index&quot;:null}" stroke="none" stroke-width="0"/><path d="M137.71221,224.46611v16.13071h-58.47384v-16.13071z" data-paper-data="{&quot;index&quot;:null}" stroke="none" stroke-width="0"/><path d="M74.27617,341.48784v-18.81916h86.19477v18.81916z" data-paper-data="{&quot;index&quot;:null}" stroke="none" stroke-width="0"/><path d="M151.13953,239.25259v84.03112h-10.82849v-84.03111z" data-paper-data="{&quot;index&quot;:null}" stroke="none" stroke-width="0"/><path d="M140.31105,263.16862v16.01869h-71.46802v-16.01869z" data-paper-data="{&quot;index&quot;:null}" stroke="none" stroke-width="0"/><path d="M240.36628,147.29401v103.50538h-12.99419v-103.50537z" data-paper-data="{&quot;index&quot;:null}" stroke="none" stroke-width="0"/><path d="M244.93314,322.22059v18.81916h-86.19476v-18.81916z" data-paper-data="{&quot;index&quot;:null}" stroke="none" stroke-width="0"/><path d="M227.37209,156.58273v30.91719h-51.5436v-30.91719z" data-paper-data="{&quot;index&quot;:null}" stroke="none" stroke-width="0"/><path d="M201.38372,252.02273v30.9172h-51.5436v-30.91719z" data-paper-data="{&quot;index&quot;:null}" stroke="none" stroke-width="0"/><path d="M240.36628,33.03483v82.66987h-12.99419v-82.66987z" data-paper-data="{&quot;index&quot;:null}" stroke="none" stroke-width="0"/><path d="M16.43314,34.04299v-20.8355h223.93315v20.8355z" data-paper-data="{&quot;index&quot;:null}" stroke="none" stroke-width="0"/><path d="M463,29.89829v309.12992h-20.7907v-309.12992z" data-paper-data="{&quot;index&quot;:null}" stroke="none" stroke-width="0"/><path d="M427.75,157.59973v-21.50762h17.92442v21.50762z" data-paper-data="{&quot;index&quot;:null}" stroke="none" stroke-width="0"/><path d="M410.15698,115.88675v16.13071h-12.99419v-16.13071z" data-paper-data="{&quot;index&quot;:null}" stroke="none" stroke-width="0"/><path d="M453.72385,113v212.37467h-122.99419v-212.37467z" data-paper-data="{&quot;index&quot;:null}" stroke="none" stroke-width="0"/><path d="M341.28779,127.13063v-16.13071h58.47384v16.13071z" data-paper-data="{&quot;index&quot;:null}" stroke="none" stroke-width="0"/><path d="M328.52907,340.88784v-18.51916h120.84593v18.51916z" data-paper-data="{&quot;index&quot;:null}" stroke="none" stroke-width="0"/><path d="M328.09623,112.34414v-78.13524h10.82849v78.13525z" data-paper-data="{&quot;index&quot;:null}" stroke="none" stroke-width="0"/><path d="M251.62791,147.29401v103.50538h-12.99419v-103.50537z" data-paper-data="{&quot;index&quot;:null}" stroke="none" stroke-width="0"/><path d="M330.26163,322.22059v18.81916h-86.19476v-18.81916z" data-paper-data="{&quot;index&quot;:null}" stroke="none" stroke-width="0"/><path d="M251.62791,33.03483v82.66987h-12.99419v-82.66987z" data-paper-data="{&quot;index&quot;:null}" stroke="none" stroke-width="0"/><path d="M238.63373,34.04299v-20.8355h223.93315v20.8355z" data-paper-data="{&quot;index&quot;:null}" stroke="none" stroke-width="0"/><path d="M450.5,36.24082v77h-204v-77z" data-paper-data="{&quot;index&quot;:null}" stroke="#8c8c8c" stroke-width="7"/><path d="M134.5,72.35592v-44h257v44z" data-paper-data="{&quot;index&quot;:null}" stroke="none" stroke-width="0"/></g></g></svg>