<svg version="1.1" xmlns="http://www.w3.org/2000/svg" xmlns:xlink="http://www.w3.org/1999/xlink" width="641.5" height="367.14625" viewBox="0,0,641.5,367.14625"><g transform="translate(141.5,-17.68708)"><g data-paper-data="{&quot;isPaintingLayer&quot;:true}" fill-rule="nonzero" stroke="none" stroke-width="0" stroke-linecap="butt" stroke-linejoin="miter" stroke-miterlimit="10" stroke-dasharray="" stroke-dashoffset="0" style="mix-blend-mode: normal"><path d="M497,384.83333v-4h3v4z" fill="#272727"/><path d="M16,328.7633v-294.38542h20.7907v294.38543z" fill="#8c8c8c"/><path d="M33.32559,162.07932v-21.50762h13.92442v21.50762z" fill="#8c8c8c"/><path d="M68.84303,328.7633v-87.37467h12.99419v87.37467z" fill="#8c8c8c"/><path d="M69.27617,200.72155v-85.69013h12.99419v85.69013z" fill="#8c8c8c"/><path d="M16,346.31292v-18.81916h66.99226v18.81916z" fill="#8c8c8c"/><path d="M40.25581,346.01421v-18.81915h24.68896v18.81915z" fill="#595959"/><path d="M82.03958,200.66379v-10.50284h23.82268v10.50284z" fill="#8c8c8c"/><path d="M125.5843,202.18206v-11.42592h25.98837v11.42592z" fill="#8c8c8c"/><path d="M136.41279,194.11671v-78.63721h14.72675v78.63721z" fill="#8c8c8c"/><path d="M79.23837,131.61022v-16.13071h58.47384v16.13071z" fill="#8c8c8c"/><path d="M69.27617,257.96743v-18.81916h86.19477v18.81916z" fill="#8c8c8c"/><path d="M140.31104,116.82373v-84.03111h10.82849v84.03112z" fill="#8c8c8c"/><path d="M68.84303,92.90771v-16.01869h71.46802v16.01869z" fill="#8c8c8c"/><path d="M240.36628,151.7736v103.50538h-12.99419v-103.50537z" fill="#8c8c8c"/><path d="M239.93314,238.70018v18.81916h-86.19476v-18.81916z" fill="#8c8c8c"/><path d="M175.82849,199.4936v-30.91719h58.0436v30.91719z" fill="#8c8c8c"/><path d="M149.84012,104.05359v-30.91719h51.5436v30.9172z" fill="#8c8c8c"/><path d="M240.36628,37.51442v82.66987h-12.99419v-82.66987z" fill="#8c8c8c"/><path d="M16.43314,38.52258v-20.8355h223.93315v20.8355z" fill="#8c8c8c"/><path d="M442.2093,257.5078v-223.12992h20.7907v223.12992z" data-paper-data="{&quot;index&quot;:null}" fill="#8c8c8c"/><path d="M432.75,162.07932v-21.50762h12.92442v21.50762z" data-paper-data="{&quot;index&quot;:null}" fill="#8c8c8c"/><path d="M397.16279,257.51934v-16.13071h12.99419v16.13071z" data-paper-data="{&quot;index&quot;:null}" fill="#8c8c8c"/><path d="M396.72966,202.40609v-87.37467h12.99419v87.37467z" data-paper-data="{&quot;index&quot;:null}" fill="#8c8c8c"/><path d="M362.145,164.5702l1.89233,-8.35741l17.42494,5.59519l-1.89233,8.35741z" data-paper-data="{&quot;index&quot;:null}" fill="#8c8c8c"/><path d="M327.42732,202.18206v-11.42592h25.98837v11.42592z" data-paper-data="{&quot;index&quot;:null}" fill="#8c8c8c"/><path d="M327.86047,194.11671v-78.63721h14.72675v78.63721z" data-paper-data="{&quot;index&quot;:null}" fill="#8c8c8c"/><path d="M341.28779,131.61022v-16.13071h58.47384v16.13071z" data-paper-data="{&quot;index&quot;:null}" fill="#8c8c8c"/><path d="M323.52907,257.36743v-18.51916h120.84593v18.51916z" data-paper-data="{&quot;index&quot;:null}" fill="#8c8c8c"/><path d="M328.09623,116.82373v-78.13524h10.82849v78.13525z" data-paper-data="{&quot;index&quot;:null}" fill="#8c8c8c"/><path d="M366.50858,92.90771v-16.01869h43.6484v16.01869z" data-paper-data="{&quot;index&quot;:null}" fill="#8c8c8c"/><path d="M251.62791,151.7736v103.50538h-12.99419v-103.50537z" data-paper-data="{&quot;index&quot;:null}" fill="#8c8c8c"/><path d="M325.26163,238.70018v18.81916h-86.19476v-18.81916z" data-paper-data="{&quot;index&quot;:null}" fill="#8c8c8c"/><path d="M266.02894,201.86565l12.19814,-14.52625l24.21744,28.83953l-12.19814,14.52625z" data-paper-data="{&quot;index&quot;:null}" fill="#8c8c8c"/><path d="M304.10965,126.02368h-25.96212v-61.38109h25.96213z" data-paper-data="{&quot;index&quot;:null}" fill="#8c8c8c"/><path d="M251.62791,37.51442v82.66987h-12.99419v-82.66987z" data-paper-data="{&quot;index&quot;:null}" fill="#8c8c8c"/><path d="M238.63373,38.52258v-20.8355h223.93315v20.8355z" data-paper-data="{&quot;index&quot;:null}" fill="#8c8c8c"/><path d="M-141.5,112.16666v-1h5v1z" fill="#000000"/></g></g></svg>