<svg version="1.1" xmlns="http://www.w3.org/2000/svg" xmlns:xlink="http://www.w3.org/1999/xlink" width="605" height="368.62584" viewBox="0,0,605,368.62584"><g transform="translate(140.5,25.31292)"><g data-paper-data="{&quot;isPaintingLayer&quot;:true}" fill-rule="nonzero" stroke-linejoin="miter" stroke-miterlimit="10" stroke-dasharray="" stroke-dashoffset="0" style="mix-blend-mode: normal"><path d="M19,-25.31292v4h-3v-4z" data-paper-data="{&quot;index&quot;:null}" fill="#272727" stroke="none" stroke-width="0" stroke-linecap="butt"/><path d="M38.2907,32.23669v294.38543h-20.7907v-294.38542z" data-paper-data="{&quot;index&quot;:null}" fill="#8c8c8c" stroke="none" stroke-width="0" stroke-linecap="butt"/><path d="M218.57848,117.00807v-85.69013h12.99419v85.69013z" data-paper-data="{&quot;index&quot;:null}" fill="#8c8c8c" stroke="none" stroke-width="0" stroke-linecap="butt"/><path d="M84.49226,14.68708v18.81916h-66.99226v-18.81916z" data-paper-data="{&quot;index&quot;:null}" fill="#8c8c8c" stroke="none" stroke-width="0" stroke-linecap="butt"/><path d="M202.31991,116.95031v-10.50284h16.48935v10.50284z" data-paper-data="{&quot;index&quot;:null}" fill="#8c8c8c" stroke="none" stroke-width="0" stroke-linecap="butt"/><path d="M149.27617,116.46858v-9.42592h25.98837v9.42592z" data-paper-data="{&quot;index&quot;:null}" fill="#8c8c8c" stroke="none" stroke-width="0" stroke-linecap="butt"/><path d="M149.7093,110.40323v-78.63721h14.72675v78.63721z" data-paper-data="{&quot;index&quot;:null}" fill="#8c8c8c" stroke="none" stroke-width="0" stroke-linecap="butt"/><path d="M161.97094,15.03257v18.81916h-86.19477v-18.81916z" data-paper-data="{&quot;index&quot;:null}" fill="#8c8c8c" stroke="none" stroke-width="0" stroke-linecap="butt"/><path d="M160.23838,34.29982v-18.81916h86.19476v18.81916z" data-paper-data="{&quot;index&quot;:null}" fill="#8c8c8c" stroke="none" stroke-width="0" stroke-linecap="butt"/><path d="M241.86629,322.47742v20.8355h-223.93315v-20.8355z" data-paper-data="{&quot;index&quot;:null}" fill="#8c8c8c" stroke="none" stroke-width="0" stroke-linecap="butt"/><path d="M464.5,17.4922v309.12992h-20.7907v-309.12992z" data-paper-data="{&quot;index&quot;:null}" fill="#8c8c8c" stroke="none" stroke-width="0" stroke-linecap="butt"/><path d="M463.83544,15.63257v18.51916h-133.80637v-18.51916z" data-paper-data="{&quot;index&quot;:null}" fill="#8c8c8c" stroke="none" stroke-width="0" stroke-linecap="butt"/><path d="M245.56687,34.29982v-18.81916h86.19476v18.81916z" data-paper-data="{&quot;index&quot;:null}" fill="#8c8c8c" stroke="none" stroke-width="0" stroke-linecap="butt"/><path d="M464.06688,322.47742v20.8355h-223.93315v-20.8355z" data-paper-data="{&quot;index&quot;:null}" fill="#8c8c8c" stroke="none" stroke-width="0" stroke-linecap="butt"/><path d="M-140.5,111.64625v-1h5v1z" data-paper-data="{&quot;index&quot;:null}" fill="#000000" stroke="none" stroke-width="0" stroke-linecap="butt"/><path d="M25.75,292.92687v-21h381v21z" fill="#8c8c8c" stroke="none" stroke-width="0" stroke-linecap="butt"/><path d="M32.75,247.92687v-53.57143h35.79121v53.57143z" fill="#8c8c8c" stroke="none" stroke-width="0" stroke-linecap="butt"/><path d="M17.75,210.91588v-18.98901h395v18.98901z" fill="#8c8c8c" stroke="none" stroke-width="0" stroke-linecap="butt"/><path d="M149.75,162.92687v-19h298v19z" fill="#8c8c8c" stroke="none" stroke-width="0" stroke-linecap="butt"/><path d="M253.43213,38.94322v-13.01634h192.38041v13.01635z" fill="#8c8c8c" stroke="none" stroke-width="0" stroke-linecap="butt"/><path d="M32.75,150.92687v-123h56v123z" fill="#8c8c8c" stroke="none" stroke-width="0" stroke-linecap="butt"/><path d="M96.32143,247.92687v-15h352.71429v15z" fill="#8c8c8c" stroke="none" stroke-width="0" stroke-linecap="butt"/><path d="M252.75,160.64498v-38.25509h199v38.25509z" fill="#8c8c8c" stroke="none" stroke-width="0" stroke-linecap="butt"/><path d="M227.51126,83.09912v-57.17225h170.35061v57.17225z" fill="#8c8c8c" stroke="none" stroke-width="0" stroke-linecap="butt"/><path d="M339.38029,131.71266v-8.2571h112.36971v8.2571z" fill="#8c8c8c" stroke="none" stroke-width="0" stroke-linecap="butt"/><path d="M377.57948,141.26245v-115.33558h68.23307v115.33558z" fill="#8c8c8c" stroke="#8c8c8c" stroke-width="1.5" stroke-linecap="butt"/><path d="M379.39651,37.93992l-59.03458,13.37248" fill="none" stroke="none" stroke-width="0" stroke-linecap="round"/></g></g></svg>