<svg version="1.1" xmlns="http://www.w3.org/2000/svg" xmlns:xlink="http://www.w3.org/1999/xlink" width="220.14698" height="49.93551" viewBox="0,0,220.14698,49.93551"><g transform="translate(-129.92654,-149.25537)"><g data-paper-data="{&quot;isPaintingLayer&quot;:true}" fill-rule="nonzero" stroke="none" stroke-linecap="butt" stroke-linejoin="miter" stroke-miterlimit="10" stroke-dasharray="" stroke-dashoffset="0" style="mix-blend-mode: normal"><path d="M347.61378,149.25537c1.35847,0 2.45974,0.79846 2.45974,1.78341v46.36869c0,0.98495 -1.10126,1.78341 -2.45974,1.78341h-215.2275c-1.35847,0 -2.45974,-0.79846 -2.45974,-1.78341v-46.36869c0,-0.98495 1.10126,-1.78341 2.45974,-1.78341z" data-paper-data="{&quot;index&quot;:null}" fill="#888888" stroke-width="0"/><path d="M344.14323,152.92207c1.31467,0 2.3804,0.67054 2.3804,1.4977v38.94012c0,0.82716 -1.06576,1.4977 -2.3804,1.4977h-208.28638c-1.31467,0 -2.3804,-0.67054 -2.3804,-1.4977v-38.94012c0,-0.82716 1.06576,-1.4977 2.3804,-1.4977z" data-paper-data="{&quot;index&quot;:null}" fill="#a2a2a2" stroke-width="0"/><text transform="translate(138.89048,181.28346) scale(0.52621,0.52621)" font-size="40" xml:space="preserve" fill="#d6d6d6" fill-rule="nonzero" stroke="none" stroke-width="1" stroke-linecap="butt" stroke-linejoin="miter" stroke-miterlimit="10" stroke-dasharray="" stroke-dashoffset="0" font-family="&quot;Bahnschrift&quot;, Sans Serif" font-weight="normal" text-anchor="start" style="mix-blend-mode: normal"><tspan x="0" dy="0">Загрузить настройки</tspan></text></g></g></svg>