<svg version="1.1" xmlns="http://www.w3.org/2000/svg" xmlns:xlink="http://www.w3.org/1999/xlink" width="447" height="328.62584" viewBox="0,0,447,328.62584"><g transform="translate(-16,-13.20749)"><g data-paper-data="{&quot;isPaintingLayer&quot;:true}" fill="#8c8c8c" fill-rule="nonzero" stroke-linecap="butt" stroke-linejoin="miter" stroke-miterlimit="10" stroke-dasharray="" stroke-dashoffset="0" style="mix-blend-mode: normal"><path d="M16,324.28371v-294.38542h20.7907v294.38543z" data-paper-data="{&quot;index&quot;:null}" stroke="none" stroke-width="0"/><path d="M33.32559,157.59973v-21.50762h12.92442v21.50762z" data-paper-data="{&quot;index&quot;:null}" stroke="none" stroke-width="0"/><path d="M95.83722,28.31303v87.37467h-12.99419v-87.37467z" data-paper-data="{&quot;index&quot;:null}" stroke="none" stroke-width="0"/><path d="M149.52313,154.35478v86.69013h-11.99419v-86.69013z" data-paper-data="{&quot;index&quot;:null}" stroke="none" stroke-width="0"/><path d="M16,341.83333v-18.81916h66.99226v18.81916z" data-paper-data="{&quot;index&quot;:null}" stroke="none" stroke-width="0"/><path d="M170.11503,153.5373v12.25331h-23.82268v-12.25331z" data-paper-data="{&quot;index&quot;:null}" stroke="none" stroke-width="0"/><path d="M217.82544,153.89427v11.42592h-27.98837v-11.42592z" data-paper-data="{&quot;index&quot;:null}" stroke="none" stroke-width="0"/><path d="M221.39231,155.95962v84.63721h-14.72675v-84.63721z" data-paper-data="{&quot;index&quot;:null}" stroke="none" stroke-width="0"/><path d="M207.96498,224.46611v16.13071h-58.47384v-16.13071z" data-paper-data="{&quot;index&quot;:null}" stroke="none" stroke-width="0"/><path d="M74.27617,341.48784v-18.81916h86.19477v18.81916z" data-paper-data="{&quot;index&quot;:null}" stroke="none" stroke-width="0"/><path d="M220.58999,239.2526v84.03111h-10.82849v-84.03112z" data-paper-data="{&quot;index&quot;:null}" stroke="none" stroke-width="0"/><path d="M292.058,263.16862v16.01869h-71.46802v-16.01869z" data-paper-data="{&quot;index&quot;:null}" stroke="none" stroke-width="0"/><path d="M68.84303,206.17416l40.31628,-40.31628l5.06135,5.06135l-40.31628,40.31628z" data-paper-data="{&quot;index&quot;:null}" stroke="none" stroke-width="0"/><path d="M244.93314,322.22059v18.81916h-86.19476v-18.81916z" data-paper-data="{&quot;index&quot;:null}" stroke="none" stroke-width="0"/><path d="M240.08126,241.51067v-30.91719h51.5436v30.91719z" data-paper-data="{&quot;index&quot;:null}" stroke="none" stroke-width="0"/><path d="M211.06091,252.02274v30.91719h-51.5436v-30.9172z" data-paper-data="{&quot;index&quot;:null}" stroke="none" stroke-width="0"/><path d="M450.5,33.03483v82.66987h-12.99419v-82.66987z" data-paper-data="{&quot;index&quot;:null}" stroke="none" stroke-width="0"/><path d="M16.43314,34.04299v-20.8355h223.93315v20.8355z" data-paper-data="{&quot;index&quot;:null}" stroke="none" stroke-width="0"/><path d="M463,29.89829v309.12992h-20.7907v-309.12992z" data-paper-data="{&quot;index&quot;:null}" stroke="none" stroke-width="0"/><path d="M427.75,157.59973v-21.50762h17.92442v21.50762z" data-paper-data="{&quot;index&quot;:null}" stroke="none" stroke-width="0"/><path d="M410.15698,115.88675v16.13071h-12.99419v-16.13071z" data-paper-data="{&quot;index&quot;:null}" stroke="none" stroke-width="0"/><path d="M453.72385,113v212.37467h-122.99419v-212.37467z" data-paper-data="{&quot;index&quot;:null}" stroke="none" stroke-width="0"/><path d="M341.28779,127.13063v-16.13071h58.47384v16.13071z" data-paper-data="{&quot;index&quot;:null}" stroke="none" stroke-width="0"/><path d="M328.52907,340.88784v-18.51916h120.84593v18.51916z" data-paper-data="{&quot;index&quot;:null}" stroke="none" stroke-width="0"/><path d="M328.09623,112.34414v-78.13524h10.82849v78.13525z" data-paper-data="{&quot;index&quot;:null}" stroke="none" stroke-width="0"/><path d="M330.26163,322.22059v18.81916h-86.19476v-18.81916z" data-paper-data="{&quot;index&quot;:null}" stroke="none" stroke-width="0"/><path d="M439.23837,33.03483v82.66987h-12.99419v-82.66987z" data-paper-data="{&quot;index&quot;:null}" stroke="none" stroke-width="0"/><path d="M238.63373,34.04299v-20.8355h223.93315v20.8355z" data-paper-data="{&quot;index&quot;:null}" stroke="none" stroke-width="0"/><path d="M431.37209,36.24082v77h-204v-77z" data-paper-data="{&quot;index&quot;:null}" stroke="#8c8c8c" stroke-width="7"/><path d="M92.5,114.35592v-88h257v88z" data-paper-data="{&quot;index&quot;:null}" stroke="none" stroke-width="0"/></g></g></svg>