<svg version="1.1" xmlns="http://www.w3.org/2000/svg" xmlns:xlink="http://www.w3.org/1999/xlink" width="147.65799" height="49.93551" viewBox="0,0,147.65799,49.93551"><g transform="translate(-70.98744,-149.25537)"><g data-paper-data="{&quot;isPaintingLayer&quot;:true}" fill-rule="nonzero" stroke="none" stroke-linecap="butt" stroke-linejoin="miter" stroke-miterlimit="10" stroke-dasharray="" stroke-dashoffset="0" style="mix-blend-mode: normal"><g stroke-width="0"><path d="M216.9956,149.25537c0.91114,0 1.64982,0.79846 1.64982,1.78341v46.36869c0,0.98495 -0.73864,1.78341 -1.64982,1.78341h-144.35836c-0.91114,0 -1.6498,-0.79846 -1.6498,-1.78341v-46.36869c0,-0.98495 0.73864,-1.78341 1.6498,-1.78341z" data-paper-data="{&quot;index&quot;:null}" fill="#888888"/><path d="M214.66781,152.92207c0.88179,0 1.5966,0.67054 1.5966,1.4977v38.94012c0,0.82716 -0.71483,1.4977 -1.5966,1.4977h-139.70279c-0.88179,0 -1.5966,-0.67054 -1.5966,-1.4977v-38.94012c0,-0.82716 0.71483,-1.4977 1.5966,-1.4977z" data-paper-data="{&quot;index&quot;:null}" fill="#a2a2a2"/></g><g><g><g fill="#b0b0b0" stroke-width="0"><path d="M81.11923,187.33816l5.34626,-20.19182l14.74401,3.71026l-5.34625,20.19181z"/><path d="M88.02879,183.46745l6.35896,-24.01661l2.97423,0.74845l-6.35896,24.01661z"/><path d="M92.13286,159.22276c0.52434,-1.98034 2.59614,-3.17133 4.62747,-2.66014c2.03133,0.51119 3.25301,2.53094 2.72868,4.51128c-0.52434,1.98034 -2.59613,3.17133 -4.62748,2.66015c-2.03133,-0.51119 -3.25301,-2.53096 -2.72867,-4.51128z"/></g><path d="M87.2276,177.74899c0.62921,-2.37642 3.11536,-3.80559 5.55297,-3.19218c2.43761,0.61341 3.9036,3.03713 3.27439,5.41354c-0.62921,2.37642 -3.11536,3.80559 -5.55296,3.19218c-2.43761,-0.61341 -3.9036,-3.03712 -3.27439,-5.41354z" fill="#787878" stroke-width="NaN"/></g><g><g fill="#d6d6d6" stroke-width="0"><path d="M80.0434,185.95493l5.34626,-20.19181l14.74401,3.71025l-5.34624,20.19181z"/><path d="M86.95295,182.08422l6.35896,-24.01661l2.97423,0.74845l-6.35896,24.01661z"/><path d="M91.05701,157.83953c0.52434,-1.98034 2.59614,-3.17132 4.62747,-2.66014c2.03133,0.51119 3.25301,2.53094 2.72868,4.51128c-0.52434,1.98034 -2.59613,3.17132 -4.62748,2.66014c-2.03133,-0.51119 -3.25301,-2.53096 -2.72867,-4.51128z"/></g><path d="M86.15175,176.36577c0.62921,-2.37642 3.11536,-3.80559 5.55296,-3.19218c2.43761,0.61341 3.9036,3.03713 3.27439,5.41354c-0.62921,2.37642 -3.11536,3.80559 -5.55296,3.19218c-2.43761,-0.61341 -3.9036,-3.03713 -3.27439,-5.41354z" fill="#c8c8c8" stroke-width="NaN"/></g></g><g><path d="M94.73927,192.53721l-4.96288,-20.0188l27.48345,-6.81343l4.96288,20.0188z" fill="#d6d6d6" stroke-width="0"/><g fill="#d6d6d6" stroke-width="0"><path d="M109.7583,168.25033l1.48211,-8.86486l2.56166,0.42144l-1.48212,8.86487z"/><path d="M115.54712,160.10385c-0.28262,1.69042 -1.84269,2.84182 -3.4845,2.5717c-1.64181,-0.27012 -2.74363,-1.85945 -2.46102,-3.54987c0.28262,-1.69042 1.84268,-2.84181 3.48449,-2.57169c1.64181,0.27012 2.74364,1.85944 2.46103,3.54986z"/></g><path d="M96.31216,190.66318l-4.26964,-17.22249l23.64445,-5.86172l4.26964,17.22249z" fill="#c8c8c8" stroke-width="0"/><text transform="translate(114.50247,182.15093) rotate(-13.92421) scale(0.36156,0.36156)" font-size="40" xml:space="preserve" fill="#b0b0b0" fill-rule="nonzero" stroke="none" stroke-width="1" stroke-linecap="butt" stroke-linejoin="miter" stroke-miterlimit="10" stroke-dasharray="" stroke-dashoffset="0" font-family="Sans Serif" font-weight="normal" text-anchor="end" style="mix-blend-mode: normal"><tspan x="0" dy="0">LE</tspan></text></g><text transform="translate(169.80096,184.71524) scale(0.82512,0.82512)" font-size="40" xml:space="preserve" fill="#d3d3d3" fill-rule="nonzero" stroke="none" stroke-width="1" stroke-linecap="butt" stroke-linejoin="miter" stroke-miterlimit="10" stroke-dasharray="" stroke-dashoffset="0" font-family="&quot;Bahnschrift&quot;, Sans Serif" font-weight="normal" text-anchor="middle" style="mix-blend-mode: normal"><tspan x="0" dy="0">Items</tspan></text></g></g></svg>