<svg version="1.1" xmlns="http://www.w3.org/2000/svg" xmlns:xlink="http://www.w3.org/1999/xlink" width="182.42671" height="122.63087" viewBox="0,0,182.42671,122.63087"><g transform="translate(-148.08727,-166.7343)"><g data-paper-data="{&quot;isPaintingLayer&quot;:true}" fill-rule="nonzero" stroke="none" stroke-linecap="butt" stroke-linejoin="miter" stroke-miterlimit="10" stroke-dasharray="" stroke-dashoffset="0" style="mix-blend-mode: normal"><path d="M227.00224,193.26574v-26.53144h25.99557v26.53144z" fill-opacity="0.00578" fill="#000000" stroke-width="0"/><text transform="translate(241.5625,206.38591) scale(0.34033,0.34033)" font-size="40" xml:space="preserve" fill="#dbff00" fill-rule="nonzero" stroke="none" stroke-width="1" stroke-linecap="butt" stroke-linejoin="miter" stroke-miterlimit="10" stroke-dasharray="" stroke-dashoffset="0" font-family="Sans Serif" font-weight="normal" text-anchor="middle" style="mix-blend-mode: normal"><tspan x="0" dy="0">Replace the smiley face</tspan><tspan x="0" dy="46.15px">with the item image,</tspan></text><path d="M227.64125,180c0,-6.82555 5.5332,-12.35875 12.35875,-12.35875c6.82555,0 12.35875,5.53321 12.35875,12.35875c0,6.82555 -5.5332,12.35875 -12.35875,12.35875c-6.82555,0 -12.35875,-5.5332 -12.35875,-12.35875zM239.9405,189.59434c8.49777,0.04207 9.37485,-7.94988 9.37485,-7.94988h-18.22472c0,0 0.6525,7.9093 8.84987,7.94988zM244.50791,177.82203c0.92313,0 1.67147,-0.74834 1.67147,-1.67147c0,-0.92313 -0.74835,-1.67147 -1.67147,-1.67147c-0.92313,0 -1.67146,0.74835 -1.67146,1.67147c0,0.92313 0.74834,1.67147 1.67146,1.67147zM235.4921,177.82203c0.92313,0 1.67147,-0.74834 1.67147,-1.67147c0,-0.92313 -0.74834,-1.67147 -1.67147,-1.67147c-0.92313,0 -1.67147,0.74835 -1.67147,1.67147c0,0.92313 0.74835,1.67147 1.67147,1.67147z" fill="#dbff00" stroke-width="0"/><text transform="translate(239.15142,237.97115) scale(0.29686,0.29686)" font-size="40" xml:space="preserve" fill="#dbff00" fill-rule="nonzero" stroke="none" stroke-width="1" stroke-linecap="butt" stroke-linejoin="miter" stroke-miterlimit="10" stroke-dasharray="" stroke-dashoffset="0" font-family="Sans Serif" font-weight="normal" text-anchor="middle" style="mix-blend-mode: normal"><tspan x="0" dy="0">Then rename this costume</tspan><tspan x="0" dy="46.15px">to the ITEM id of your own item,</tspan></text><text transform="translate(246,268.873) scale(0.3494,0.3494)" font-size="40" xml:space="preserve" fill="#dbff00" fill-rule="nonzero" stroke="none" stroke-width="1" stroke-linecap="butt" stroke-linejoin="miter" stroke-miterlimit="10" stroke-dasharray="" stroke-dashoffset="0" font-family="Sans Serif" font-weight="normal" text-anchor="middle" style="mix-blend-mode: normal"><tspan x="0" dy="0">Then delete the yellow</tspan><tspan x="0" dy="46.15px">text after that!</tspan></text></g></g></svg>