<svg version="1.1" xmlns="http://www.w3.org/2000/svg" xmlns:xlink="http://www.w3.org/1999/xlink" width="338.02521" height="49.93551" viewBox="0,0,338.02521,49.93551"><g transform="translate(-70.98741,-155.03224)"><g data-paper-data="{&quot;isPaintingLayer&quot;:true}" fill-rule="nonzero" stroke="none" stroke-linecap="butt" stroke-linejoin="miter" stroke-miterlimit="10" stroke-dasharray="" stroke-dashoffset="0" style="mix-blend-mode: normal"><path d="M405.2358,155.03224c2.08586,0 3.77682,0.79846 3.77682,1.78341v46.36869c0,0.98495 -1.69093,1.78341 -3.77682,1.78341h-330.47157c-2.08586,0 -3.77682,-0.79846 -3.77682,-1.78341v-46.36869c0,-0.98495 1.69093,-1.78341 3.77682,-1.78341z" data-paper-data="{&quot;index&quot;:null}" fill="#888888" stroke-width="0"/><path d="M399.90694,158.69892c2.01862,0 3.65499,0.67054 3.65499,1.4977v38.94012c0,0.82716 -1.63642,1.4977 -3.65499,1.4977h-319.81381c-2.01862,0 -3.65499,-0.67054 -3.65499,-1.4977v-38.94012c0,-0.82716 1.63642,-1.4977 3.65499,-1.4977z" data-paper-data="{&quot;index&quot;:null}" fill="#a2a2a2" stroke-width="0"/><text transform="translate(240.00001,190.16041) scale(0.8467,0.8467)" font-size="40" xml:space="preserve" fill="#d6d6d6" fill-rule="nonzero" stroke="none" stroke-width="1" stroke-linecap="butt" stroke-linejoin="miter" stroke-miterlimit="10" stroke-dasharray="" stroke-dashoffset="0" font-family="&quot;Bahnschrift&quot;, Sans Serif" font-weight="normal" text-anchor="middle" style="mix-blend-mode: normal"><tspan x="0" dy="0">日本語</tspan></text></g></g></svg>