<svg version="1.1" xmlns="http://www.w3.org/2000/svg" xmlns:xlink="http://www.w3.org/1999/xlink" width="34.1" height="34.1" viewBox="0,0,34.1,34.1"><defs><radialGradient cx="412.77502" cy="21.76003" r="15.8" gradientUnits="userSpaceOnUse" id="color-1"><stop offset="0" stop-color="#818181"/><stop offset="1" stop-color="#6b6b6b"/></radialGradient></defs><g transform="translate(-395.72502,-4.71)"><g data-paper-data="{&quot;isPaintingLayer&quot;:true}" fill-rule="nonzero" stroke-linejoin="miter" stroke-miterlimit="10" stroke-dasharray="" stroke-dashoffset="0" style="mix-blend-mode: normal"><path d="M396.97502,37.56v-31.6h31.6v31.6z" fill="url(#color-1)" stroke="#545454" stroke-width="2.5" stroke-linecap="butt"/><g><g fill="#545454"><path d="M404.43232,25.5627c-1.38071,0 -2.5,-1.11929 -2.5,-2.5v-7.19697c0,-1.38071 1.11929,-2.5 2.5,-2.5h17.04546c1.38071,0 2.5,1.11929 2.5,2.5v7.19697c0,1.38071 -1.11929,2.5 -2.5,2.5z" stroke="none" stroke-width="0" stroke-linecap="butt"/><path d="M412.91887,25.26156l-11.48846,7.62109l5.17419,-8.02219z" stroke="#545454" stroke-width="0.5" stroke-linecap="round"/></g><g fill="#6e6e6e" stroke="none" stroke-width="0" stroke-linecap="butt"><path d="M408.97778,19.3127c0,0.98324 -0.84794,1.7803 -1.89394,1.7803c-1.046,0 -1.89394,-0.79707 -1.89394,-1.7803c0,-0.98324 0.84795,-1.7803 1.89394,-1.7803c1.046,0 1.89394,0.79706 1.89394,1.7803z"/><path d="M420.34141,19.3127c0,0.98324 -0.84794,1.7803 -1.89394,1.7803c-1.046,0 -1.89394,-0.79707 -1.89394,-1.7803c0,-0.98324 0.84794,-1.7803 1.89394,-1.7803c1.046,0 1.89394,0.79706 1.89394,1.7803z"/><path d="M414.58384,19.3127c0,0.98324 -0.84795,1.7803 -1.89394,1.7803c-1.046,0 -1.89394,-0.79707 -1.89394,-1.7803c0,-0.98324 0.84794,-1.7803 1.89394,-1.7803c1.046,0 1.89394,0.79706 1.89394,1.7803z"/></g></g></g></g></svg>