<svg version="1.1" xmlns="http://www.w3.org/2000/svg" xmlns:xlink="http://www.w3.org/1999/xlink" width="641.5" height="367.14625" viewBox="0,0,641.5,367.14625"><g transform="translate(141.5,25.31292)"><g data-paper-data="{&quot;isPaintingLayer&quot;:true}" fill-rule="nonzero" stroke="none" stroke-width="0" stroke-linecap="butt" stroke-linejoin="miter" stroke-miterlimit="10" stroke-dasharray="" stroke-dashoffset="0" style="mix-blend-mode: normal"><path d="M500,-25.31292v4h-3v-4z" data-paper-data="{&quot;index&quot;:null}" fill="#272727"/><path d="M463,30.75711v294.38542h-20.7907v-294.38543z" data-paper-data="{&quot;index&quot;:null}" fill="#8c8c8c"/><path d="M445.67441,197.44109v21.50762h-12.92442v-21.50762z" data-paper-data="{&quot;index&quot;:null}" fill="#8c8c8c"/><path d="M396.15697,31.75711v87.37467h-12.99419v-87.37467z" data-paper-data="{&quot;index&quot;:null}" fill="#8c8c8c"/><path d="M409.72383,158.79886v85.69013h-12.99419v-85.69013z" data-paper-data="{&quot;index&quot;:null}" fill="#8c8c8c"/><path d="M463,13.20749v18.81916h-66.99226v-18.81916z" data-paper-data="{&quot;index&quot;:null}" fill="#8c8c8c"/><path d="M396.96042,158.85662v10.50284h-23.82268v-10.50284z" data-paper-data="{&quot;index&quot;:null}" fill="#8c8c8c"/><path d="M353.4157,157.33835v11.42592h-25.98837v-11.42592z" data-paper-data="{&quot;index&quot;:null}" fill="#8c8c8c"/><path d="M342.58721,165.4037v78.63721h-14.72675v-78.63721z" data-paper-data="{&quot;index&quot;:null}" fill="#8c8c8c"/><path d="M399.76163,227.91019v16.13071h-58.47384v-16.13071z" data-paper-data="{&quot;index&quot;:null}" fill="#8c8c8c"/><path d="M404.72383,13.55298v18.81916h-86.19477v-18.81916z" data-paper-data="{&quot;index&quot;:null}" fill="#8c8c8c"/><path d="M338.68896,242.69668v84.03111h-10.82849v-84.03112z" data-paper-data="{&quot;index&quot;:null}" fill="#8c8c8c"/><path d="M410.15697,266.6127v16.01869h-71.46802v-16.01869z" data-paper-data="{&quot;index&quot;:null}" fill="#8c8c8c"/><path d="M238.63372,207.74681v-103.50538h12.99419v103.50537z" data-paper-data="{&quot;index&quot;:null}" fill="#8c8c8c"/><path d="M234.06686,32.82023v-18.81916h86.19476v18.81916z" data-paper-data="{&quot;index&quot;:null}" fill="#8c8c8c"/><path d="M303.17151,160.02681v30.91719h-51.5436v-30.91719z" data-paper-data="{&quot;index&quot;:null}" fill="#8c8c8c"/><path d="M329.15988,255.46682v30.91719h-51.5436v-30.9172z" data-paper-data="{&quot;index&quot;:null}" fill="#8c8c8c"/><path d="M238.63372,322.00599v-82.66987h12.99419v82.66987z" data-paper-data="{&quot;index&quot;:null}" fill="#8c8c8c"/><path d="M462.56686,320.99783v20.8355h-223.93315v-20.8355z" data-paper-data="{&quot;index&quot;:null}" fill="#8c8c8c"/><path d="M36.7907,16.01261v309.12992h-20.7907v-309.12992z" data-paper-data="{&quot;index&quot;:null}" fill="#8c8c8c"/><path d="M47.87416,197.44109v21.50762h-14.54858v-21.50762z" data-paper-data="{&quot;index&quot;:null}" fill="#8c8c8c"/><path d="M81.83721,102.00107v16.13071h-12.99419v-16.13071z" data-paper-data="{&quot;index&quot;:null}" fill="#8c8c8c"/><path d="M82.27034,157.11432v87.37467h-12.99419v-87.37467z" data-paper-data="{&quot;index&quot;:null}" fill="#8c8c8c"/><path d="M151.57268,157.33835v11.42592h-25.98837v-11.42592z" data-paper-data="{&quot;index&quot;:null}" fill="#8c8c8c"/><path d="M151.13953,165.4037v78.63721h-14.72675v-78.63721z" data-paper-data="{&quot;index&quot;:null}" fill="#8c8c8c"/><path d="M137.71221,227.91019v16.13071h-58.47384v-16.13071z" data-paper-data="{&quot;index&quot;:null}" fill="#8c8c8c"/><path d="M150.47093,14.15298v18.51916h-120.84593v-18.51916z" data-paper-data="{&quot;index&quot;:null}" fill="#8c8c8c"/><path d="M150.90377,242.69668v78.13524h-10.82849v-78.13525z" data-paper-data="{&quot;index&quot;:null}" fill="#8c8c8c"/><path d="M227.37209,207.74681v-103.50538h12.99419v103.50537z" data-paper-data="{&quot;index&quot;:null}" fill="#8c8c8c"/><path d="M148.73837,32.82023v-18.81916h86.19476v18.81916z" data-paper-data="{&quot;index&quot;:null}" fill="#8c8c8c"/><path d="M227.37209,322.00599v-82.66987h12.99419v82.66987z" data-paper-data="{&quot;index&quot;:null}" fill="#8c8c8c"/><path d="M240.36627,320.99783v20.8355h-223.93315v-20.8355z" data-paper-data="{&quot;index&quot;:null}" fill="#8c8c8c"/><path d="M-136.5,247.35375v1h-5v-1z" data-paper-data="{&quot;index&quot;:null}" fill="#000000"/></g></g></svg>