<svg version="1.1" xmlns="http://www.w3.org/2000/svg" xmlns:xlink="http://www.w3.org/1999/xlink" width="268.73333" height="50.1937" viewBox="0,0,268.73333,50.1937"><g transform="translate(-105.63333,-147.36557)"><g data-paper-data="{&quot;isPaintingLayer&quot;:true}" fill-rule="nonzero" stroke="none" stroke-linecap="butt" stroke-linejoin="miter" stroke-miterlimit="10" stroke-dasharray="" stroke-dashoffset="0" style="mix-blend-mode: normal"><path d="M371.36405,147.36557c1.6583,0 3.00261,0.79846 3.00261,1.78341v46.36869c0,0.98495 -1.34431,1.78341 -3.00261,1.78341h-262.72811c-1.6583,0 -3.00261,-0.79846 -3.00261,-1.78341v-46.36869c0,-0.98495 1.34431,-1.78341 3.00261,-1.78341z" data-paper-data="{&quot;index&quot;:null}" fill="#888888" stroke-width="0"/><path d="M367.12756,151.03224c1.60481,0 2.90577,0.67054 2.90577,1.4977v38.94012c0,0.82716 -1.30096,1.4977 -2.90577,1.4977h-254.25511c-1.60481,0 -2.90577,-0.67054 -2.90577,-1.4977v-38.94012c0,-0.82716 1.30096,-1.4977 2.90577,-1.4977z" data-paper-data="{&quot;index&quot;:null}" fill="#a3a3a3" stroke-width="0"/><text transform="translate(240,184.43542) scale(0.8467,0.8467)" font-size="40" xml:space="preserve" fill="#d6d6d6" fill-rule="nonzero" stroke="none" stroke-width="1" stroke-linecap="butt" stroke-linejoin="miter" stroke-miterlimit="10" stroke-dasharray="" stroke-dashoffset="0" font-family="&quot;Bahnschrift&quot;, Sans Serif" font-weight="normal" text-anchor="middle" style="mix-blend-mode: normal"><tspan x="0" dy="0">Start</tspan></text></g></g></svg>