<svg version="1.1" xmlns="http://www.w3.org/2000/svg" xmlns:xlink="http://www.w3.org/1999/xlink" width="63.5143" height="49.93551" viewBox="0,0,63.5143,49.93551"><g transform="translate(-208.24287,-149.25537)"><g data-paper-data="{&quot;isPaintingLayer&quot;:true}" fill-rule="nonzero" stroke="none" stroke-linecap="butt" stroke-linejoin="miter" stroke-miterlimit="10" stroke-dasharray="" stroke-dashoffset="0" style="mix-blend-mode: normal"><path d="M271.04751,149.25537c0.39193,0 0.70966,0.79846 0.70966,1.78341v46.36869c0,0.98495 -0.31772,1.78341 -0.70966,1.78341h-62.09498c-0.39193,0 -0.70966,-0.79846 -0.70966,-1.78341v-46.36869c0,-0.98495 0.31772,-1.78341 0.70966,-1.78341z" data-paper-data="{&quot;index&quot;:null}" fill="#686868" stroke-width="0"/><path d="M270.04623,152.92207c0.37929,0 0.68677,0.67054 0.68677,1.4977v38.94012c0,0.82716 -0.30748,1.4977 -0.68677,1.4977h-60.0924c-0.37929,0 -0.68677,-0.67054 -0.68677,-1.4977v-38.94012c0,-0.82716 0.30748,-1.4977 0.68677,-1.4977z" data-paper-data="{&quot;index&quot;:null}" fill="#8f8f8f" stroke-width="0"/><text transform="translate(210.81993,183.04829) scale(0.71568,0.71568)" font-size="40" xml:space="preserve" fill="#d6d6d6" fill-rule="nonzero" stroke="none" stroke-width="1" stroke-linecap="butt" stroke-linejoin="miter" stroke-miterlimit="10" stroke-dasharray="" stroke-dashoffset="0" font-family="&quot;Bahnschrift&quot;, Sans Serif" font-weight="normal" text-anchor="start" style="mix-blend-mode: normal"><tspan x="0" dy="0">いや</tspan></text></g></g></svg>