<svg version="1.1" xmlns="http://www.w3.org/2000/svg" xmlns:xlink="http://www.w3.org/1999/xlink" width="605" height="328.62584" viewBox="0,0,605,328.62584"><g transform="translate(140.5,-14.68708)"><g data-paper-data="{&quot;isPaintingLayer&quot;:true}" fill-rule="nonzero" stroke-linecap="butt" stroke-linejoin="miter" stroke-miterlimit="10" stroke-dasharray="" stroke-dashoffset="0" style="mix-blend-mode: normal"><path d="M-140.5,111.64625v-1h5v1z" data-paper-data="{&quot;index&quot;:null}" fill="#000000" stroke="none" stroke-width="0"/><path d="M17.5,325.7633v-294.38542h20.7907v294.38543z" data-paper-data="{&quot;index&quot;:null}" fill="#8c8c8c" stroke="none" stroke-width="0"/><path d="M17.5,343.31292v-18.81916h66.99226v18.81916z" data-paper-data="{&quot;index&quot;:null}" fill="#8c8c8c" stroke="none" stroke-width="0"/><path d="M75.77617,342.96743v-18.81916h86.19477v18.81916z" data-paper-data="{&quot;index&quot;:null}" fill="#8c8c8c" stroke="none" stroke-width="0"/><path d="M246.43314,323.70018v18.81916h-86.19476v-18.81916z" data-paper-data="{&quot;index&quot;:null}" fill="#8c8c8c" stroke="none" stroke-width="0"/><path d="M17.93314,35.52258v-20.8355h223.93315v20.8355z" data-paper-data="{&quot;index&quot;:null}" fill="#8c8c8c" stroke="none" stroke-width="0"/><path d="M443.7093,340.5078v-309.12992h20.7907v309.12992z" data-paper-data="{&quot;index&quot;:null}" fill="#8c8c8c" stroke="none" stroke-width="0"/><path d="M330.02907,342.36743v-18.51916h120.84593v18.51916z" data-paper-data="{&quot;index&quot;:null}" fill="#8c8c8c" stroke="none" stroke-width="0"/><path d="M331.76163,323.70018v18.81916h-86.19476v-18.81916z" data-paper-data="{&quot;index&quot;:null}" fill="#8c8c8c" stroke="none" stroke-width="0"/><path d="M240.13373,35.52258v-20.8355h223.93315v20.8355z" data-paper-data="{&quot;index&quot;:null}" fill="#8c8c8c" stroke="none" stroke-width="0"/><path d="M245,292.83331v-24h39v24z" fill="#8c8c8c" stroke="none" stroke-width="0"/><path d="M251.44846,237.49998v-24h32.20148v24z" fill="#8c8c8c" stroke="none" stroke-width="0"/><path d="M263.71217,170.83331v-24h22.48932v24z" fill="#8c8c8c" stroke="none" stroke-width="0"/><path d="M281,110.83331v-24h39v24z" fill="#8c8c8c" stroke="none" stroke-width="0"/><path d="M400,112.83331v-27h48v27z" fill="#8c8c8c" stroke="none" stroke-width="0"/><path d="M262.75,292.83333v-266h27v266z" fill="#8c8c8c" stroke="none" stroke-width="0"/><path d="M32.75799,236.8888v-22.37849h194.87141v22.37849z" fill="#8c8c8c" stroke="none" stroke-width="0"/><path d="M60.02442,292.72494v-34.72007h203.76695v34.72007z" fill="#8c8c8c" stroke="none" stroke-width="0"/><path d="M256.44629,236.8888v-22.37849h5.334v22.37849z" fill="#8c8c8c" stroke="none" stroke-width="0"/><g fill="#8c8c8c" stroke="none" stroke-width="0"><path d="M267.15547,165.97691l-0.1641,24.38078l-194.86617,-1.55684l0.1641,-24.38078z"/><path d="M43.47319,164.18985l-0.1641,24.38078l-5.33386,-0.04261l0.1641,-24.38078z"/></g><path d="M317.21218,329.92539l47.52205,-144.95409l47.52205,144.95409z" fill="#8c8c8c" stroke="#8c8c8c" stroke-width="5"/></g></g></svg>