<svg version="1.1" xmlns="http://www.w3.org/2000/svg" xmlns:xlink="http://www.w3.org/1999/xlink" width="34.1" height="34.1" viewBox="0,0,34.1,34.1"><defs><radialGradient cx="412.77502" cy="21.76005" r="15.8" gradientUnits="userSpaceOnUse" id="color-1"><stop offset="0" stop-color="#818181"/><stop offset="1" stop-color="#6b6b6b"/></radialGradient><radialGradient cx="412.77502" cy="21.76005" r="15.8" gradientUnits="userSpaceOnUse" id="color-2"><stop offset="0" stop-color="#818181"/><stop offset="1" stop-color="#6b6b6b"/></radialGradient><radialGradient cx="412.77502" cy="21.76005" r="15.8" gradientUnits="userSpaceOnUse" id="color-3"><stop offset="0" stop-color="#818181"/><stop offset="1" stop-color="#6b6b6b"/></radialGradient></defs><g transform="translate(-395.72502,-4.71)"><g data-paper-data="{&quot;isPaintingLayer&quot;:true}" fill-rule="nonzero" stroke-linecap="butt" stroke-linejoin="miter" stroke-miterlimit="10" stroke-dasharray="" stroke-dashoffset="0" style="mix-blend-mode: normal"><path d="M396.97502,37.56v-31.6h31.6v31.6z" fill="url(#color-1)" stroke="#545454" stroke-width="2.5"/><path d="M396.97502,37.56v-31.6h31.6v31.6z" fill="url(#color-2)" stroke="#545454" stroke-width="2.5"/><path d="M396.97502,37.56v-31.6h31.6v31.6z" fill="url(#color-3)" stroke="#545454" stroke-width="2.5"/><path d="M408.70275,25.36307c-0.11088,0 -0.20075,-0.00387 -0.20075,-0.00863v-0.60174c0,-0.00476 0.08988,-0.00863 0.20075,-0.00863h7.17701c0.11088,0 0.20076,0.00387 0.20076,0.00863v0.60174c0,0.00476 -0.08988,0.00863 -0.20076,0.00863z" fill-opacity="0.22745" fill="#6c6c6c" stroke="none" stroke-width="0"/><path d="M408.70275,25.50527c-0.11088,0 -0.20075,-0.09071 -0.20075,-0.20262v-14.13281c0,-0.11191 0.08988,-0.20262 0.20075,-0.20262h7.17701c0.11088,0 0.20076,0.09071 0.20076,0.20262v14.13281c0,0.11191 -0.08988,0.20262 -0.20076,0.20262z" fill="none" stroke="#000000" stroke-width="0.5"/><path d="M408.70275,25.40489c-0.11088,0 -0.20075,-0.08988 -0.20075,-0.20076v-14.00269c0,-0.11088 0.08988,-0.20075 0.20075,-0.20075h7.17701c0.11088,0 0.20076,0.08988 0.20076,0.20075v14.0027c0,0.11088 -0.08988,0.20076 -0.20076,0.20076z" fill-opacity="0.81569" fill="#00ceff" stroke="none" stroke-width="0"/><path d="M410.30043,10.9254v-1.23799h3.98165v1.23799z" fill="#909090" stroke="#000000" stroke-width="0.5"/><path d="M408.25473,19.79759v-3.2h8.1v3.2z" fill="#ffffff" stroke="none" stroke-width="0"/><text transform="translate(412.29672,18.7832) rotate(1.70642) scale(0.05264,0.05264)" font-size="40" xml:space="preserve" fill="#000000" fill-rule="nonzero" stroke="none" stroke-width="1" stroke-linecap="butt" stroke-linejoin="miter" stroke-miterlimit="10" stroke-dasharray="" stroke-dashoffset="0" font-family="Archivo Black" font-weight="normal" text-anchor="middle" style="mix-blend-mode: normal"><tspan x="0" dy="0">Вода</tspan></text><text transform="translate(412.58065,33.43115) scale(0.1945,0.1945)" font-size="40" xml:space="preserve" fill="#545454" fill-rule="nonzero" stroke="none" stroke-width="1" stroke-linecap="butt" stroke-linejoin="miter" stroke-miterlimit="10" stroke-dasharray="" stroke-dashoffset="0" font-family="&quot;Bahnschrift&quot;, Sans Serif" font-weight="normal" text-anchor="middle" style="mix-blend-mode: normal"><tspan x="0" dy="0">Пить</tspan></text></g></g></svg>