<svg version="1.1" xmlns="http://www.w3.org/2000/svg" xmlns:xlink="http://www.w3.org/1999/xlink" width="605" height="368.62584" viewBox="0,0,605,368.62584"><g transform="translate(140.5,25.31292)"><g data-paper-data="{&quot;isPaintingLayer&quot;:true}" fill-rule="nonzero" stroke="none" stroke-width="0" stroke-linecap="butt" stroke-linejoin="miter" stroke-miterlimit="10" stroke-dasharray="" stroke-dashoffset="0" style="mix-blend-mode: normal"><path d="M19,-25.31292v4h-3v-4z" data-paper-data="{&quot;index&quot;:null}" fill="#272727"/><path d="M464.5,32.2367v294.38542h-20.7907v-294.38543z" data-paper-data="{&quot;index&quot;:null}" fill="#8c8c8c"/><path d="M447.17441,198.92068v21.50762h-12.92442v-21.50762z" data-paper-data="{&quot;index&quot;:null}" fill="#8c8c8c"/><path d="M397.65697,33.2367v87.37467h-12.99419v-87.37467z" data-paper-data="{&quot;index&quot;:null}" fill="#8c8c8c"/><path d="M250.42733,117.00807v-85.69013h12.99419v85.69013z" data-paper-data="{&quot;index&quot;:null}" fill="#8c8c8c"/><path d="M464.5,14.68708v18.81916h-66.99226v-18.81916z" data-paper-data="{&quot;index&quot;:null}" fill="#8c8c8c"/><path d="M263.19074,116.95031v-10.50284h18.82268v10.50284z" data-paper-data="{&quot;index&quot;:null}" fill="#8c8c8c"/><path d="M306.73546,118.46858v-11.42592h25.98837v11.42592z" data-paper-data="{&quot;index&quot;:null}" fill="#8c8c8c"/><path d="M317.56395,110.40323v-78.63721h14.72675v78.63721z" data-paper-data="{&quot;index&quot;:null}" fill="#8c8c8c"/><path d="M208.26163,209.38978v16.13071h-58.47384v-16.13071z" data-paper-data="{&quot;index&quot;:null}" fill="#8c8c8c"/><path d="M406.22383,15.03257v18.81916h-86.19477v-18.81916z" data-paper-data="{&quot;index&quot;:null}" fill="#8c8c8c"/><path d="M340.18896,244.17627v84.03111h-10.82849v-84.03112z" data-paper-data="{&quot;index&quot;:null}" fill="#8c8c8c"/><path d="M411.65697,268.09229v16.01869h-71.46802v-16.01869z" data-paper-data="{&quot;index&quot;:null}" fill="#8c8c8c"/><path d="M235.56686,34.29982v-18.81916h86.19476v18.81916z" data-paper-data="{&quot;index&quot;:null}" fill="#8c8c8c"/><path d="M208.67151,111.0064v30.91719h-51.5436v-30.91719z" data-paper-data="{&quot;index&quot;:null}" fill="#8c8c8c"/><path d="M330.65988,256.94641v30.91719h-51.5436v-30.9172z" data-paper-data="{&quot;index&quot;:null}" fill="#8c8c8c"/><path d="M240.13372,323.48558v-82.66987h12.99419v82.66987z" data-paper-data="{&quot;index&quot;:null}" fill="#8c8c8c"/><path d="M464.06686,322.47742v20.8355h-223.93315v-20.8355z" data-paper-data="{&quot;index&quot;:null}" fill="#8c8c8c"/><path d="M38.2907,17.4922v309.12992h-20.7907v-309.12992z" data-paper-data="{&quot;index&quot;:null}" fill="#8c8c8c"/><path d="M48.75,198.92068v21.50762h-13.92442v-21.50762z" data-paper-data="{&quot;index&quot;:null}" fill="#8c8c8c"/><path d="M83.77034,158.59391v87.37467h-12.99419v-87.37467z" data-paper-data="{&quot;index&quot;:null}" fill="#8c8c8c"/><path d="M153.07268,158.81794v11.42592h-25.98837v-11.42592z" data-paper-data="{&quot;index&quot;:null}" fill="#8c8c8c"/><path d="M152.63953,166.88329v78.63721h-14.72675v-78.63721z" data-paper-data="{&quot;index&quot;:null}" fill="#8c8c8c"/><path d="M139.21221,229.38978v16.13071h-58.47384v-16.13071z" data-paper-data="{&quot;index&quot;:null}" fill="#8c8c8c"/><path d="M151.97093,15.63257v18.51916h-120.84593v-18.51916z" data-paper-data="{&quot;index&quot;:null}" fill="#8c8c8c"/><path d="M152.40377,244.17627v78.13524h-10.82849v-78.13525z" data-paper-data="{&quot;index&quot;:null}" fill="#8c8c8c"/><path d="M138.37209,162.7264v-89.50538h20.99419v89.50537z" data-paper-data="{&quot;index&quot;:null}" fill="#8c8c8c"/><path d="M150.23837,34.29982v-18.81916h86.19476v18.81916z" data-paper-data="{&quot;index&quot;:null}" fill="#8c8c8c"/><path d="M228.87209,323.48558v-82.66987h12.99419v82.66987z" data-paper-data="{&quot;index&quot;:null}" fill="#8c8c8c"/><path d="M241.86627,322.47742v20.8355h-223.93315v-20.8355z" data-paper-data="{&quot;index&quot;:null}" fill="#8c8c8c"/><path d="M-140.5,111.64625v-1h5v1z" data-paper-data="{&quot;index&quot;:null}" fill="#000000"/><path d="M99.75,77.07313c14.91169,0 27,11.86445 27,26.5c0,14.63555 -12.08831,26.5 -27,26.5c-14.91169,0 -27,-11.86445 -27,-26.5c0,-14.63555 12.08831,-26.5 27,-26.5z" data-paper-data="{&quot;index&quot;:null}" fill="#8c8c8c"/></g></g></svg>