<svg version="1.1" xmlns="http://www.w3.org/2000/svg" xmlns:xlink="http://www.w3.org/1999/xlink" width="447" height="328.62584" viewBox="0,0,447,328.62584"><g transform="translate(-16,-13.20749)"><g data-paper-data="{&quot;isPaintingLayer&quot;:true}" fill="#8c8c8c" fill-rule="nonzero" stroke-linecap="butt" stroke-linejoin="miter" stroke-miterlimit="10" stroke-dasharray="" stroke-dashoffset="0" style="mix-blend-mode: normal"><path d="M442.2093,324.28372v-294.38543h20.7907v294.38542z" data-paper-data="{&quot;index&quot;:null}" stroke="none" stroke-width="0"/><path d="M432.74999,157.59973v-21.50762h12.92442v21.50762z" data-paper-data="{&quot;index&quot;:null}" stroke="none" stroke-width="0"/><path d="M383.16278,323.28371v-87.37467h12.99419v87.37467z" data-paper-data="{&quot;index&quot;:null}" stroke="none" stroke-width="0"/><path d="M396.72964,196.24196v-85.69013h12.99419v85.69013z" data-paper-data="{&quot;index&quot;:null}" stroke="none" stroke-width="0"/><path d="M396.00774,341.83333v-18.81916h66.99226v18.81916z" data-paper-data="{&quot;index&quot;:null}" stroke="none" stroke-width="0"/><path d="M373.13774,196.1842v-10.50284h23.82268v10.50284z" data-paper-data="{&quot;index&quot;:null}" stroke="none" stroke-width="0"/><path d="M327.42733,197.70247v-11.42592h25.98837v11.42592z" data-paper-data="{&quot;index&quot;:null}" stroke="none" stroke-width="0"/><path d="M327.86046,189.63712v-78.63721h14.72675v78.63721z" data-paper-data="{&quot;index&quot;:null}" stroke="none" stroke-width="0"/><path d="M341.28779,127.13063v-16.13071h58.47384v16.13071z" data-paper-data="{&quot;index&quot;:null}" stroke="none" stroke-width="0"/><path d="M318.52906,341.48784v-18.81916h86.19477v18.81916z" data-paper-data="{&quot;index&quot;:null}" stroke="none" stroke-width="0"/><path d="M327.86047,112.34415v-84.03112h10.82849v84.03111z" data-paper-data="{&quot;index&quot;:null}" stroke="none" stroke-width="0"/><path d="M338.68895,88.42812v-16.01869h71.46802v16.01869z" data-paper-data="{&quot;index&quot;:null}" stroke="none" stroke-width="0"/><path d="M251.62791,147.29402v103.50537h-12.99419v-103.50538z" data-paper-data="{&quot;index&quot;:null}" stroke="none" stroke-width="0"/><path d="M320.26162,322.22059v18.81916h-86.19476v-18.81916z" data-paper-data="{&quot;index&quot;:null}" stroke="none" stroke-width="0"/><path d="M251.62791,195.01401v-30.91719h51.5436v30.91719z" data-paper-data="{&quot;index&quot;:null}" stroke="none" stroke-width="0"/><path d="M277.61628,99.57401v-30.9172h51.5436v30.91719z" data-paper-data="{&quot;index&quot;:null}" stroke="none" stroke-width="0"/><path d="M251.62791,33.03483v82.66987h-12.99419v-82.66987z" data-paper-data="{&quot;index&quot;:null}" stroke="none" stroke-width="0"/><path d="M238.63371,34.04299v-20.8355h223.93315v20.8355z" data-paper-data="{&quot;index&quot;:null}" stroke="none" stroke-width="0"/><path d="M16,339.02821v-309.12992h20.7907v309.12992z" data-paper-data="{&quot;index&quot;:null}" stroke="none" stroke-width="0"/><path d="M33.32558,157.59973v-21.50762h17.92442v21.50762z" data-paper-data="{&quot;index&quot;:null}" stroke="none" stroke-width="0"/><path d="M68.84302,253.03975v-16.13071h12.99419v16.13071z" data-paper-data="{&quot;index&quot;:null}" stroke="none" stroke-width="0"/><path d="M25.27615,197.9265v-87.37467h56.99419v87.37467z" data-paper-data="{&quot;index&quot;:null}" stroke="none" stroke-width="0"/><path d="M125.58431,197.70247v-11.42592h25.98837v11.42592z" data-paper-data="{&quot;index&quot;:null}" stroke="none" stroke-width="0"/><path d="M136.41278,189.63712v-78.63721h14.72675v78.63721z" data-paper-data="{&quot;index&quot;:null}" stroke="none" stroke-width="0"/><path d="M79.23837,127.13063v-16.13071h58.47384v16.13071z" data-paper-data="{&quot;index&quot;:null}" stroke="none" stroke-width="0"/><path d="M29.625,340.88784v-18.51916h120.84593v18.51916z" data-paper-data="{&quot;index&quot;:null}" stroke="none" stroke-width="0"/><path d="M140.07528,112.34415v-78.13525h10.82849v78.13524z" data-paper-data="{&quot;index&quot;:null}" stroke="none" stroke-width="0"/><path d="M240.36628,147.29402v103.50537h-12.99419v-103.50538z" data-paper-data="{&quot;index&quot;:null}" stroke="none" stroke-width="0"/><path d="M234.93313,322.22059v18.81916h-86.19476v-18.81916z" data-paper-data="{&quot;index&quot;:null}" stroke="none" stroke-width="0"/><path d="M240.36628,33.03483v82.66987h-12.99419v-82.66987z" data-paper-data="{&quot;index&quot;:null}" stroke="none" stroke-width="0"/><path d="M16.43312,34.04299v-20.8355h223.93315v20.8355z" data-paper-data="{&quot;index&quot;:null}" stroke="none" stroke-width="0"/><path d="M232.5,36.24082v77h-204v-77z" data-paper-data="{&quot;index&quot;:null}" stroke="#8c8c8c" stroke-width="7"/><path d="M344.5,279.24082v44h-257v-44z" data-paper-data="{&quot;index&quot;:null}" stroke="none" stroke-width="0"/></g></g></svg>