<svg version="1.1" xmlns="http://www.w3.org/2000/svg" xmlns:xlink="http://www.w3.org/1999/xlink" width="605" height="368.62584" viewBox="0,0,605,368.62584"><g transform="translate(140.5,25.31292)"><g data-paper-data="{&quot;isPaintingLayer&quot;:true}" fill-rule="nonzero" stroke="none" stroke-width="0" stroke-linecap="butt" stroke-linejoin="miter" stroke-miterlimit="10" stroke-dasharray="" stroke-dashoffset="0" style="mix-blend-mode: normal"><path d="M19,-25.31292v4h-3v-4z" data-paper-data="{&quot;index&quot;:null}" fill="#272727"/><path d="M17.5,325.7633v-294.38542h20.7907v294.38543z" data-paper-data="{&quot;index&quot;:null}" fill="#8c8c8c"/><path d="M231.57267,240.99193v85.69013h-12.99419v-85.69013z" data-paper-data="{&quot;index&quot;:null}" fill="#8c8c8c"/><path d="M17.5,343.31292v-18.81916h66.99226v18.81916z" data-paper-data="{&quot;index&quot;:null}" fill="#8c8c8c"/><path d="M218.80926,241.04969v10.50284h-16.48935v-10.50284z" data-paper-data="{&quot;index&quot;:null}" fill="#8c8c8c"/><path d="M175.26454,241.53142v9.42592h-25.98837v-9.42592z" data-paper-data="{&quot;index&quot;:null}" fill="#8c8c8c"/><path d="M164.43605,247.59677v78.63721h-14.72675v-78.63721z" data-paper-data="{&quot;index&quot;:null}" fill="#8c8c8c"/><path d="M75.77617,342.96743v-18.81916h86.19477v18.81916z" data-paper-data="{&quot;index&quot;:null}" fill="#8c8c8c"/><path d="M246.43314,323.70018v18.81916h-86.19476v-18.81916z" data-paper-data="{&quot;index&quot;:null}" fill="#8c8c8c"/><path d="M17.93314,35.52258v-20.8355h223.93315v20.8355z" data-paper-data="{&quot;index&quot;:null}" fill="#8c8c8c"/><path d="M443.7093,340.5078v-309.12992h20.7907v309.12992z" data-paper-data="{&quot;index&quot;:null}" fill="#8c8c8c"/><path d="M330.02907,342.36743v-18.51916h120.84593v18.51916z" data-paper-data="{&quot;index&quot;:null}" fill="#8c8c8c"/><path d="M331.76163,323.70018v18.81916h-86.19476v-18.81916z" data-paper-data="{&quot;index&quot;:null}" fill="#8c8c8c"/><path d="M240.13373,35.52258v-20.8355h223.93315v20.8355z" data-paper-data="{&quot;index&quot;:null}" fill="#8c8c8c"/><path d="M-140.5,111.64625v-1h5v1z" data-paper-data="{&quot;index&quot;:null}" fill="#000000"/><path d="M407.12148,147.12747v18.94566h-389.37148v-18.94566z" data-paper-data="{&quot;index&quot;:null}" fill="#8c8c8c"/><path d="M447.75,195.07313v21h-298v-21z" data-paper-data="{&quot;index&quot;:null}" fill="#8c8c8c"/><path d="M403.3189,251.72934v46.3438h-150.56889v-46.34379z" data-paper-data="{&quot;index&quot;:null}" fill="#8c8c8c"/><path d="M88.75,208.01122v122.06191h-56v-122.06191z" data-paper-data="{&quot;index&quot;:null}" fill="#8c8c8c"/><path d="M280.53581,208.07313v90h-27.78581v-90z" data-paper-data="{&quot;index&quot;:null}" fill="#8c8c8c"/><path d="M408.05957,68.32822v53.65485h-389.37148v-53.65485z" data-paper-data="{&quot;index&quot;:null}" fill="#8c8c8c"/><path d="M99.42917,68.32822v97.74491h-81.67917v-97.74491z" data-paper-data="{&quot;index&quot;:null}" fill="#8c8c8c"/></g></g></svg>